<svg width="13" height="11" viewBox="0 0 13 11" fill="none" xmlns="http://www.w3.org/2000/svg">
<path d="M8.75405 1.06716C8.57695 0.883863 8.28218 0.883863 8.09889 1.06716C7.92178 1.24426 7.92178 1.53902 8.09889 1.71571L11.4209 5.03775H0.458654C0.203112 5.03817 0 5.24128 0 5.49682C0 5.75236 0.203112 5.96208 0.458654 5.96208H11.4209L8.09889 9.27792C7.92178 9.46122 7.92178 9.75639 8.09889 9.93309C8.28218 10.1164 8.57736 10.1164 8.75405 9.93309L12.8625 5.82461C13.0458 5.6475 13.0458 5.35274 12.8625 5.17605L8.75405 1.06716Z" fill="url(#paint0_linear)"/>
<defs>
<linearGradient id="paint0_linear" x1="4.0625" y1="10.0706" x2="11.4653" y2="10.0706" gradientUnits="userSpaceOnUse">
<stop stop-color="#E6B712"/>
<stop offset="1" stop-color="#CAAA3B"/>
</linearGradient>
</defs>
</svg>
