<svg width="12" height="12" viewBox="0 0 12 12" fill="none" xmlns="http://www.w3.org/2000/svg">
<g clip-path="url(#clip0)">
<path d="M8.97771 3.68969C8.61912 3.54595 8.51553 3.45903 8.51553 3.30206C8.51553 3.17644 8.61067 3.02969 8.87891 3.02969C9.11618 3.02969 9.29814 3.12324 9.29976 3.12405C9.31891 3.13426 9.34038 3.13971 9.36166 3.13971C9.41358 3.13971 9.45951 3.10829 9.47855 3.05965L9.54372 2.89304C9.56642 2.83233 9.53199 2.77943 9.48809 2.76046C9.34201 2.69687 9.05651 2.64766 9.05361 2.64716C9.04901 2.64634 9.03301 2.64293 9.03301 2.62422L9.03209 2.38253C9.03209 2.30974 8.97132 2.25049 8.8967 2.25049H8.77978C8.70524 2.25049 8.64449 2.30971 8.64449 2.38256L8.6448 2.63667C8.6448 2.65615 8.62369 2.66461 8.61598 2.6664C8.2556 2.75224 8.03038 3.01622 8.03038 3.3492C8.03038 3.76431 8.37351 3.95188 8.744 4.09269C9.04018 4.20897 9.16099 4.32687 9.16099 4.4998C9.16099 4.68799 8.98988 4.81942 8.74474 4.81942C8.53541 4.81942 8.25212 4.68674 8.24931 4.68539C8.23118 4.6768 8.21197 4.67247 8.19222 4.67247C8.13831 4.67247 8.09136 4.70507 8.07259 4.75557L8.01036 4.92407C7.98824 4.98698 8.0223 5.03805 8.06589 5.06078C8.23988 5.15139 8.57654 5.20449 8.59153 5.20682C8.59555 5.2074 8.61605 5.2146 8.61605 5.23334V5.48633C8.61605 5.55912 8.67683 5.61837 8.75147 5.61837H8.87229C8.94696 5.61837 9.00774 5.55915 9.00774 5.48633V5.22008C9.00774 5.19519 9.02611 5.19299 9.0299 5.19208C9.41381 5.10583 9.6503 4.82494 9.6503 4.47224C9.6502 4.10997 9.44902 3.87589 8.97771 3.68969Z" fill="black"/>
<path d="M8.82695 0.76123C7.07441 0.76123 5.65381 2.18193 5.65381 3.93437C5.65381 5.68683 7.07441 7.10757 8.82695 7.10757C10.5794 7.10757 12 5.68683 12 3.93437C12 2.18193 10.5794 0.76123 8.82695 0.76123ZM8.82695 6.37217C7.48055 6.37217 6.38917 5.28069 6.38917 3.9344C6.38917 2.58811 7.48055 1.49666 8.82695 1.49666C10.1733 1.49666 11.2646 2.58811 11.2646 3.9344C11.2646 5.28069 10.1733 6.37217 8.82695 6.37217Z" fill="black"/>
<path d="M11.3555 8.6455C10.6808 9.01792 9.75271 9.36226 8.8272 9.50743C8.00376 9.63656 6.45463 9.32512 6.45463 8.95731C6.45463 8.81793 7.81327 9.30074 8.63512 9.08147C9.26533 8.91334 9.17587 8.32382 8.83308 8.24606C8.49229 8.16871 6.49569 7.43727 5.64287 7.41204C5.24113 7.40016 4.24929 7.55175 3.76935 7.62992C3.60494 7.65667 3.50185 7.65373 3.49157 7.81107C3.44381 8.54231 3.34968 10.0377 3.29838 10.8187C3.29729 10.8353 3.32022 11.0572 3.50337 10.901C3.70384 10.7301 3.985 10.5406 4.24506 10.5996C4.65306 10.6922 8.18278 11.3388 8.66965 11.2256C9.36616 11.0637 11.3378 9.89527 11.7159 9.53208C12.3018 8.96904 11.8463 8.37462 11.3555 8.6455Z" fill="black"/>
<path d="M2.51727 7.60145L0.668135 7.51034C0.525372 7.5033 0.379564 7.61089 0.344084 7.74932L0.00785745 10.802C-0.0275883 10.9404 0.0602819 11.0583 0.203113 11.0638L2.2524 11.0636C2.39527 11.0691 2.52102 10.957 2.53198 10.8145L2.75703 7.87335C2.76792 7.73086 2.66003 7.60849 2.51727 7.60145ZM1.42866 10.6592C1.14628 10.6592 0.917406 10.4302 0.917406 10.1479C0.917406 9.86551 1.14631 9.63664 1.42866 9.63664C1.71101 9.63664 1.93992 9.86555 1.93992 10.1479C1.93992 10.4303 1.71104 10.6592 1.42866 10.6592Z" fill="black"/>
</g>
<defs>
<clipPath id="clip0">
<rect width="12" height="12" fill="white"/>
</clipPath>
</defs>
</svg>
