<svg width="11" height="11" viewBox="0 0 11 11" fill="none" xmlns="http://www.w3.org/2000/svg">
<g clip-path="url(#clip0)">
<path d="M0.74585 8.18963V9.97271C0.74585 10.0812 0.833987 10.1716 0.944723 10.1716H2.32328C2.43175 10.1716 2.52215 10.0834 2.52215 9.97271V6.83594L1.521 7.83708C1.30857 8.04725 1.03738 8.16929 0.74585 8.18963Z" fill="black"/>
<path d="M3.20898 6.81323V9.9726C3.20898 10.0811 3.29712 10.1715 3.40786 10.1715H4.78641C4.89489 10.1715 4.98528 10.0833 4.98528 9.9726V8.11269C4.67115 8.10591 4.37736 7.98161 4.15589 7.76014L3.20898 6.81323Z" fill="black"/>
<path d="M5.67236 7.9161V9.97263C5.67236 10.0811 5.7605 10.1715 5.87124 10.1715H7.24979C7.35827 10.1715 7.44867 10.0834 7.44867 9.97263V6.17822L5.86898 7.75791C5.80796 7.81893 5.74242 7.87091 5.67236 7.9161Z" fill="black"/>
<path d="M9.7787 3.8457L8.13574 5.48867V9.97236C8.13574 10.0808 8.22388 10.1712 8.33461 10.1712H9.71316C9.82164 10.1712 9.91203 10.0831 9.91203 9.97236V3.97C9.86684 3.93158 9.83294 3.89768 9.80808 3.87508L9.7787 3.8457Z" fill="black"/>
<path d="M10.9064 0.935074C10.8408 0.865016 10.7414 0.828857 10.6149 0.828857C10.6036 0.828857 10.59 0.828857 10.5787 0.828857C9.93688 0.858236 9.29732 0.889875 8.6555 0.919254C8.56963 0.923774 8.45211 0.928294 8.35945 1.02095C8.33007 1.05033 8.30747 1.08423 8.2894 1.12491C8.19448 1.33056 8.32781 1.4639 8.39109 1.52717L8.55155 1.68989C8.66228 1.80289 8.77528 1.91588 8.88827 2.02662L5.01025 5.90691L3.26785 4.16451C3.16389 4.06055 3.02378 4.00179 2.87462 4.00179C2.72547 4.00179 2.58761 4.06055 2.48365 4.16451L0.162714 6.48319C-0.0542381 6.70014 -0.0542381 7.05043 0.162714 7.26739L0.266671 7.37134C0.370627 7.4753 0.510742 7.53406 0.659897 7.53406C0.809052 7.53406 0.946908 7.4753 1.05086 7.37134L2.87462 5.54758L4.61702 7.28998C4.72098 7.39394 4.86109 7.4527 5.01025 7.4527C5.1594 7.4527 5.29726 7.39394 5.40347 7.28998L9.77868 2.91477L10.2736 3.40743C10.3324 3.46619 10.4137 3.54755 10.538 3.54755C10.59 3.54755 10.642 3.53399 10.6962 3.50461C10.7324 3.48427 10.764 3.46167 10.7911 3.43455C10.8883 3.33737 10.9064 3.21308 10.9109 3.1159C10.929 2.70008 10.9493 2.28425 10.9697 1.86616L10.999 1.24016C11.0058 1.10909 10.9764 1.00739 10.9064 0.935074Z" fill="black"/>
</g>
<defs>
<clipPath id="clip0">
<rect width="11" height="11" fill="white"/>
</clipPath>
</defs>
</svg>
