<svg width="25" height="23" viewBox="0 0 25 23" fill="none" xmlns="http://www.w3.org/2000/svg">
<path d="M1.69482 17.6122V21.6647C1.69482 21.9112 1.89514 22.1167 2.14681 22.1167H5.27988C5.52642 22.1167 5.73187 21.9163 5.73187 21.6647V14.5356L3.45654 16.811C2.97374 17.2886 2.35739 17.566 1.69482 17.6122Z" fill="url(#paint0_linear)"/>
<path d="M7.29346 14.4841V21.6645C7.29346 21.9111 7.49377 22.1165 7.74544 22.1165H10.8785C11.125 22.1165 11.3305 21.9162 11.3305 21.6645V17.4374C10.6166 17.422 9.94886 17.1395 9.44552 16.6362L7.29346 14.4841Z" fill="url(#paint1_linear)"/>
<path d="M12.8916 16.9907V21.6647C12.8916 21.9112 13.0919 22.1167 13.3436 22.1167H16.4767C16.7232 22.1167 16.9286 21.9164 16.9286 21.6647V13.041L13.3385 16.6312C13.1998 16.7699 13.0508 16.888 12.8916 16.9907Z" fill="url(#paint2_linear)"/>
<path d="M22.2242 7.74023L18.4902 11.4742V21.6644C18.4902 21.911 18.6905 22.1164 18.9422 22.1164H22.0753C22.3218 22.1164 22.5273 21.9161 22.5273 21.6644V8.02272C22.4245 7.93541 22.3475 7.85837 22.291 7.807L22.2242 7.74023Z" fill="url(#paint3_linear)"/>
<path d="M24.7872 1.12495C24.6383 0.965724 24.4123 0.883545 24.1247 0.883545C24.099 0.883545 24.0682 0.883545 24.0425 0.883545C22.5838 0.950315 21.1303 1.02222 19.6716 1.08899C19.4764 1.09927 19.2093 1.10954 18.9988 1.32012C18.932 1.38689 18.8806 1.46393 18.8395 1.55639C18.6238 2.02378 18.9269 2.32682 19.0707 2.47063L19.4353 2.84043C19.687 3.09724 19.9438 3.35405 20.2006 3.60573L11.3869 12.4246L7.42693 8.46457C7.19066 8.2283 6.87222 8.09476 6.53323 8.09476C6.19424 8.09476 5.88094 8.2283 5.64467 8.46457L0.369806 13.7343C-0.123269 14.2274 -0.123269 15.0235 0.369806 15.5166L0.60607 15.7528C0.842335 15.9891 1.16078 16.1226 1.49977 16.1226C1.83876 16.1226 2.15206 15.9891 2.38833 15.7528L6.53323 11.6079L10.4932 15.5679C10.7295 15.8042 11.0479 15.9377 11.3869 15.9377C11.7259 15.9377 12.0392 15.8042 12.2806 15.5679L22.2243 5.62425L23.3491 6.74394C23.4827 6.87748 23.6676 7.06239 23.95 7.06239C24.0682 7.06239 24.1863 7.03157 24.3096 6.9648C24.3918 6.91857 24.4637 6.86721 24.5253 6.80558C24.7462 6.58472 24.7872 6.30223 24.7975 6.08137C24.8386 5.13631 24.8848 4.19125 24.9311 3.24106L24.9978 1.81833C25.0132 1.52043 24.9465 1.2893 24.7872 1.12495Z" fill="url(#paint4_linear)"/>
<defs>
<linearGradient id="paint0_linear" x1="2.9564" y1="22.1167" x2="5.25527" y2="22.1167" gradientUnits="userSpaceOnUse">
<stop stop-color="#E6B712"/>
<stop offset="1" stop-color="#CAAA3B"/>
</linearGradient>
<linearGradient id="paint1_linear" x1="8.55503" y1="22.1165" x2="10.8539" y2="22.1165" gradientUnits="userSpaceOnUse">
<stop stop-color="#E6B712"/>
<stop offset="1" stop-color="#CAAA3B"/>
</linearGradient>
<linearGradient id="paint2_linear" x1="14.1532" y1="22.1167" x2="16.4521" y2="22.1167" gradientUnits="userSpaceOnUse">
<stop stop-color="#E6B712"/>
<stop offset="1" stop-color="#CAAA3B"/>
</linearGradient>
<linearGradient id="paint3_linear" x1="19.7518" y1="22.1164" x2="22.0507" y2="22.1164" gradientUnits="userSpaceOnUse">
<stop stop-color="#E6B712"/>
<stop offset="1" stop-color="#CAAA3B"/>
</linearGradient>
<linearGradient id="paint4_linear" x1="7.8125" y1="16.1226" x2="22.0486" y2="16.1226" gradientUnits="userSpaceOnUse">
<stop stop-color="#E6B712"/>
<stop offset="1" stop-color="#CAAA3B"/>
</linearGradient>
</defs>
</svg>
