<svg width="10" height="10" viewBox="0 0 10 10" fill="none" xmlns="http://www.w3.org/2000/svg">
<g clip-path="url(#clip0)">
<path d="M5.39599 2.48154C6.47526 2.6485 7.33538 3.52024 7.48786 4.60156C7.50234 4.7045 7.59061 4.78116 7.69459 4.78116H9.79097C9.84949 4.78116 9.90534 4.7567 9.9449 4.71348C9.98445 4.67047 10.004 4.61277 9.99891 4.55447C9.78911 2.12599 7.87439 0.211269 5.44593 0.00168022C5.38986 -0.00403459 5.32972 0.0163587 5.28692 0.0556969C5.2437 0.0952505 5.21924 0.151107 5.21924 0.209625V2.27522C5.21922 2.37816 5.29426 2.46582 5.39599 2.48154Z" fill="black"/>
<path d="M9.79055 5.19849H7.68318C7.58125 5.19849 7.4942 5.27207 7.47727 5.37259C7.27339 6.58131 6.23592 7.45856 5.01027 7.45856C4.48613 7.45856 3.98237 7.29608 3.55384 6.98865C3.47005 6.92892 3.3565 6.93829 3.28453 7.01067L1.77672 8.51848C1.73533 8.55987 1.71331 8.61675 1.71576 8.67505C1.71821 8.73357 1.74531 8.78819 1.78997 8.8259C2.69127 9.58308 3.83498 9.99999 5.01027 9.99999C7.58614 9.99999 9.7773 7.99047 9.9985 5.4252C10.0036 5.3669 9.98382 5.3092 9.94448 5.26618C9.90491 5.22295 9.84905 5.19849 9.79055 5.19849Z" fill="black"/>
<path d="M3.24295 2.92724C3.28332 2.96781 3.33693 2.9884 3.39055 2.9884C3.43439 2.9884 3.47821 2.97474 3.51551 2.94701C3.84069 2.70421 4.22415 2.54316 4.62456 2.48137C4.72649 2.46567 4.80152 2.37801 4.80152 2.27505V0.209477C4.80152 0.150959 4.77706 0.0951022 4.73385 0.0555487C4.69102 0.0159951 4.6309 -0.00621826 4.57483 0.00153196C3.54466 0.0902094 2.58159 0.488778 1.78997 1.15359C1.74533 1.19111 1.71821 1.24595 1.71576 1.30445C1.71331 1.36275 1.73533 1.41963 1.77672 1.46102L3.24295 2.92724Z" fill="black"/>
<path d="M3.00402 6.44852C2.67783 6.01143 2.50537 5.49442 2.50537 4.95357C2.50537 4.42943 2.66785 3.92566 2.97527 3.49713C3.03481 3.41395 3.02563 3.29999 2.95326 3.22783L1.48175 1.75631C1.44036 1.71491 1.37839 1.69229 1.32518 1.69534C1.26666 1.69779 1.21204 1.72489 1.17432 1.76956C0.417151 2.67085 0.000244141 3.81456 0.000244141 4.98985C0.000244141 6.16515 0.417151 7.30885 1.17432 8.21015C1.21204 8.25479 1.26668 8.28192 1.32518 8.28436C1.32804 8.28456 1.33109 8.28456 1.33414 8.28456C1.38939 8.28456 1.44261 8.26274 1.48175 8.2234L2.98426 6.72089C3.05763 6.6475 3.06599 6.5315 3.00402 6.44852Z" fill="black"/>
</g>
<defs>
<clipPath id="clip0">
<rect width="10" height="10" fill="white"/>
</clipPath>
</defs>
</svg>
