<svg width="11" height="11" viewBox="0 0 11 11" fill="none" xmlns="http://www.w3.org/2000/svg">
<path d="M10.8532 1.74027C10.8532 0.985573 10.4044 0.331413 9.7455 0.000346667V2.19544H7.79593V0C7.13667 0.331067 6.6875 0.985227 6.6875 1.73992C6.6875 2.53587 7.18837 3.21984 7.90667 3.53045L7.4894 9.1884C7.4894 9.85747 8.0625 10.3997 8.77053 10.3997C9.47857 10.3997 10.0524 9.85747 10.0524 9.1884C10.0524 9.18493 10.0513 9.18216 10.0513 9.17835L9.6344 3.53045C10.3531 3.22019 10.8532 2.53587 10.8532 1.74027ZM8.77053 9.86301C8.37233 9.86301 8.0493 9.55829 8.0493 9.18181C8.0493 8.80533 8.37233 8.49992 8.77053 8.49992C9.16837 8.49992 9.4914 8.80533 9.4914 9.18181C9.4914 9.55829 9.16837 9.86301 8.77053 9.86301Z" fill="black"/>
<path d="M4.61757 0.377205C4.4742 0.377205 4.26594 0.377205 3.96344 0.377205V0.0742188H2.68157V0.417419C0.276969 0.721099 0.158169 2.77545 0.158169 2.77545C0.0892354 3.15366 0.331602 3.44486 0.719169 3.09091C0.906169 2.58617 1.73374 1.90427 2.64197 1.90427C2.65517 1.90427 2.66874 1.90427 2.68194 1.90427V5.07246H2.6548C2.30134 5.07246 2.01387 5.34355 2.01387 5.67878V9.66787C2.01387 10.0024 2.30134 10.2738 2.6548 10.2738H3.98984C4.34404 10.2738 4.63077 10.0024 4.63077 9.66787V5.67878C4.63077 5.34355 4.3444 5.07246 3.98984 5.07246H3.96344V1.89942C4.2157 1.89803 4.44524 1.8963 4.61757 1.89457V2.1823H6.15317V0.0742188H4.61757V0.377205Z" fill="black"/>
</svg>
