<svg width="25" height="25" viewBox="0 0 25 25" fill="none" xmlns="http://www.w3.org/2000/svg">
<path d="M24.6667 4.14987C24.6667 2.35021 23.6467 0.790293 22.1492 0.000826667V5.23528H17.7184V0C16.2201 0.789467 15.1992 2.34939 15.1992 4.14904C15.1992 6.04707 16.3376 7.67808 17.9701 8.41877L17.0217 21.9108C17.0217 23.5063 18.3242 24.7992 19.9334 24.7992C21.5426 24.7992 22.8467 23.5063 22.8467 21.9108C22.8467 21.9025 22.8442 21.8959 22.8442 21.8868L21.8967 8.41877C23.5301 7.67891 24.6667 6.04707 24.6667 4.14987ZM19.9334 23.5195C19.0284 23.5195 18.2942 22.7929 18.2942 21.8951C18.2942 20.9973 19.0284 20.269 19.9334 20.269C20.8376 20.269 21.5717 20.9973 21.5717 21.8951C21.5717 22.7929 20.8376 23.5195 19.9334 23.5195Z" fill="url(#paint0_linear)"/>
<path d="M10.4951 0.899265C10.1692 0.899265 9.69589 0.899265 9.00839 0.899265V0.176758H6.09505V0.995158C0.630051 1.71932 0.360051 6.61814 0.360051 6.61814C0.203385 7.52004 0.754218 8.21444 1.63505 7.37041C2.06005 6.16679 3.94088 4.54073 6.00505 4.54073C6.03505 4.54073 6.06588 4.54073 6.09588 4.54073V12.0956H6.03422C5.23089 12.0956 4.57755 12.7421 4.57755 13.5415V23.0539C4.57755 23.8517 5.23089 24.4989 6.03422 24.4989H9.06839C9.87338 24.4989 10.5251 23.8517 10.5251 23.0539V13.5415C10.5251 12.7421 9.87422 12.0956 9.06839 12.0956H9.00839V4.52916C9.58172 4.52585 10.1034 4.52172 10.4951 4.51758V5.20372H13.9851V0.176758H10.4951V0.899265Z" fill="url(#paint1_linear)"/>
<defs>
<linearGradient id="paint0_linear" x1="18.1578" y1="24.7992" x2="23.549" y2="24.7992" gradientUnits="userSpaceOnUse">
<stop stop-color="#E6B712"/>
<stop offset="1" stop-color="#CAAA3B"/>
</linearGradient>
<linearGradient id="paint1_linear" x1="4.59961" y1="24.4989" x2="12.3734" y2="24.4989" gradientUnits="userSpaceOnUse">
<stop stop-color="#E6B712"/>
<stop offset="1" stop-color="#CAAA3B"/>
</linearGradient>
</defs>
</svg>
