<svg width="21" height="21" viewBox="0 0 21 21" fill="none" xmlns="http://www.w3.org/2000/svg">
<g clip-path="url(#clip0)">
<path d="M11.0765 11.2756C11.7146 10.9715 11.9229 10.0771 11.5436 9.28262C11.1636 8.48544 10.3378 8.0842 9.6997 8.38829C9.06156 8.69239 8.85329 9.58671 9.23324 10.3839C9.6132 11.1797 10.439 11.581 11.0765 11.2756Z" fill="url(#paint0_linear)"/>
<path d="M12.989 6.51855C13.6025 10.3587 10.8697 13.2373 10.8697 13.2373C10.8697 13.2373 8.61654 9.42511 4.82764 8.2746C12.1978 13.6638 8.00302 20.3826 8.00302 20.3826H10.1364C10.137 20.3826 15.0957 11.8246 12.989 6.51855Z" fill="url(#paint1_linear)"/>
<path d="M8.82942 6.95705C8.78816 6.89583 8.74624 6.83062 8.70432 6.75875C8.50935 6.42205 8.42018 6.1093 8.42018 6.1093C8.42018 6.1093 8.64509 6.34486 8.84006 6.67957C8.88065 6.75077 8.91592 6.82064 8.94853 6.88718C8.97914 6.72681 9.01507 6.39743 8.85936 6.12594C8.64443 5.75397 8.14936 5.63818 8.14936 5.63818C8.14936 5.63818 8.00163 6.12527 8.21656 6.49791C8.37227 6.7694 8.6757 6.90315 8.82942 6.95705Z" fill="url(#paint2_linear)"/>
<path d="M13.7222 9.78175C13.8459 9.88822 14.1134 10.0839 14.4255 10.0839C14.8554 10.0839 15.2027 9.71188 15.2027 9.71188C15.2027 9.71188 14.856 9.34058 14.4255 9.34058C14.1134 9.34058 13.8459 9.53621 13.7222 9.64268C13.796 9.63735 13.8732 9.63336 13.9564 9.63336C14.345 9.63336 14.6624 9.71055 14.6624 9.71055C14.6624 9.71055 14.345 9.78907 13.9564 9.7884C13.8726 9.79173 13.796 9.78707 13.7222 9.78175Z" fill="url(#paint3_linear)"/>
<path d="M12.1612 6.68103C12.3548 6.34433 12.581 6.10943 12.581 6.10943C12.581 6.10943 12.4912 6.42351 12.2962 6.76022C12.255 6.83075 12.2131 6.89729 12.1705 6.95851C12.3262 6.90461 12.629 6.7702 12.784 6.5007C12.9996 6.1274 12.8532 5.63965 12.8532 5.63965C12.8532 5.63965 12.3568 5.75743 12.1425 6.12807C11.9868 6.39823 12.0214 6.72694 12.0527 6.88931C12.0833 6.8221 12.1192 6.75223 12.1612 6.68103Z" fill="url(#paint4_linear)"/>
<path d="M10.3267 4.65395C10.3267 3.78824 10.5004 3.08755 10.5004 3.08755C10.5004 3.08755 10.6748 3.78957 10.6748 4.65395C10.6748 4.83694 10.6661 5.00995 10.6528 5.17365C10.891 4.89883 11.3255 4.30328 11.3255 3.60858C11.3255 2.65303 10.5004 1.87915 10.5004 1.87915C10.5004 1.87915 9.67529 2.65303 9.67529 3.60858C9.67529 4.30328 10.1098 4.89816 10.3474 5.17365C10.3354 5.00995 10.3267 4.83761 10.3267 4.65395Z" fill="url(#paint5_linear)"/>
<path d="M4.80248 7.37553C5.40468 7.72288 6.13664 7.6437 6.49397 7.57516C6.34625 7.50595 6.19121 7.42477 6.0335 7.33428C5.28424 6.90242 4.76388 6.40136 4.76388 6.40136C4.76388 6.40136 5.45791 6.60098 6.20718 7.03351C6.36555 7.12533 6.51128 7.21849 6.64702 7.31232C6.52858 6.96763 6.23113 6.29422 5.62826 5.94687C4.80181 5.46844 3.71851 5.79582 3.71851 5.79582C3.71851 5.79582 3.97536 6.89843 4.80248 7.37553Z" fill="url(#paint6_linear)"/>
<path d="M16.1977 12.049C15.5962 11.7023 14.8642 11.7802 14.5069 11.8487C14.6553 11.9186 14.8096 11.9997 14.968 12.0902C15.7166 12.5228 16.2376 13.0232 16.2376 13.0232C16.2376 13.0232 15.5436 12.8242 14.7937 12.3917C14.6353 12.2992 14.4896 12.206 14.3545 12.1122C14.4729 12.4569 14.7704 13.1296 15.3719 13.477C16.1984 13.9554 17.2823 13.628 17.2823 13.628C17.2823 13.628 17.0242 12.5261 16.1977 12.049Z" fill="url(#paint7_linear)"/>
<path d="M6.64549 12.1142C6.50974 12.2067 6.36468 12.2998 6.20631 12.3923C5.45705 12.8235 4.76235 13.0251 4.76235 13.0251C4.76235 13.0251 5.28271 12.5234 6.03197 12.0909C6.19101 11.9984 6.34538 11.9205 6.49311 11.8493C6.13644 11.7801 5.40315 11.701 4.80161 12.0496C3.97449 12.5267 3.71631 13.6287 3.71631 13.6287C3.71631 13.6287 4.79961 13.9561 5.62673 13.479C6.2296 13.1303 6.52704 12.4575 6.64549 12.1142Z" fill="url(#paint8_linear)"/>
<path d="M14.355 7.30973C14.4901 7.21723 14.6358 7.12408 14.7955 7.03225C15.5441 6.59972 16.2381 6.4001 16.2381 6.4001C16.2381 6.4001 15.7184 6.90116 14.9685 7.33302C14.8101 7.42485 14.6551 7.5047 14.5087 7.5739C14.8647 7.6431 15.598 7.72295 16.1982 7.37427C17.026 6.8965 17.2835 5.79457 17.2835 5.79457C17.2835 5.79457 16.2009 5.46784 15.3744 5.94562C14.7709 6.29297 14.4728 6.96637 14.355 7.30973Z" fill="url(#paint9_linear)"/>
<path d="M7.28025 4.54561C7.15648 4.36395 7.03072 4.16832 6.90761 3.95538C6.32737 2.95193 6.0592 2.02034 6.0592 2.02034C6.0592 2.02034 6.73128 2.7177 7.31086 3.72381C7.43396 3.93542 7.53976 4.14236 7.63425 4.34133C7.72741 3.86289 7.83321 2.88139 7.36742 2.0749C6.72728 0.965647 5.25005 0.619629 5.25005 0.619629C5.25005 0.619629 4.81154 2.07158 5.45167 3.18017C5.91747 3.98732 6.82111 4.38591 7.28025 4.54561Z" fill="url(#paint10_linear)"/>
<path d="M13.7208 14.8796C13.8445 15.0613 13.9716 15.2563 14.0941 15.4685C14.675 16.476 14.9425 17.4049 14.9425 17.4049C14.9425 17.4049 14.2704 16.7069 13.6895 15.7021C13.5671 15.4892 13.4606 15.2822 13.3661 15.0846C13.2749 15.563 13.1685 16.5425 13.6336 17.3497C14.2744 18.4583 15.751 18.8056 15.751 18.8056C15.751 18.8056 16.1915 17.3523 15.5507 16.2437C15.0836 15.4373 14.1806 15.0387 13.7208 14.8796Z" fill="url(#paint11_linear)"/>
<path d="M3.71837 9.94622C2.55854 9.94622 1.6183 9.712 1.6183 9.712C1.6183 9.712 2.55854 9.47777 3.71837 9.47777C3.96457 9.47777 4.19681 9.49108 4.41573 9.50705C4.04775 9.18764 3.25058 8.60474 2.31766 8.60474C1.03806 8.6054 0 9.712 0 9.712C0 9.712 1.03872 10.8193 2.31766 10.8186C3.24991 10.8186 4.04709 10.2363 4.41506 9.91761C4.19614 9.93425 3.96324 9.94622 3.71837 9.94622Z" fill="url(#paint12_linear)"/>
<path d="M18.6831 8.60742C17.7515 8.60742 16.9543 9.18767 16.5857 9.5084C16.8053 9.49177 17.0382 9.47912 17.2824 9.47979C18.4429 9.47979 19.3825 9.71335 19.3825 9.71335C19.3825 9.71335 18.4429 9.94758 17.2837 9.94758C17.0382 9.94758 16.8053 9.93494 16.5857 9.91897C16.9537 10.2377 17.7515 10.8199 18.6831 10.8199C19.9634 10.8199 21.0001 9.71468 21.0001 9.71468C21.0001 9.71468 19.962 8.60609 18.6831 8.60742Z" fill="url(#paint13_linear)"/>
<path d="M7.31149 15.7027C6.73125 16.7075 6.05917 17.4055 6.05917 17.4055C6.05917 17.4055 6.32667 16.4739 6.90692 15.4691C7.03069 15.2575 7.15645 15.0626 7.28088 14.8789C6.82041 15.0386 5.91677 15.4379 5.45098 16.245C4.81018 17.3536 5.24936 18.8069 5.24936 18.8069C5.24936 18.8069 6.72725 18.4609 7.36739 17.3523C7.83385 16.5451 7.72805 15.563 7.63555 15.0859C7.53907 15.2828 7.43327 15.4878 7.31149 15.7027Z" fill="url(#paint14_linear)"/>
<path d="M13.6897 3.72179C14.2693 2.71701 14.9414 2.01965 14.9414 2.01965C14.9414 2.01965 14.6739 2.95057 14.093 3.95469C13.9706 4.16563 13.8448 4.36259 13.721 4.54425C14.1808 4.38522 15.0845 3.98597 15.5496 3.17948C16.1904 2.07089 15.7512 0.616943 15.7512 0.616943C15.7512 0.616943 14.2747 0.963627 13.6339 2.07222C13.1661 2.87937 13.2725 3.86087 13.365 4.33864C13.4608 4.14234 13.566 3.93539 13.6897 3.72179Z" fill="url(#paint15_linear)"/>
</g>
<defs>
<linearGradient id="paint0_linear" x1="9.88391" y1="11.378" x2="11.4154" y2="11.378" gradientUnits="userSpaceOnUse">
<stop stop-color="#E6B712"/>
<stop offset="1" stop-color="#CAAA3B"/>
</linearGradient>
<linearGradient id="paint1_linear" x1="7.54098" y1="20.3826" x2="12.4853" y2="20.3826" gradientUnits="userSpaceOnUse">
<stop stop-color="#E6B712"/>
<stop offset="1" stop-color="#CAAA3B"/>
</linearGradient>
<linearGradient id="paint2_linear" x1="8.37344" y1="6.95705" x2="8.87197" y2="6.95705" gradientUnits="userSpaceOnUse">
<stop stop-color="#E6B712"/>
<stop offset="1" stop-color="#CAAA3B"/>
</linearGradient>
<linearGradient id="paint3_linear" x1="14.1848" y1="10.0839" x2="15.0279" y2="10.0839" gradientUnits="userSpaceOnUse">
<stop stop-color="#E6B712"/>
<stop offset="1" stop-color="#CAAA3B"/>
</linearGradient>
<linearGradient id="paint4_linear" x1="12.2996" y1="6.95851" x2="12.7984" y2="6.95851" gradientUnits="userSpaceOnUse">
<stop stop-color="#E6B712"/>
<stop offset="1" stop-color="#CAAA3B"/>
</linearGradient>
<linearGradient id="paint5_linear" x1="10.191" y1="5.17365" x2="11.1307" y2="5.17365" gradientUnits="userSpaceOnUse">
<stop stop-color="#E6B712"/>
<stop offset="1" stop-color="#CAAA3B"/>
</linearGradient>
<linearGradient id="paint6_linear" x1="4.63367" y1="7.63476" x2="6.30129" y2="7.63476" gradientUnits="userSpaceOnUse">
<stop stop-color="#E6B712"/>
<stop offset="1" stop-color="#CAAA3B"/>
</linearGradient>
<linearGradient id="paint7_linear" x1="15.2694" y1="13.7373" x2="16.9367" y2="13.7373" gradientUnits="userSpaceOnUse">
<stop stop-color="#E6B712"/>
<stop offset="1" stop-color="#CAAA3B"/>
</linearGradient>
<linearGradient id="paint8_linear" x1="4.63168" y1="13.7382" x2="6.29968" y2="13.7382" gradientUnits="userSpaceOnUse">
<stop stop-color="#E6B712"/>
<stop offset="1" stop-color="#CAAA3B"/>
</linearGradient>
<linearGradient id="paint9_linear" x1="15.2701" y1="7.63419" x2="16.9378" y2="7.63419" gradientUnits="userSpaceOnUse">
<stop stop-color="#E6B712"/>
<stop offset="1" stop-color="#CAAA3B"/>
</linearGradient>
<linearGradient id="paint10_linear" x1="5.91962" y1="4.54561" x2="7.40673" y2="4.54561" gradientUnits="userSpaceOnUse">
<stop stop-color="#E6B712"/>
<stop offset="1" stop-color="#CAAA3B"/>
</linearGradient>
<linearGradient id="paint11_linear" x1="14.1029" y1="18.8056" x2="15.5902" y2="18.8056" gradientUnits="userSpaceOnUse">
<stop stop-color="#E6B712"/>
<stop offset="1" stop-color="#CAAA3B"/>
</linearGradient>
<linearGradient id="paint12_linear" x1="1.37992" y1="10.8186" x2="3.89443" y2="10.8186" gradientUnits="userSpaceOnUse">
<stop stop-color="#E6B712"/>
<stop offset="1" stop-color="#CAAA3B"/>
</linearGradient>
<linearGradient id="paint13_linear" x1="17.9652" y1="10.8199" x2="20.4789" y2="10.8199" gradientUnits="userSpaceOnUse">
<stop stop-color="#E6B712"/>
<stop offset="1" stop-color="#CAAA3B"/>
</linearGradient>
<linearGradient id="paint14_linear" x1="5.91917" y1="18.8069" x2="7.40725" y2="18.8069" gradientUnits="userSpaceOnUse">
<stop stop-color="#E6B712"/>
<stop offset="1" stop-color="#CAAA3B"/>
</linearGradient>
<linearGradient id="paint15_linear" x1="14.1013" y1="4.54425" x2="15.5895" y2="4.54425" gradientUnits="userSpaceOnUse">
<stop stop-color="#E6B712"/>
<stop offset="1" stop-color="#CAAA3B"/>
</linearGradient>
<clipPath id="clip0">
<rect width="21" height="21" fill="white"/>
</clipPath>
</defs>
</svg>
