<svg width="10" height="10" viewBox="0 0 10 10" fill="none" xmlns="http://www.w3.org/2000/svg">
<path d="M5.27449 5.07564C5.57837 4.93084 5.67755 4.50497 5.49693 4.12663C5.316 3.74702 4.92277 3.55595 4.61889 3.70076C4.31502 3.84557 4.21584 4.27144 4.39677 4.65104C4.5777 5.03002 4.97093 5.22109 5.27449 5.07564Z" fill="black"/>
<path d="M6.1852 2.81006C6.47735 4.6387 5.17598 6.00946 5.17598 6.00946C5.17598 6.00946 4.10307 4.19413 2.29883 3.64627C5.80845 6.21257 3.81092 9.41198 3.81092 9.41198H4.82679C4.82711 9.41198 7.1884 5.33675 6.1852 2.81006Z" fill="black"/>
<path d="M4.20434 3.01914C4.1847 2.98999 4.16474 2.95894 4.14477 2.92472C4.05193 2.76438 4.00947 2.61546 4.00947 2.61546C4.00947 2.61546 4.11657 2.72763 4.20941 2.88701C4.22874 2.92091 4.24554 2.95419 4.26106 2.98587C4.27564 2.90951 4.29275 2.75266 4.2186 2.62338C4.11626 2.44625 3.88051 2.39111 3.88051 2.39111C3.88051 2.39111 3.81016 2.62306 3.91251 2.80051C3.98666 2.92979 4.13115 2.99348 4.20434 3.01914Z" fill="black"/>
<path d="M6.53442 4.36414C6.59336 4.41483 6.72074 4.50799 6.86935 4.50799C7.07405 4.50799 7.23945 4.33086 7.23945 4.33086C7.23945 4.33086 7.07437 4.15405 6.86935 4.15405C6.72074 4.15405 6.59336 4.24721 6.53442 4.29791C6.5696 4.29538 6.60635 4.29347 6.64596 4.29347C6.83101 4.29347 6.98216 4.33023 6.98216 4.33023C6.98216 4.33023 6.83101 4.36762 6.64596 4.3673C6.60604 4.36889 6.5696 4.36667 6.53442 4.36414Z" fill="black"/>
<path d="M5.79098 2.8875C5.88319 2.72716 5.99093 2.61531 5.99093 2.61531C5.99093 2.61531 5.94815 2.76487 5.85531 2.92521C5.83566 2.95879 5.8157 2.99048 5.79542 3.01963C5.86957 2.99397 6.01374 2.92996 6.08757 2.80163C6.19024 2.62386 6.12053 2.3916 6.12053 2.3916C6.12053 2.3916 5.88414 2.44769 5.78211 2.62418C5.70796 2.75283 5.72444 2.90936 5.73933 2.98668C5.75391 2.95467 5.77102 2.9214 5.79098 2.8875Z" fill="black"/>
<path d="M4.91739 1.92241C4.91739 1.51017 5.00009 1.1765 5.00009 1.1765C5.00009 1.1765 5.08311 1.5108 5.08311 1.92241C5.08311 2.00955 5.07899 2.09193 5.07266 2.16988C5.18609 2.03902 5.39301 1.75542 5.39301 1.42461C5.39301 0.96959 5.00009 0.601074 5.00009 0.601074C5.00009 0.601074 4.60718 0.96959 4.60718 1.42461C4.60718 1.75542 4.81409 2.0387 4.92721 2.16988C4.92151 2.09193 4.91739 2.00986 4.91739 1.92241Z" fill="black"/>
<path d="M2.28668 3.2186C2.57345 3.384 2.922 3.34629 3.09216 3.31366C3.02181 3.2807 2.94798 3.24204 2.87289 3.19895C2.5161 2.9933 2.26831 2.7547 2.26831 2.7547C2.26831 2.7547 2.5988 2.84976 2.95559 3.05573C3.031 3.09945 3.1004 3.14382 3.16504 3.18849C3.10864 3.02436 2.967 2.70369 2.67992 2.53828C2.28637 2.31046 1.77051 2.46635 1.77051 2.46635C1.77051 2.46635 1.89282 2.9914 2.28668 3.2186Z" fill="black"/>
<path d="M7.71317 5.44361C7.42672 5.27852 7.07817 5.3156 6.90801 5.34823C6.97867 5.3815 7.05219 5.42016 7.1276 5.46326C7.48408 5.66922 7.73218 5.9075 7.73218 5.9075C7.73218 5.9075 7.40169 5.81276 7.04458 5.6068C6.96917 5.56275 6.89977 5.51839 6.83545 5.47371C6.89185 5.63785 7.03349 5.9582 7.31994 6.12361C7.71349 6.35143 8.22966 6.19553 8.22966 6.19553C8.22966 6.19553 8.10672 5.6708 7.71317 5.44361Z" fill="black"/>
<path d="M3.16462 5.47477C3.09998 5.51882 3.03091 5.56318 2.95549 5.60722C2.5987 5.81255 2.26789 5.90856 2.26789 5.90856C2.26789 5.90856 2.51568 5.66965 2.87247 5.46368C2.9482 5.41964 3.02172 5.38256 3.09206 5.34866C2.92222 5.3157 2.57303 5.278 2.28659 5.44404C1.89272 5.67123 1.76978 6.19596 1.76978 6.19596C1.76978 6.19596 2.28563 6.35186 2.6795 6.12467C2.96658 5.95863 3.10822 5.63828 3.16462 5.47477Z" fill="black"/>
<path d="M6.83569 3.18724C6.90002 3.14319 6.96941 3.09883 7.04546 3.0551C7.40193 2.84914 7.73243 2.75408 7.73243 2.75408C7.73243 2.75408 7.48495 2.99268 7.12784 3.19833C7.05243 3.24206 6.9786 3.28008 6.90889 3.31303C7.07841 3.34599 7.4276 3.38401 7.71341 3.21797C8.1076 2.99046 8.23022 2.46573 8.23022 2.46573C8.23022 2.46573 7.71468 2.31015 7.32113 2.53766C7.03373 2.70307 6.89178 3.02373 6.83569 3.18724Z" fill="black"/>
<path d="M3.46672 1.87098C3.40778 1.78447 3.34789 1.69132 3.28927 1.58992C3.01296 1.11208 2.88526 0.668469 2.88526 0.668469C2.88526 0.668469 3.2053 1.00055 3.48129 1.47965C3.53991 1.58041 3.59029 1.67896 3.63529 1.7737C3.67965 1.54587 3.73003 1.0785 3.50822 0.694453C3.2034 0.166236 2.49995 0.00146484 2.49995 0.00146484C2.49995 0.00146484 2.29114 0.692868 2.59597 1.22077C2.81777 1.60513 3.24808 1.79493 3.46672 1.87098Z" fill="black"/>
<path d="M6.53364 6.79175C6.59258 6.87825 6.6531 6.97109 6.71141 7.07218C6.98803 7.55191 7.11541 7.99426 7.11541 7.99426C7.11541 7.99426 6.79538 7.66186 6.51875 7.1834C6.46045 7.082 6.40975 6.98345 6.36475 6.88934C6.32134 7.11717 6.27064 7.5836 6.49213 7.96796C6.79728 8.49586 7.5004 8.66126 7.5004 8.66126C7.5004 8.66126 7.71017 7.96922 7.40503 7.44132C7.18259 7.05728 6.7526 6.86748 6.53364 6.79175Z" fill="black"/>
<path d="M1.77065 4.44251C1.21835 4.44251 0.77062 4.33098 0.77062 4.33098C0.77062 4.33098 1.21835 4.21944 1.77065 4.21944C1.88789 4.21944 1.99848 4.22578 2.10273 4.23338C1.9275 4.08129 1.54789 3.80371 1.10365 3.80371C0.494312 3.80403 0 4.33098 0 4.33098C0 4.33098 0.494629 4.85824 1.10365 4.85793C1.54758 4.85793 1.92718 4.58067 2.10241 4.42889C1.99816 4.43681 1.88726 4.44251 1.77065 4.44251Z" fill="black"/>
<path d="M8.89671 3.80493C8.4531 3.80493 8.07349 4.08124 7.89795 4.23397C8.00252 4.22605 8.11342 4.22003 8.22971 4.22034C8.78232 4.22034 9.22974 4.33156 9.22974 4.33156C9.22974 4.33156 8.78233 4.4431 8.23034 4.4431C8.11342 4.4431 8.00252 4.43708 7.89795 4.42948C8.07318 4.58126 8.4531 4.85851 8.89671 4.85851C9.50637 4.85851 10 4.3322 10 4.3322C10 4.3322 9.50573 3.8043 8.89671 3.80493Z" fill="black"/>
<path d="M3.48157 7.18354C3.20526 7.66201 2.88523 7.9944 2.88523 7.9944C2.88523 7.9944 3.01261 7.55079 3.28892 7.07232C3.34785 6.97156 3.40774 6.87872 3.46699 6.79126C3.24772 6.86731 2.81742 7.05743 2.59561 7.44179C2.29047 7.96969 2.4996 8.66172 2.4996 8.66172C2.4996 8.66172 3.20336 8.49695 3.50819 7.96905C3.73031 7.58469 3.67993 7.117 3.63588 6.88981C3.58994 6.9836 3.53956 7.08119 3.48157 7.18354Z" fill="black"/>
<path d="M6.51882 1.4785C6.79481 1.00003 7.11485 0.667955 7.11485 0.667955C7.11485 0.667955 6.98747 1.11125 6.71085 1.5894C6.65254 1.68985 6.59265 1.78364 6.53372 1.87015C6.75267 1.79442 7.18298 1.6043 7.40447 1.22025C7.70961 0.692354 7.50048 0 7.50048 0C7.50048 0 6.79735 0.165088 6.49221 0.692988C6.26945 1.07735 6.32015 1.54473 6.36419 1.77224C6.40982 1.67876 6.45989 1.58021 6.51882 1.4785Z" fill="black"/>
</svg>
