<svg width="10" height="10" viewBox="0 0 10 10" fill="none" xmlns="http://www.w3.org/2000/svg">
<g clip-path="url(#clip0)">
<path d="M0.0585938 4.54907H0.910263V5.57111H0.0585938V4.54907Z" fill="black"/>
<path d="M2.10254 6.08228H2.95421V6.76503C2.95421 6.95241 2.80231 7.10431 2.61493 7.10431H2.10254V6.08228Z" fill="black"/>
<path d="M3.3623 4.42465L6.53125 3.01611V7.10425L3.3623 5.69571V4.42465Z" fill="black"/>
<path d="M1.25098 6.08228H2.27301V7.95598H1.25098V6.08228Z" fill="black"/>
<path d="M8.74574 0.120361L7.38306 1.48312V2.67545H8.57538L9.93806 1.31276L8.74574 0.120361ZM8.14958 2.16443C8.00844 2.16443 7.89407 2.05006 7.89407 1.90892C7.89407 1.76785 8.00844 1.65341 8.14958 1.65341C8.29065 1.65341 8.40509 1.76785 8.40509 1.90892C8.40509 2.05006 8.29065 2.16443 8.14958 2.16443Z" fill="black"/>
<path d="M1.22926 3.86792H2.97624C3.2464 3.86792 3.46544 4.08696 3.46544 4.35712V5.76344C3.46544 6.0336 3.2464 6.25264 2.97624 6.25264H1.22926C0.95903 6.25264 0.73999 6.0336 0.73999 5.76344V4.35712C0.73999 4.08696 0.95903 3.86792 1.22926 3.86792Z" fill="black"/>
<path d="M8.25182 6.76855L7.04736 7.97308L8.73369 9.65941L9.93814 8.45496L8.25182 6.76855ZM8.35916 8.50432C8.27539 8.49783 8.20886 8.43123 8.20245 8.34746L8.12067 7.28522L8.46033 7.25912L8.53082 8.17595L9.46649 8.24782L9.44048 8.58748L8.35916 8.50432Z" fill="black"/>
<path d="M9.42723 4.03812C9.42723 4.3204 9.1985 4.54913 8.91621 4.54913C8.634 4.54913 8.40527 4.3204 8.40527 4.03812C8.40527 3.75591 8.634 3.5271 8.91621 3.5271C9.1985 3.5271 9.42723 3.75591 9.42723 4.03812Z" fill="black"/>
<path d="M8.74908 4.71973H9.08348C9.36745 4.7198 9.59755 4.95006 9.59755 5.23395V6.08241H8.23486V5.23395C8.23486 4.94998 8.46512 4.71973 8.74908 4.71973Z" fill="black"/>
<path d="M8.06436 4.20857C8.06436 4.39671 7.91185 4.54923 7.72371 4.54923C7.53557 4.54923 7.38306 4.39671 7.38306 4.20857C7.38306 4.02043 7.53557 3.86792 7.72371 3.86792C7.91185 3.86792 8.06436 4.02043 8.06436 4.20857Z" fill="black"/>
<path d="M7.72391 4.71973C8.00612 4.71973 8.23492 4.94853 8.23492 5.23074V5.74176H7.21289V5.23074C7.21289 4.94853 7.4417 4.71973 7.72391 4.71973Z" fill="black"/>
<path d="M6.48154 0.24086L6.24068 0L5.2001 1.04027C4.67078 0.64415 3.9205 0.752106 3.52438 1.28143C3.12826 1.81076 3.23622 2.56103 3.76555 2.95715C4.29495 3.35335 5.04515 3.24532 5.44135 2.71599C5.75957 2.29073 5.75957 1.7067 5.44135 1.28143L6.48154 0.24086ZM4.48744 2.84584C4.01701 2.84584 3.6357 2.46452 3.6357 1.99417C3.6357 1.52374 4.01701 1.14243 4.48744 1.14243C4.95779 1.14243 5.33911 1.52374 5.33911 1.99417C5.33858 2.46429 4.95757 2.84523 4.48744 2.84584Z" fill="black"/>
<path d="M4.65768 7.10425H3.97638L2.95435 8.12628L4.82805 9.99998L6.19074 8.6373L4.65768 7.10425ZM3.85591 8.34654L4.53729 7.66516L4.77815 7.90602L4.09677 8.5874L3.85591 8.34654ZM4.60779 9.09842L4.36693 8.85756L5.04831 8.17618L5.28917 8.41704L4.60779 9.09842Z" fill="black"/>
</g>
<defs>
<clipPath id="clip0">
<rect width="10" height="10" fill="white"/>
</clipPath>
</defs>
</svg>
