<svg width="11" height="10" viewBox="0 0 11 10" fill="none" xmlns="http://www.w3.org/2000/svg">
<path d="M10.6071 2.50001H8.64286V0.35715C8.64286 0.159898 8.46697 0 8.24999 0H0.392865C0.175888 0 0 0.159898 0 0.35715V8.57142C0 9.36041 0.703551 10 1.57144 10H9.42857C10.2964 10 11 9.36041 11 8.57142V2.85713C11 2.6599 10.8241 2.50001 10.6071 2.50001ZM3.14285 1.78571H5.49999C5.71697 1.78571 5.89285 1.9456 5.89285 2.14286C5.89285 2.34011 5.71697 2.50001 5.49999 2.50001H3.14285C2.92587 2.50001 2.74998 2.34011 2.74998 2.14286C2.74998 1.9456 2.92589 1.78571 3.14285 1.78571ZM6.67856 8.57142H1.96428C1.7473 8.57142 1.57141 8.41152 1.57141 8.21427C1.57141 8.01702 1.7473 7.85712 1.96428 7.85712H6.67856C6.89554 7.85712 7.07142 8.01702 7.07142 8.21427C7.07142 8.41152 6.89554 8.57142 6.67856 8.57142ZM6.67856 7.14285H1.96428C1.7473 7.14285 1.57141 6.98295 1.57141 6.7857C1.57141 6.58844 1.7473 6.42855 1.96428 6.42855H6.67856C6.89554 6.42855 7.07142 6.58844 7.07142 6.7857C7.07142 6.98295 6.89554 7.14285 6.67856 7.14285ZM6.67856 5.71429H1.96428C1.7473 5.71429 1.57141 5.55439 1.57141 5.35714C1.57141 5.15989 1.7473 4.99999 1.96428 4.99999H6.67856C6.89554 4.99999 7.07142 5.15989 7.07142 5.35714C7.07142 5.55439 6.89554 5.71429 6.67856 5.71429ZM6.67856 4.28571H1.96428C1.7473 4.28571 1.57141 4.12581 1.57141 3.92856C1.57141 3.73131 1.7473 3.57141 1.96428 3.57141H6.67856C6.89554 3.57141 7.07142 3.73131 7.07142 3.92856C7.07142 4.12581 6.89554 4.28571 6.67856 4.28571ZM10.2143 8.57142C10.2143 8.96591 9.8625 9.2857 9.42857 9.2857C8.99463 9.2857 8.64286 8.96591 8.64286 8.57142V3.21428H10.2143V8.57142H10.2143Z" fill="black"/>
</svg>
