<svg width="9" height="10" viewBox="0 0 9 10" fill="none" xmlns="http://www.w3.org/2000/svg">
<path d="M2.91798 3.82812C2.6543 3.82812 2.40649 3.88672 2.16919 3.97461C2.28516 4.73045 2.68596 5.37498 3.25024 5.76759C3.37679 5.14648 3.66154 4.59572 4.05705 4.16214C3.71428 3.95699 3.32935 3.82812 2.91798 3.82812Z" fill="black"/>
<path d="M4.50001 6.75783C4.23105 6.75783 3.97266 6.71091 3.72485 6.63477C3.76701 7.34377 4.05705 7.97075 4.50001 8.416C4.94296 7.97075 5.233 7.34377 5.27516 6.63477C5.02735 6.71091 4.76897 6.75783 4.50001 6.75783Z" fill="black"/>
<path d="M3.18693 6.40625C2.18964 5.83679 1.6049 4.70894 1.6049 3.59375C0.660896 4.13277 0 5.21683 0 6.46484C0 8.2402 1.32008 9.6875 2.91797 9.6875C3.50333 9.6875 4.04647 9.49409 4.5 9.16016C3.46777 8.43376 3.04266 6.88721 3.18693 6.40625Z" fill="black"/>
<path d="M6.83073 3.97461C6.59343 3.88672 6.34562 3.82812 6.08195 3.82812C5.67058 3.82812 5.28564 3.95699 4.94287 4.16214C5.33838 4.59572 5.62313 5.14648 5.74975 5.76759C6.31396 5.37498 6.71476 4.73045 6.83073 3.97461Z" fill="black"/>
<path d="M4.50001 6.17192C4.76368 6.17192 5.01149 6.11333 5.24879 6.02544C5.15919 5.42775 4.89023 4.90041 4.50001 4.51367C4.10979 4.90041 3.84083 5.42775 3.75122 6.02544C3.98853 6.11333 4.23634 6.17192 4.50001 6.17192Z" fill="black"/>
<path d="M7.3951 3.59375C7.3951 4.7094 6.80994 5.83702 5.81307 6.40625C5.96805 6.92268 5.499 8.45711 4.5 9.16016C4.95353 9.49409 5.49667 9.6875 6.08203 9.6875C7.67992 9.6875 9 8.2402 9 6.46484C9 5.21683 8.3391 4.13277 7.3951 3.59375Z" fill="black"/>
<path d="M4.5 3.76953C4.95353 3.43552 5.49667 3.24219 6.08203 3.24219C6.48228 3.24219 6.96073 3.35243 7.3951 3.59375C7.40039 3.5762 7.40039 3.55858 7.40039 3.53516C7.40039 1.75972 6.09789 0.3125 4.5 0.3125C2.90211 0.3125 1.59961 1.75972 1.59961 3.53516C1.59961 3.55858 1.59961 3.5762 1.6049 3.59375C2.03741 3.3535 2.51566 3.24219 2.91797 3.24219C3.50333 3.24219 4.04647 3.43552 4.5 3.76953Z" fill="black"/>
</svg>
