<svg width="16" height="12" viewBox="0 0 16 12" fill="none" xmlns="http://www.w3.org/2000/svg">
<path d="M5.15625 0.765625V2.36697H4.21875V0.765625H0V4.42678L0.228813 4.56313C0.740781 4.86819 1.04644 5.40534 1.04644 6C1.04644 6.59466 0.740781 7.13181 0.228813 7.43688L0 7.57322V11.2344H4.21875V9.63303H5.15625V11.2344H16V0.765625H5.15625ZM5.15625 8.39316H4.21875V6.61994H5.15625V8.39316ZM5.15625 5.38006H4.21875V3.60684H5.15625V5.38006ZM8.46187 2.46125C9.24716 2.46125 9.88603 3.10013 9.88603 3.88538C9.88603 4.67066 9.24716 5.30953 8.46187 5.30953C7.67659 5.30953 7.03772 4.67066 7.03772 3.88538C7.03772 3.10013 7.67659 2.46125 8.46187 2.46125ZM7.27394 8.97791L12.1987 2.45706L12.9468 3.02206L8.02203 9.54294L7.27394 8.97791ZM11.7589 9.53875C10.9737 9.53875 10.3348 8.89987 10.3348 8.11462C10.3348 7.32934 10.9737 6.69047 11.7589 6.69047C12.5442 6.69047 13.1831 7.32934 13.1831 8.11462C13.1831 8.89987 12.5442 9.53875 11.7589 9.53875Z" fill="black"/>
</svg>
