<svg width="24" height="24" viewBox="0 0 24 24" fill="none" xmlns="http://www.w3.org/2000/svg">
<path d="M17.6384 14.4419C17.2359 14.4419 16.9084 14.7694 16.9084 15.1719C16.9084 15.5743 17.2359 15.9018 17.6384 15.9018C18.0409 15.9018 18.3684 15.5743 18.3684 15.1719C18.3684 14.7694 18.0409 14.4419 17.6384 14.4419Z" fill="url(#paint0_linear)"/>
<path d="M12.6926 8.09814C12.2901 8.09814 11.9626 8.42561 11.9626 8.82808C11.9626 9.2306 12.2901 9.55807 12.6926 9.55807C13.0951 9.55807 13.4226 9.2306 13.4226 8.82808C13.4226 8.42561 13.0951 8.09814 12.6926 8.09814Z" fill="url(#paint1_linear)"/>
<path d="M7.73438 4.14844V6.55045H6.32812V4.14844H0V9.64017L0.343219 9.84469C1.11117 10.3023 1.56966 11.108 1.56966 12C1.56966 12.892 1.11117 13.6977 0.343219 14.1553L0 14.3598V19.8516H6.32812V17.4495H7.73438V19.8516H24V4.14844H7.73438ZM7.73438 15.5897H6.32812V12.9299H7.73438V15.5897ZM7.73438 11.0701H6.32812V8.41027H7.73438V11.0701ZM12.6928 6.69187C13.8707 6.69187 14.829 7.65019 14.829 8.82806C14.829 10.006 13.8707 10.9643 12.6928 10.9643C11.5149 10.9643 10.5566 10.006 10.5566 8.82806C10.5566 7.65019 11.5149 6.69187 12.6928 6.69187ZM10.9109 16.4669L18.2981 6.68559L19.4203 7.53309L12.033 17.3144L10.9109 16.4669ZM17.6384 17.3081C16.4605 17.3081 15.5022 16.3498 15.5022 15.1719C15.5022 13.994 16.4605 13.0357 17.6384 13.0357C18.8163 13.0357 19.7746 13.994 19.7746 15.1719C19.7746 16.3498 18.8163 17.3081 17.6384 17.3081Z" fill="url(#paint2_linear)"/>
<defs>
<linearGradient id="paint0_linear" x1="17.3647" y1="15.9018" x2="18.1961" y2="15.9018" gradientUnits="userSpaceOnUse">
<stop stop-color="#E6B712"/>
<stop offset="1" stop-color="#CAAA3B"/>
</linearGradient>
<linearGradient id="paint1_linear" x1="12.4189" y1="9.55807" x2="13.2503" y2="9.55807" gradientUnits="userSpaceOnUse">
<stop stop-color="#E6B712"/>
<stop offset="1" stop-color="#CAAA3B"/>
</linearGradient>
<linearGradient id="paint2_linear" x1="7.5" y1="19.8516" x2="21.1667" y2="19.8516" gradientUnits="userSpaceOnUse">
<stop stop-color="#E6B712"/>
<stop offset="1" stop-color="#CAAA3B"/>
</linearGradient>
</defs>
</svg>
