<svg width="24" height="16" viewBox="0 0 24 16" fill="none" xmlns="http://www.w3.org/2000/svg">
<path d="M7.73438 0.148438V2.55045H6.32812V0.148438H0V5.64017L0.343219 5.84469C1.11117 6.30228 1.56966 7.10802 1.56966 8C1.56966 8.89198 1.11117 9.69772 0.343219 10.1553L0 10.3598V15.8516H6.32812V13.4495H7.73438V15.8516H24V0.148438H7.73438ZM7.73438 11.5897H6.32812V8.92991H7.73438V11.5897ZM7.73438 7.07009H6.32812V4.41027H7.73438V7.07009ZM12.6928 2.69187C13.8707 2.69187 14.829 3.65019 14.829 4.82806C14.829 6.00598 13.8707 6.9643 12.6928 6.9643C11.5149 6.9643 10.5566 6.00598 10.5566 4.82806C10.5566 3.65019 11.5149 2.69187 12.6928 2.69187ZM10.9109 12.4669L18.2981 2.68559L19.4203 3.53309L12.033 13.3144L10.9109 12.4669ZM17.6384 13.3081C16.4605 13.3081 15.5022 12.3498 15.5022 11.1719C15.5022 9.99402 16.4605 9.0357 17.6384 9.0357C18.8163 9.0357 19.7746 9.99402 19.7746 11.1719C19.7746 12.3498 18.8163 13.3081 17.6384 13.3081Z" fill="url(#paint0_linear)"/>
<defs>
<linearGradient id="paint0_linear" x1="7.5" y1="15.8516" x2="21.1667" y2="15.8516" gradientUnits="userSpaceOnUse">
<stop stop-color="#E6B712"/>
<stop offset="1" stop-color="#CAAA3B"/>
</linearGradient>
</defs>
</svg>
