<svg width="11" height="11" viewBox="0 0 11 11" fill="none" xmlns="http://www.w3.org/2000/svg">
<path d="M5.50012 2.16846C3.91229 2.16958 2.62539 3.45648 2.62427 5.04432C2.63846 6.08078 3.14275 7.04927 3.98373 7.65522V9.73211C3.98441 9.75586 3.98923 9.77932 3.99799 9.80141V9.81771C4.00151 9.82612 4.00561 9.8343 4.01022 9.84217L4.72766 10.9102C4.76562 10.9664 4.82903 11 4.89683 10.9999H6.08304C6.15083 11 6.21425 10.9664 6.25221 10.9102L6.96964 9.84217C6.97425 9.8343 6.97836 9.82612 6.98187 9.81771V9.80141C6.99064 9.77932 6.99545 9.75586 6.99614 9.73211V7.65522C7.83714 7.04927 8.34141 6.08078 8.3556 5.04432C8.35453 3.4644 7.07998 2.18076 5.50012 2.16846ZM5.98521 10.5983H5.01504L4.57072 9.93797H6.42749L5.98521 10.5983ZM4.3934 9.53033V8.99022H6.60685L6.60889 9.53033H4.3934ZM6.7006 7.37599V7.3821C6.64305 7.41998 6.60856 7.48439 6.60889 7.55331V8.5887H4.3934V7.54108C4.39373 7.47216 4.35923 7.40775 4.30168 7.36987C3.52137 6.84843 3.04737 5.9766 3.03394 5.0382C3.0731 3.67561 4.20945 2.60274 5.57205 2.6419C6.87961 2.67948 7.93077 3.73064 7.96835 5.0382C7.95693 5.97879 7.48268 6.85332 6.7006 7.37599Z" fill="black"/>
<path d="M6.7006 7.37599V7.3821C6.64305 7.41998 6.60856 7.48439 6.60889 7.55331V8.5887H4.3934V7.54108C4.39373 7.47216 4.35923 7.40775 4.30168 7.36987C3.52137 6.84843 3.04737 5.9766 3.03394 5.0382C3.0731 3.67561 4.20945 2.60274 5.57205 2.6419C6.87961 2.67948 7.93077 3.73064 7.96835 5.0382C7.95693 5.97879 7.48268 6.85332 6.7006 7.37599Z" fill="black"/>
<path d="M5.5815 3.0918C5.46894 3.0918 5.37769 3.18306 5.37769 3.29561C5.37769 3.40817 5.46894 3.49943 5.5815 3.49943C6.42864 3.50055 7.11512 4.18703 7.11624 5.03417C7.11624 5.14673 7.2075 5.23799 7.32006 5.23799C7.43261 5.23799 7.52387 5.14673 7.52387 5.03417C7.52275 3.96189 6.65378 3.09292 5.5815 3.0918Z" fill="white"/>
<path d="M2.07608 4.83032H0.608602C0.496044 4.83032 0.404785 4.92158 0.404785 5.03414C0.404785 5.1467 0.496044 5.23796 0.608602 5.23796H2.07608C2.18864 5.23796 2.2799 5.1467 2.2799 5.03414C2.2799 4.92158 2.18864 4.83032 2.07608 4.83032Z" fill="black"/>
<path d="M10.3918 4.83032H8.92428C8.81172 4.83032 8.72046 4.92158 8.72046 5.03414C8.72046 5.1467 8.81172 5.23796 8.92428 5.23796H10.3918C10.5043 5.23796 10.5956 5.1467 10.5956 5.03414C10.5956 4.92158 10.5043 4.83032 10.3918 4.83032Z" fill="black"/>
<path d="M3.24367 7.31491C3.17045 7.2294 3.04179 7.21944 2.95629 7.29266C2.94831 7.29949 2.94088 7.30693 2.93405 7.31491V7.31083L1.89254 8.35641C1.80704 8.42963 1.79708 8.55829 1.8703 8.64379C1.94352 8.72929 2.07218 8.73926 2.15768 8.66603C2.16566 8.65921 2.1731 8.65177 2.17992 8.64379L3.22143 7.60229C3.30693 7.52907 3.31689 7.40041 3.24367 7.31491Z" fill="black"/>
<path d="M9.08544 1.4267C9.00914 1.36135 8.89661 1.36135 8.8203 1.4267L7.7788 2.4682C7.69888 2.54746 7.69834 2.67653 7.7776 2.75645C7.81615 2.79533 7.86873 2.81706 7.92351 2.81673L7.92147 2.81469C7.97564 2.815 8.02771 2.79372 8.06618 2.75559L9.10769 1.71408C9.18091 1.62858 9.17095 1.49992 9.08544 1.4267Z" fill="black"/>
<path d="M9.14784 8.39758C9.13638 8.38206 9.12277 8.36825 9.10741 8.35658L8.06591 7.311C7.99269 7.2255 7.86403 7.21554 7.77853 7.28876C7.69303 7.36198 7.68307 7.49064 7.75629 7.57614C7.76311 7.58412 7.77055 7.59155 7.77853 7.59838L8.82003 8.63989C8.88693 8.73041 9.01457 8.74954 9.10509 8.68264C9.19561 8.61574 9.21475 8.4881 9.14784 8.39758Z" fill="black"/>
<path d="M3.22116 2.4682L2.17965 1.4267C2.09415 1.35348 1.96549 1.36344 1.89227 1.44894C1.82692 1.52524 1.82692 1.63778 1.89227 1.71408L2.93378 2.75558C3.01928 2.82881 3.14794 2.81884 3.22116 2.73334C3.28651 2.65704 3.28651 2.54451 3.22116 2.4682Z" fill="black"/>
<path d="M5.50005 0C5.3875 0 5.29624 0.091259 5.29624 0.203817V1.67741C5.29285 1.78992 5.38133 1.88388 5.49384 1.88724C5.4959 1.88729 5.49796 1.88734 5.50005 1.88734C5.61261 1.88734 5.70387 1.79609 5.70387 1.68353V0.203817C5.70387 0.091259 5.61261 0 5.50005 0Z" fill="black"/>
</svg>
