<svg width="21" height="23" viewBox="0 0 21 23" fill="none" xmlns="http://www.w3.org/2000/svg">
<path d="M19.3092 5.38211L11.3512 0.782111C10.8452 0.483111 10.2012 0.483111 9.69518 0.782111L1.73718 5.38211C1.23118 5.68111 0.90918 6.23311 0.90918 6.80811V16.0081C0.90918 16.6061 1.23118 17.1581 1.73718 17.4341L9.69518 22.0341C9.94818 22.1721 10.2242 22.2641 10.5232 22.2641C10.8222 22.2641 11.0982 22.1951 11.3512 22.0341L19.3092 17.4341C19.8152 17.1351 20.1372 16.5831 20.1372 16.0081V6.80811C20.1372 6.23311 19.8152 5.68111 19.3092 5.38211ZM5.87718 15.5481C5.55518 15.5481 5.27918 15.2951 5.27918 14.9501V8.51011C5.27918 8.18811 5.53218 7.91211 5.87718 7.91211H8.15418V7.56711C8.15418 6.96911 8.63718 6.48611 9.23518 6.48611H11.6042C12.2022 6.48611 12.6852 6.96911 12.6852 7.56711V7.91211H14.9852C15.3072 7.91211 15.5832 8.16511 15.5832 8.51011V11.0631C15.0542 10.6031 14.3642 10.3271 13.6052 10.3271C11.9492 10.3271 10.6152 11.6611 10.6152 13.3171C10.6152 14.1911 10.9832 14.9961 11.6042 15.5481H5.87718ZM13.6052 15.8471C12.2252 15.8471 11.0982 14.7201 11.0982 13.3401C11.0982 11.9601 12.2252 10.8101 13.6052 10.8101C14.9852 10.8101 16.1122 11.9371 16.1122 13.3171C16.1122 14.6971 15.0082 15.8471 13.6052 15.8471Z" fill="#353535"/>
</svg>
