<svg width="20" height="20" viewBox="0 0 20 20" fill="none" xmlns="http://www.w3.org/2000/svg">
<path d="M19.7712 10.094C19.7706 9.57403 19.5638 9.07548 19.1961 8.70779C18.8283 8.3401 18.3298 8.1333 17.8098 8.13276H12.8375C12.8386 8.09496 12.8427 8.0573 12.8495 8.02011C13.0368 7.20482 13.3446 6.422 13.7627 5.69745C14.2004 4.9328 14.4427 1.42612 13.4788 0.761663C13.0501 0.467527 12.5223 0.355295 12.011 0.449553C11.4997 0.543811 11.0466 0.836873 10.751 1.26454C10.7271 1.29927 10.7092 1.33774 10.698 1.37836L9.81729 4.59414L8.07061 7.12949C7.89453 7.38517 7.24165 8.16399 6.70317 8.79649C6.67117 8.74071 6.62516 8.69424 6.56969 8.66168C6.51423 8.62913 6.45122 8.61162 6.38691 8.61088H0.604004C0.554757 8.61088 0.505993 8.62058 0.460494 8.63942C0.414995 8.65826 0.373654 8.68589 0.338831 8.72071C0.304008 8.75553 0.276386 8.79687 0.257542 8.84237C0.238698 8.88787 0.229 8.93664 0.229004 8.98588V19.2092C0.229 19.2584 0.238698 19.3072 0.257542 19.3527C0.276386 19.3982 0.304008 19.4395 0.338831 19.4743C0.373654 19.5092 0.414995 19.5368 0.460494 19.5556C0.505993 19.5745 0.554757 19.5842 0.604004 19.5842H6.38691C6.43616 19.5842 6.48492 19.5745 6.53042 19.5556C6.57592 19.5368 6.61726 19.5092 6.65208 19.4743C6.68691 19.4395 6.71453 19.3982 6.73337 19.3527C6.75222 19.3072 6.76192 19.2584 6.76191 19.2092V18.9028L9.06025 19.5694C9.09425 19.5792 9.12946 19.5842 9.16484 19.5842H15.309C15.8289 19.5836 16.3274 19.3767 16.6951 19.009C17.0628 18.6414 17.2696 18.1428 17.2701 17.6229C17.2701 17.5082 17.2596 17.3937 17.2388 17.2808C17.5769 17.1241 17.8631 16.8739 18.0635 16.5597C18.2639 16.2455 18.3701 15.8805 18.3696 15.5078C18.3707 15.1587 18.277 14.8159 18.0983 14.516C18.3348 14.3902 18.5428 14.2171 18.7094 14.0075C18.876 13.7979 18.9977 13.5562 19.0669 13.2975C19.1361 13.0388 19.1512 12.7686 19.1115 12.5038C19.0717 12.239 18.9778 11.9852 18.8357 11.7582C19.1205 11.5835 19.3559 11.3389 19.5197 11.0477C19.6834 10.7564 19.77 10.4281 19.7712 10.094ZM6.01191 18.8342H0.979004V9.36088H6.01191V18.8342ZM18.132 11.2549C18.0674 11.2729 18.0087 11.3079 17.9622 11.3563C17.9156 11.4047 17.8829 11.4646 17.8675 11.53C17.852 11.5953 17.8544 11.6635 17.8744 11.7276C17.8943 11.7917 17.9311 11.8493 17.9809 11.8943C18.1073 12.0064 18.2085 12.1441 18.2779 12.2982C18.3472 12.4523 18.3831 12.6193 18.3831 12.7883C18.3826 13.0687 18.2851 13.3402 18.107 13.5566C17.9289 13.7731 17.6813 13.9212 17.4063 13.9757C17.3383 13.9891 17.2754 14.0211 17.2244 14.0681C17.1735 14.1151 17.1366 14.1753 17.1178 14.2421C17.099 14.3088 17.0991 14.3794 17.118 14.4461C17.1369 14.5128 17.174 14.5729 17.225 14.6198C17.3873 14.767 17.5062 14.9556 17.5691 15.1655C17.6319 15.3753 17.6363 15.5983 17.5816 15.8104C17.527 16.0225 17.4154 16.2156 17.259 16.369C17.1026 16.5223 16.9073 16.63 16.6941 16.6804C16.6421 16.6931 16.5934 16.7167 16.5512 16.7498C16.5091 16.7828 16.4745 16.8245 16.4499 16.8721C16.4252 16.9196 16.411 16.9719 16.4082 17.0254C16.4054 17.0788 16.4141 17.1323 16.4337 17.1821C16.5072 17.3654 16.5344 17.5639 16.5131 17.7602C16.4918 17.9565 16.4225 18.1445 16.3114 18.3077C16.2003 18.4709 16.0507 18.6043 15.8759 18.6961C15.7011 18.7879 15.5064 18.8353 15.309 18.8342H9.21816L6.76191 18.1218V9.88089C7.12021 9.46502 8.39931 7.97484 8.68818 7.55487L10.4709 4.96722C10.4949 4.93261 10.5128 4.89417 10.5239 4.85355L11.4034 1.64202C11.5926 1.39537 11.8691 1.23064 12.1761 1.18177C12.483 1.13291 12.797 1.20364 13.0534 1.37938C13.516 1.69813 13.4721 4.69505 13.1117 5.32493C12.6508 6.12361 12.3135 6.98745 12.1112 7.88709C12.0718 8.12127 12.081 8.36106 12.1382 8.59154C12.1572 8.67428 12.2037 8.74813 12.2701 8.80102C12.3365 8.85391 12.4189 8.88272 12.5038 8.88275H17.8098C18.1025 8.88177 18.3857 8.98721 18.6065 9.17942C18.8273 9.37163 18.9708 9.63753 19.0102 9.92763C19.0496 10.2177 18.9823 10.5123 18.8208 10.7564C18.6592 11.0006 18.4144 11.1777 18.132 11.2549V11.2549Z" fill="#333333"/>
</svg>
