<svg width="24" height="23" viewBox="0 0 24 23" fill="none" xmlns="http://www.w3.org/2000/svg">
<path fill-rule="evenodd" clip-rule="evenodd" d="M23.9102 16.4776C23.8207 16.209 23.3729 16.1194 22.8356 15.7612C22.2087 15.4925 19.3431 14.0597 18.8057 13.8806C18.2684 13.7015 17.8207 13.6119 17.4625 14.1493C17.0147 14.7761 15.9401 16.1194 15.5819 16.4776C15.2236 16.8358 14.8654 16.9254 14.3281 16.6567C10.5669 14.7761 8.41768 13.4328 6.26842 9.67164C5.91021 9.04478 6.17887 8.77612 6.53708 8.50746C7.16395 7.79104 8.50723 6.44776 7.96992 5.46269C7.79081 5.10448 6.62663 2.23881 6.08932 1.07463C5.46245 -0.447761 2.95499 -0.179104 2.05947 0.80597C-1.16441 4.29851 -0.268891 8.14925 2.41768 11.7313C2.68633 12.0896 6.53708 18.2687 12.5371 20.597C15.4028 21.7612 21.9401 23.9104 23.6416 19.2537C24.0893 17.9104 24.0893 16.7463 23.9102 16.4776Z" fill="#666666"/>
</svg>
