<svg width="18" height="18" viewBox="0 0 18 18" fill="none" xmlns="http://www.w3.org/2000/svg">
<g clip-path="url(#clip0)">
<path d="M3.63648 17.5751C3.56978 17.5751 3.50309 17.5545 3.44703 17.5135C3.34779 17.4414 3.29817 17.3193 3.31912 17.1984L4.31502 11.3931L0.0971776 7.28227C0.00954084 7.19657 -0.0220341 7.06866 0.0156625 6.95235C0.0536814 6.83571 0.154528 6.75065 0.275995 6.73293L6.10448 5.88588L8.71135 0.604162C8.76548 0.493971 8.8776 0.424377 9.00004 0.424377C9.12279 0.424377 9.23492 0.493971 9.28872 0.604162L11.8953 5.88588L17.7241 6.73293C17.8455 6.75065 17.9461 6.83539 17.9844 6.95235C18.0221 7.06866 17.9909 7.19689 17.9029 7.28227L13.6851 11.3938L14.6806 17.1988C14.7013 17.3196 14.6516 17.4417 14.5527 17.5139C14.4535 17.5867 14.3217 17.596 14.2131 17.5383L9.00004 14.7978L3.7863 17.5383C3.73926 17.5628 3.68771 17.5751 3.63648 17.5751ZM1.01446 7.27647L4.88594 11.0503C4.96166 11.1241 4.99646 11.2311 4.97841 11.3355L4.06435 16.6639L8.85022 14.1482C8.94398 14.0986 9.05578 14.0986 9.15018 14.1482L13.9354 16.6639L13.0217 11.3355C13.0036 11.2311 13.0384 11.1244 13.1141 11.0503L16.9856 7.27647L11.6356 6.49902C11.5305 6.48388 11.44 6.41783 11.393 6.32278L9.00004 1.47505L6.6071 6.3231C6.56006 6.41815 6.46953 6.4842 6.36449 6.49934L1.01446 7.27647Z" fill="#333333"/>
</g>
<defs>
<clipPath id="clip0">
<rect width="18" height="18" fill="white"/>
</clipPath>
</defs>
</svg>
