<svg width="20" height="24" viewBox="0 0 20 24" fill="none" xmlns="http://www.w3.org/2000/svg">
<path d="M15.75 12.462C15.7241 11.7873 15.7309 11.1101 15.7369 10.4542C15.7399 10.1595 15.7429 9.8651 15.7429 9.5711L15.7436 8.8076V8.59235C15.7421 7.77335 15.7406 6.92735 15.7481 6.08997C14.706 5.83647 13.6549 5.57322 12.6367 5.31822C11.8054 5.10972 10.9459 4.89522 10.101 4.6871C10.0406 4.67247 9.96037 4.67172 9.90637 4.68485C9.0765 4.88847 8.23237 5.09997 7.41562 5.30472C6.37912 5.56422 5.30887 5.8316 4.24949 6.08885L4.25249 6.79047C4.26224 8.67597 4.27312 10.6263 4.24574 12.5475C4.22662 13.8911 4.64437 15.0604 5.52112 16.1254C6.59362 17.4262 8.01787 18.4444 9.9975 19.3245C11.682 18.5895 13.0181 17.691 14.079 16.5795C15.2621 15.339 15.8089 13.9923 15.75 12.462ZM13.7539 9.72972C13.2442 10.3837 12.7331 11.0362 12.2246 11.691C11.3974 12.7575 10.5739 13.827 9.74475 14.892C9.27824 15.4912 8.90287 15.4849 8.45925 14.8774C7.72575 13.8735 6.99187 12.87 6.25949 11.8654C6.01199 11.5256 6.01462 11.1754 6.2625 10.9451C6.50962 10.7156 6.86512 10.7381 7.18012 11.0107C7.71825 11.4769 8.253 11.9475 8.79037 12.4151C8.87662 12.4901 8.96962 12.558 9.14625 12.6979C9.21562 12.5861 9.26137 12.4691 9.34274 12.3874C10.4741 11.2485 11.6081 10.1118 12.7489 8.98235C12.8719 8.86047 13.0316 8.7446 13.194 8.7011C13.4632 8.62872 13.7014 8.73485 13.8409 8.98872C13.9856 9.25085 13.9324 9.5006 13.7539 9.72972Z" fill="#CAAA3B"/>
<path d="M19.5924 12.4192C19.5766 12.0064 19.5721 11.5834 19.5725 11.1619H19.5879L19.5871 8.00811C19.5853 6.97611 19.5838 5.90886 19.5943 4.86711C19.6085 3.59436 18.8836 2.65686 17.6551 2.35911C16.4585 2.06924 15.2383 1.76399 14.0581 1.46886L13.5324 1.33724C12.6399 1.11374 11.7174 0.88274 10.8088 0.659615C10.2868 0.53099 9.716 0.53024 9.203 0.656615C8.20438 0.90149 7.21063 1.15011 6.2855 1.38224C5.14025 1.66911 3.7145 2.02574 2.357 2.35349C1.12813 2.64974 0.398378 3.59661 0.404003 4.88699L0.409628 6.00936C0.420878 8.16899 0.432878 10.4021 0.401378 12.5887C0.369878 14.8357 1.09213 16.8709 2.54788 18.6386C4.11875 20.5444 6.15613 22.0035 8.96075 23.2312C9.27088 23.3662 9.62488 23.4375 9.98488 23.4375C10.3546 23.4375 10.7248 23.3625 11.0555 23.2204C13.4225 22.2015 15.3166 20.9269 16.847 19.3241C18.7666 17.3119 19.6903 14.9887 19.5924 12.4192ZM15.2259 17.8901C13.8643 19.3174 12.1524 20.4765 9.998 21.4282C7.46338 20.2886 5.63413 18.9735 4.25563 17.3017C3.13175 15.9382 2.59775 14.4405 2.62213 12.7219C2.65813 10.1662 2.64463 7.57349 2.6315 5.06624L2.62775 4.35224C3.9635 4.02749 5.309 3.69074 6.61475 3.36374C7.70375 3.09111 8.8295 2.80911 9.93875 2.53724C9.96425 2.53086 10.0284 2.52899 10.0745 2.54061C11.1733 2.81099 12.2908 3.09074 13.3715 3.36149C14.6788 3.68886 16.0258 4.02636 17.3683 4.35411C17.3608 5.39099 17.3623 6.43461 17.3641 7.44861C17.3641 7.46774 17.3641 7.48686 17.3641 7.50636L17.3634 8.77161C17.3634 9.16199 17.3596 9.55236 17.3559 9.94311C17.3473 10.8142 17.3386 11.715 17.3724 12.615C17.4474 14.5725 16.7454 16.2979 15.2259 17.8901Z" fill="#CAAA3B"/>
</svg>
