<svg width="10" height="10" viewBox="0 0 10 10" fill="none" xmlns="http://www.w3.org/2000/svg">
<path d="M9.71214 0H0.315329C0.157665 0 0 0.125786 0 0.314465V7.86164C0 8.05031 0.126132 8.1761 0.315329 8.1761H3.40556V9.37107H2.01811C1.82891 9.37107 1.70278 9.49686 1.70278 9.68553C1.70278 9.84277 1.82891 10 2.01811 10H7.97783C8.16703 10 8.29316 9.84277 8.29316 9.68553C8.29316 9.49686 8.16703 9.37107 7.97783 9.37107H6.59038V8.1761H9.68061C9.86981 8.1761 9.99594 8.05031 9.99594 7.86164V0.314465C10.0275 0.157233 9.86981 0 9.71214 0ZM5.01374 7.64151C4.72994 7.64151 4.47768 7.38994 4.47768 7.10692C4.47768 6.79245 4.72994 6.57233 5.01374 6.57233C5.32907 6.57233 5.5498 6.8239 5.5498 7.10692C5.5498 7.42138 5.32907 7.64151 5.01374 7.64151ZM9.39682 6.06918H0.630659V0.628931H9.36528V6.06918H9.39682Z" fill="#353535"/>
<path d="M6.43241 3.33338C6.43241 3.42772 6.40088 3.52206 6.30628 3.58495L4.1305 5.22017C4.0359 5.28307 3.90977 5.31451 3.81517 5.25162C3.72058 5.18873 3.62598 5.09439 3.62598 4.9686V1.69816C3.62598 1.57237 3.68904 1.47803 3.81517 1.41514C3.90977 1.35225 4.0359 1.38369 4.1305 1.44659L6.30628 3.08181C6.36934 3.1447 6.43241 3.23904 6.43241 3.33338Z" fill="#353535"/>
</svg>
