<svg width="11" height="10" viewBox="0 0 11 10" fill="none" xmlns="http://www.w3.org/2000/svg">
<path d="M8.29017 8.07703V7.86051C8.28073 7.76959 8.25793 7.68065 8.22256 7.59668L7.60156 8.12798H8.28306C8.28662 8.1116 8.2884 8.09341 8.29017 8.07703Z" fill="#353535"/>
<path d="M6.63477 8.95405H7.33405C7.51304 8.95393 7.68844 8.90279 7.84057 8.80637C7.9927 8.70994 8.11553 8.57206 8.19526 8.4082H7.27889L6.63477 8.95405Z" fill="#353535"/>
<path d="M8.56378 9.9999H9.71324L10.1421 6.2317C10.1421 5.52573 9.31823 5.07268 9.05844 4.94531C8.95524 5.04357 8.73638 5.24735 8.43389 5.50572C7.94458 5.92719 7.4325 6.32021 6.90008 6.68294C6.68833 6.82668 6.47837 6.96132 6.27908 7.07959C5.31823 7.65092 4.48727 7.93658 3.81467 7.93476L3.10292 8.88454L2.88406 9.18476L2.29688 9.97442L2.30933 9.9999H4.19011C4.70036 9.99927 5.19438 9.81651 5.58691 9.48316L6.83246 8.41693L7.13139 8.16038L8.16876 7.27064L8.25061 7.19968L8.33068 7.13236C8.35064 7.11493 8.37508 7.10373 8.40109 7.10009C8.42709 7.09645 8.45357 7.10053 8.47738 7.11184C8.50118 7.12315 8.52131 7.14121 8.53537 7.16388C8.54942 7.18655 8.55681 7.21287 8.55666 7.23971V7.84196C8.55717 7.84923 8.55717 7.85653 8.55666 7.8638C8.56411 7.94246 8.56411 8.02167 8.55666 8.10033L8.56378 9.9999Z" fill="#353535"/>
<path d="M3.63546 7.71477C3.64972 7.6962 3.66778 7.68103 3.68838 7.67035C3.70897 7.65966 3.7316 7.65371 3.75468 7.65291C4.33297 7.67292 5.0465 7.44731 5.88991 6.98333L4.01091 6.27372C3.99397 6.26727 3.97844 6.25747 3.9652 6.24488C3.95196 6.23229 3.94128 6.21716 3.93376 6.20035C3.91858 6.1664 3.91721 6.12767 3.92995 6.09268C3.94269 6.0577 3.9685 6.02932 4.0017 6.0138C4.03491 5.99827 4.07278 5.99687 4.10699 6.0099L6.19418 6.8032C6.29027 6.74498 6.38813 6.68493 6.48778 6.62125L6.52158 6.59942L3.63902 5.47314C3.58233 5.45017 3.52206 5.43784 3.46109 5.43675H3.43795C3.35835 5.43853 3.2801 5.45819 3.20876 5.49435C3.13741 5.53051 3.07473 5.58229 3.02514 5.646C2.9392 5.74691 2.84046 5.83564 2.73155 5.90982C2.57468 6.01879 2.39826 6.0949 2.21247 6.13377C2.02667 6.17264 1.83519 6.17349 1.64908 6.13627C1.46296 6.09905 1.2859 6.02451 1.12811 5.91694C0.970327 5.80936 0.83494 5.6709 0.72977 5.50953C0.716368 5.4897 0.698978 5.47303 0.678764 5.46063C0.658549 5.44823 0.635977 5.44039 0.61256 5.43763C0.589142 5.43488 0.565418 5.43727 0.542977 5.44465C0.520537 5.45203 0.499896 5.46422 0.482439 5.48042C0.466831 5.49573 0.45438 5.51409 0.445823 5.5344C0.437266 5.55471 0.432776 5.57657 0.432617 5.59869V8.1278H3.32408L3.63546 7.71477ZM1.2618 7.75116C1.22546 7.75116 1.19061 7.7364 1.16492 7.71013C1.13922 7.68385 1.12479 7.64822 1.12479 7.61106C1.12479 7.5739 1.13922 7.53827 1.16492 7.51199C1.19061 7.48572 1.22546 7.47096 1.2618 7.47096H3.3223C3.35863 7.47096 3.39348 7.48572 3.41918 7.51199C3.44487 7.53827 3.45931 7.5739 3.45931 7.61106C3.45931 7.64822 3.44487 7.68385 3.41918 7.71013C3.39348 7.7364 3.35863 7.75116 3.3223 7.75116H1.2618Z" fill="#353535"/>
<path d="M1.10155 8.95419H2.70297L2.90226 8.68854L3.11045 8.41016H0.441406C0.473363 8.56469 0.556498 8.70322 0.67677 8.80234C0.797042 8.90146 0.947081 8.95509 1.10155 8.95419Z" fill="#353535"/>
<path d="M8.29537 0H6.59786C6.52563 0.240344 6.37994 0.450669 6.18217 0.600084C5.98441 0.749498 5.745 0.830127 5.49911 0.830127C5.25322 0.830127 5.01381 0.749498 4.81605 0.600084C4.61828 0.450669 4.47259 0.240344 4.40036 0H2.70463L0 2.33988L1.37367 4.00109L2.56584 2.96943C2.5858 2.952 2.61023 2.9408 2.63624 2.93717C2.66225 2.93353 2.68873 2.93761 2.71253 2.94892C2.73634 2.96022 2.75646 2.97829 2.77052 3.00096C2.78457 3.02362 2.79197 3.04994 2.79181 3.07678V5.48399L2.80961 5.46397C2.88476 5.36873 2.97954 5.29162 3.08719 5.23815C3.19485 5.18469 3.31271 5.15618 3.43238 5.15466H3.45552C3.55232 5.15473 3.64826 5.17324 3.73843 5.20924L6.80605 6.4083L7.01423 6.26274L7.13167 6.18086C7.23843 6.10444 7.3452 6.02438 7.45196 5.9425L7.49466 5.90975C7.61329 5.81635 7.73606 5.71931 7.86299 5.61863L7.97687 5.52402L8.20819 5.33115V3.07678C8.20803 3.04994 8.21543 3.02362 8.22948 3.00096C8.24354 2.97829 8.26366 2.96022 8.28747 2.94892C8.31127 2.93761 8.33775 2.93353 8.36376 2.93717C8.38977 2.9408 8.4142 2.952 8.43416 2.96943L9.62633 4.00109L11 2.33988L8.29537 0Z" fill="#353535"/>
</svg>
