<svg width="12" height="7" viewBox="0 0 12 7" fill="none" xmlns="http://www.w3.org/2000/svg">
<g clip-path="url(#clip0)">
<path d="M8.83687 0.48386C9.28017 0.374511 9.75203 0.374511 10.1953 0.48386C10.1983 0.484595 10.2015 0.484744 10.2046 0.484294C10.2077 0.483844 10.2106 0.482808 10.2132 0.481267C10.2157 0.479725 10.2178 0.477718 10.2192 0.475401C10.2207 0.473084 10.2215 0.47052 10.2216 0.467906V0.324357C10.2272 0.291179 10.2249 0.257394 10.2147 0.224976C10.2045 0.192558 10.1867 0.162156 10.1622 0.135545C10.1377 0.108935 10.1072 0.086649 10.0722 0.0699893C10.0373 0.0533296 9.99877 0.0426298 9.95884 0.0385146C9.6669 -0.0128382 9.36529 -0.0128382 9.07335 0.0385146C9.03342 0.0426303 8.99487 0.0533306 8.95995 0.0699906C8.92504 0.0866505 8.89446 0.108936 8.87 0.135547C8.84554 0.162157 8.82769 0.192559 8.8175 0.224977C8.80731 0.257395 8.80497 0.291179 8.81063 0.324357V0.467906C8.8107 0.470521 8.8115 0.473085 8.81296 0.475403C8.81441 0.47772 8.81649 0.479727 8.81903 0.481269C8.82156 0.482811 8.82449 0.483846 8.82758 0.484296C8.83068 0.484745 8.83386 0.484596 8.83687 0.48386Z" fill="#353535"/>
<path d="M1.80464 0.483918C2.24794 0.374569 2.7198 0.374569 3.1631 0.483918C3.16611 0.484653 3.16929 0.484802 3.17238 0.484352C3.17547 0.483902 3.1784 0.482866 3.18094 0.481325C3.18347 0.479783 3.18555 0.477776 3.18701 0.475459C3.18846 0.473142 3.18926 0.470578 3.18934 0.467964V0.324415C3.19499 0.291237 3.19266 0.257452 3.18246 0.225034C3.17227 0.192616 3.15442 0.162215 3.12996 0.135604C3.1055 0.108994 3.07492 0.0867082 3.04001 0.0700483C3.00509 0.0533883 2.96654 0.042688 2.92661 0.0385723C2.78123 0.0119402 2.63272 -0.000979229 2.48387 5.78051e-05C2.33502 -0.000979229 2.1865 0.0119402 2.04113 0.0385723C2.00119 0.0426882 1.96264 0.0533885 1.92773 0.0700485C1.89281 0.0867085 1.86223 0.108994 1.83777 0.135605C1.81331 0.162215 1.79547 0.192617 1.78527 0.225035C1.77508 0.257452 1.77274 0.291237 1.7784 0.324415V0.467964C1.77848 0.470578 1.77927 0.473142 1.78073 0.475459C1.78218 0.477776 1.78426 0.479783 1.7868 0.481325C1.78933 0.482866 1.79226 0.483902 1.79535 0.484352C1.79845 0.484802 1.80162 0.484653 1.80464 0.483918Z" fill="#353535"/>
<path d="M1.14902 6.99584C2.11767 7.07028 2.38724 6.21245 3.05602 4.78671C3.16427 4.92082 3.31086 5.03041 3.4826 5.10562C3.65433 5.18083 3.84583 5.21931 4.03986 5.21759C4.23388 5.21587 4.42435 5.174 4.59412 5.09575C4.76389 5.01751 4.90764 4.90534 5.01243 4.76934H6.9876C7.09239 4.90534 7.23613 5.01751 7.4059 5.09576C7.57567 5.174 7.76613 5.21587 7.96016 5.21759C8.15418 5.21931 8.34567 5.18083 8.5174 5.10561C8.68913 5.03039 8.83571 4.9208 8.94395 4.78669C9.61273 6.21243 9.88229 7.07028 10.8509 6.99584C12.0312 6.90513 12.2725 5.83011 11.7111 3.57534C11.3438 2.10028 10.8842 1.27 10.3468 0.886267C10.3185 0.866364 10.2852 0.851808 10.2494 0.843599L10.1114 0.810662C10.1009 0.808181 10.0915 0.806127 10.0814 0.803762C9.72038 0.714262 9.33619 0.712546 8.97406 0.798815C8.95671 0.802853 8.94154 0.805768 8.92347 0.810173L8.80107 0.840007C8.76068 0.849406 8.72369 0.866942 8.69336 0.891066C8.62882 0.943972 8.56998 1.00149 8.51751 1.06296H3.48249C3.43002 1.00149 3.37118 0.943974 3.30664 0.891069C3.2763 0.866943 3.2393 0.849408 3.19889 0.840009L3.07653 0.810175C3.05846 0.80577 3.04326 0.802856 3.02594 0.798817C2.66381 0.712548 2.27962 0.714265 1.91862 0.803764C1.90849 0.806129 1.89905 0.808183 1.88864 0.810664L1.75055 0.843601C1.71477 0.85181 1.68155 0.866366 1.65316 0.88627C1.11579 1.27 0.656184 2.10028 0.288898 3.57534C-0.272528 5.83011 -0.0311536 6.90513 1.14902 6.99584ZM10.5016 2.32192C10.5972 2.32193 10.6906 2.34554 10.7701 2.38976C10.8495 2.43398 10.9115 2.49683 10.948 2.57037C10.9846 2.6439 10.9942 2.72481 10.9755 2.80287C10.9569 2.88093 10.9108 2.95263 10.8432 3.0089C10.7757 3.06517 10.6896 3.1035 10.5958 3.11902C10.5021 3.13454 10.4049 3.12657 10.3166 3.09611C10.2284 3.06566 10.1529 3.01408 10.0998 2.9479C10.0467 2.88173 10.0184 2.80393 10.0184 2.72434C10.0184 2.67149 10.0309 2.61916 10.0551 2.57033C10.0794 2.5215 10.115 2.47714 10.1599 2.43977C10.2048 2.4024 10.2581 2.37276 10.3167 2.35254C10.3753 2.33232 10.4382 2.32191 10.5016 2.32192ZM9.53236 1.51477C9.62793 1.51477 9.72136 1.53837 9.80082 1.58258C9.88029 1.6268 9.94223 1.68965 9.9788 1.76318C10.0154 1.83671 10.0249 1.91762 10.0063 1.99568C9.98766 2.07375 9.94164 2.14545 9.87406 2.20173C9.80648 2.25801 9.72038 2.29634 9.62665 2.31187C9.53291 2.32739 9.43575 2.31942 9.34746 2.28897C9.25916 2.25851 9.18369 2.20693 9.13059 2.14075C9.0775 2.07458 9.04916 1.99677 9.04916 1.91718C9.04916 1.81046 9.10006 1.7081 9.19068 1.63264C9.2813 1.55717 9.4042 1.51477 9.53236 1.51477ZM9.53236 3.12909C9.62793 3.12909 9.72136 3.15269 9.80082 3.1969C9.88029 3.24112 9.94223 3.30397 9.9788 3.3775C10.0154 3.45103 10.0249 3.53194 10.0063 3.61C9.98766 3.68807 9.94164 3.75977 9.87406 3.81605C9.80648 3.87233 9.72038 3.91066 9.62665 3.92619C9.53291 3.94171 9.43575 3.93374 9.34746 3.90329C9.25916 3.87283 9.18369 3.82125 9.13059 3.75507C9.0775 3.68889 9.04916 3.61109 9.04916 3.5315C9.04916 3.42478 9.10006 3.32242 9.19068 3.24695C9.2813 3.17149 9.4042 3.12909 9.53236 3.12909V3.12909ZM8.56316 2.32192C8.65873 2.32192 8.75216 2.34552 8.83162 2.38973C8.91109 2.43395 8.97303 2.4968 9.0096 2.57033C9.04618 2.64386 9.05575 2.72477 9.03711 2.80284C9.01846 2.8809 8.97244 2.9526 8.90487 3.00888C8.83729 3.06516 8.75119 3.10349 8.65745 3.11902C8.56372 3.13455 8.46656 3.12658 8.37826 3.09612C8.28996 3.06567 8.21449 3.01409 8.1614 2.94791C8.1083 2.88173 8.07996 2.80393 8.07996 2.72434C8.07996 2.61762 8.13086 2.51526 8.22148 2.43979C8.31209 2.36433 8.435 2.32193 8.56315 2.32192L8.56316 2.32192ZM7.9721 3.68735C8.10373 3.68733 8.2324 3.71982 8.34185 3.7807C8.4513 3.84159 8.53661 3.92814 8.58699 4.02941C8.63737 4.13067 8.65056 4.2421 8.6249 4.34961C8.59923 4.45712 8.53585 4.55588 8.44278 4.63339C8.34972 4.7109 8.23114 4.76369 8.10205 4.78508C7.97295 4.80646 7.83914 4.79549 7.71754 4.75354C7.59594 4.71159 7.492 4.64056 7.41888 4.54942C7.34576 4.45827 7.30673 4.35112 7.30674 4.24151C7.30692 4.09459 7.37708 3.95373 7.50182 3.84984C7.62655 3.74595 7.79569 3.68751 7.9721 3.68735ZM2.86321 3.84271C2.86321 3.86678 2.85173 3.88986 2.83129 3.90688C2.81085 3.9239 2.78313 3.93346 2.75423 3.93345H2.17995C2.16564 3.93345 2.15146 3.93111 2.13824 3.92655C2.12502 3.92199 2.11301 3.9153 2.10289 3.90688C2.09277 3.89845 2.08474 3.88845 2.07926 3.87744C2.07378 3.86643 2.07096 3.85463 2.07096 3.84271V3.29938C2.07098 3.26875 2.08559 3.23937 2.11159 3.2177L2.4194 2.96138C2.43204 2.95086 2.44918 2.94495 2.46706 2.94495C2.48493 2.94495 2.50207 2.95086 2.51471 2.96138L2.82259 3.21776C2.8486 3.23942 2.86321 3.2688 2.86321 3.29943V3.84271ZM4.69333 4.24151C4.69333 4.35111 4.65431 4.45825 4.58119 4.54937C4.50808 4.6405 4.40415 4.71153 4.28257 4.75348C4.16098 4.79542 4.02719 4.8064 3.89811 4.78502C3.76903 4.76364 3.65046 4.71087 3.5574 4.63338C3.46433 4.55588 3.40095 4.45714 3.37527 4.34965C3.34958 4.24216 3.36275 4.13074 3.41311 4.02948C3.46346 3.92822 3.54874 3.84166 3.65816 3.78077C3.76758 3.71987 3.89623 3.68736 4.02784 3.68735C4.20426 3.68752 4.3734 3.74596 4.49816 3.84984C4.62292 3.95373 4.69311 4.09458 4.69333 4.24151ZM3.05957 2.4283C3.08558 2.40664 3.12086 2.39447 3.15765 2.39447H3.81003C3.83892 2.39447 3.86663 2.40404 3.88707 2.42105C3.9075 2.43807 3.91898 2.46115 3.91898 2.48522V2.96347C3.91898 2.98754 3.9075 3.01062 3.88707 3.02763C3.86663 3.04465 3.83892 3.05421 3.81003 3.05422H3.15758C3.1208 3.05422 3.08552 3.04205 3.0595 3.02039L2.75172 2.76407C2.74546 2.75886 2.7405 2.75268 2.73711 2.74587C2.73372 2.73906 2.73197 2.73176 2.73197 2.72439C2.73197 2.71701 2.73372 2.70971 2.73711 2.7029C2.7405 2.69609 2.74546 2.68991 2.75172 2.6847L3.05957 2.4283ZM2.07096 1.60598C2.07097 1.58191 2.08245 1.55883 2.10289 1.54181C2.12333 1.52479 2.15104 1.51523 2.17995 1.51523H2.75423C2.78313 1.51523 2.81085 1.52479 2.83129 1.54181C2.85173 1.55883 2.86321 1.58191 2.86321 1.60598V2.14931C2.86321 2.17995 2.8486 2.20933 2.82259 2.23099L2.51478 2.4873C2.50852 2.49252 2.5011 2.49665 2.49292 2.49947C2.48475 2.50229 2.47599 2.50374 2.46714 2.50374C2.45829 2.50374 2.44953 2.50229 2.44135 2.49947C2.43318 2.49665 2.42575 2.49252 2.4195 2.4873L2.11159 2.23094C2.08559 2.20927 2.07098 2.17989 2.07096 2.14926V1.60598ZM1.0152 2.48522C1.0152 2.46115 1.02668 2.43807 1.04711 2.42105C1.06754 2.40404 1.09525 2.39447 1.12415 2.39447H1.77659C1.81338 2.39447 1.84866 2.40664 1.87467 2.4283L2.18245 2.68462C2.18871 2.68983 2.19368 2.69601 2.19707 2.70282C2.20046 2.70963 2.2022 2.71693 2.2022 2.7243C2.2022 2.73168 2.20046 2.73897 2.19707 2.74578C2.19368 2.75259 2.18871 2.75878 2.18245 2.76399L1.87461 3.02039C1.84859 3.04205 1.81331 3.05422 1.77653 3.05422H1.12415C1.09526 3.05421 1.06754 3.04465 1.04711 3.02763C1.02668 3.01062 1.0152 2.98754 1.0152 2.96347L1.0152 2.48522Z" fill="#353535"/>
</g>
<defs>
<clipPath id="clip0">
<rect width="12" height="7" fill="white"/>
</clipPath>
</defs>
</svg>
