<svg width="10" height="10" viewBox="0 0 10 10" fill="none" xmlns="http://www.w3.org/2000/svg">
<g clip-path="url(#clip0)">
<path d="M3.03716 3.04348H4.03499C4.33868 2.45652 4.25191 1.91304 4.14345 1.56522C4.05669 1.30435 3.88315 1.08696 3.66623 0.978261C3.70961 0.891305 3.77469 0.782609 3.88315 0.673913C3.90484 0.695652 3.90484 0.695652 3.92653 0.717391C4.2736 1.04348 4.49052 1.5 4.62068 1.97826C4.70744 2.32609 4.77252 2.67391 4.75083 3.04348H4.98944C5.03282 2.86957 5.05452 2.69565 5.07621 2.52174C5.0979 2.30435 5.0979 2.1087 5.05452 1.8913C5.03282 1.76087 4.98944 1.63044 4.96775 1.5C4.94606 1.45652 4.94606 1.41304 4.92436 1.36957V1.26087C4.92436 1.19565 4.96775 1.15217 5.03282 1.15217C5.0979 1.15217 5.14128 1.19565 5.14128 1.26087V3.04348H6.94172L7.33217 2.63044V0.782609L7.13695 0.217391H7.15864C7.22371 0.217391 7.2671 0.173913 7.2671 0.108696C7.2671 0.0434783 7.22371 0 7.15864 0H4.98944C4.92436 0 4.88098 0.0434783 4.88098 0.108696C4.88098 0.173913 4.92436 0.217391 4.98944 0.217391H5.03282L4.77252 0.782609V1.06522C4.70744 0.956522 4.62068 0.869565 4.51222 0.782609C4.42545 0.695652 4.33868 0.608696 4.23022 0.565217C4.16514 0.521739 4.10007 0.5 4.0133 0.5C4.07838 0.434783 4.16515 0.391304 4.25191 0.326087C4.2953 0.304348 4.2953 0.26087 4.27361 0.217391C4.25191 0.173913 4.20853 0.152174 4.16515 0.173913C3.79638 0.391304 3.60115 0.695652 3.49269 0.891305C3.25408 0.804348 2.47317 0.586957 2.01764 1.45652C1.97426 1.58696 1.95256 1.71739 1.90918 1.82609L3.03716 3.04348Z" fill="#353535"/>
<path d="M2.23421 4.19551C2.45113 4.41291 2.75482 4.45638 2.92836 4.26073C3.10189 4.06508 3.0802 3.73899 2.86328 3.49986L1.25808 1.73899C1.04116 1.5216 0.737468 1.47812 0.563933 1.67377C0.390397 1.86943 0.412089 2.19551 0.629009 2.43464L2.23421 4.19551Z" fill="#353535"/>
<path d="M7.74441 4.19551L9.3713 2.43464C9.58822 2.21725 9.60992 1.86943 9.43638 1.67377C9.26284 1.47812 8.95916 1.5216 8.74224 1.73899L7.11534 3.49986C6.89842 3.71725 6.87673 4.06508 7.05026 4.26073C7.2238 4.43464 7.52749 4.4129 7.74441 4.19551Z" fill="#353535"/>
<path d="M9.39262 3.47852H8.95879L8.04772 4.47852C7.85249 4.69591 7.59219 4.8046 7.33189 4.8046C7.09328 4.8046 6.87636 4.71765 6.72451 4.54373C6.46421 4.26112 6.42082 3.84808 6.59436 3.47852H3.38395C3.55748 3.84808 3.5141 4.26112 3.2538 4.54373C3.10195 4.71765 2.88503 4.8046 2.64642 4.8046C2.38612 4.8046 2.12581 4.67417 1.93059 4.47852L1.01952 3.47852H0.585683C0.260304 3.47852 0 3.73938 0 4.06547C0 4.39156 0.260304 4.65243 0.585683 4.65243H0.867679L1.77874 9.58721C1.80043 9.8046 1.99566 10.0003 2.21258 10.0003H7.78742C8.00434 10.0003 8.19957 9.8046 8.22126 9.58721L9.11063 4.63069H9.41432C9.7397 4.63069 10 4.36982 10 4.04373C9.97831 3.73939 9.718 3.47852 9.39262 3.47852ZM3.14534 8.82634H2.60304V5.73939H3.16703V8.82634H3.14534ZM4.55531 8.82634H3.99132V5.73939H4.55531V8.82634ZM5.96529 8.82634H5.42299V5.73939H5.98699V8.82634H5.96529ZM7.37527 8.82634H6.81128V5.73939H7.37527V8.82634Z" fill="#353535"/>
</g>
<defs>
<clipPath id="clip0">
<rect width="10" height="10" fill="white"/>
</clipPath>
</defs>
</svg>
