<svg width="7" height="12" viewBox="0 0 7 12" fill="none" xmlns="http://www.w3.org/2000/svg">
<path d="M3.49974 3.20733C4.56645 3.20733 5.43037 4.08373 5.43037 5.1648C5.43037 6.2456 4.56645 7.12213 3.49974 7.12213C2.43381 7.12213 1.5691 6.24573 1.5691 5.1648C1.5691 4.08373 2.43381 3.20733 3.49974 3.20733ZM5.68932 4.6808C5.68932 3.2404 4.30763 2.1344 3.16937 2.07293C1.97311 2.00867 1.1814 2.66307 0.840642 3.5816C0.840642 3.5688 0.838801 3.55627 0.838801 3.5436C0.838801 2.05347 2.03046 0.846 3.49961 0.846C4.96941 0.846 6.16041 2.0536 6.16041 3.5436C6.16041 4.13627 5.96971 4.68307 5.64961 5.12867C5.67433 4.98267 5.68932 4.834 5.68932 4.6808ZM0.997276 4.38613C0.997276 3.3052 1.86133 2.42907 2.92791 2.42907C3.55524 2.42907 4.11115 2.7336 4.46387 3.20373C4.17335 3.0568 3.8468 2.97227 3.49987 2.97227C2.30545 2.97227 1.33724 3.9536 1.33724 5.1648C1.33724 5.29347 1.35066 5.418 1.37117 5.54067C1.13681 5.21627 0.997276 4.81827 0.997276 4.38613ZM1.53004 1.29853C1.86606 0.534 2.62096 0 3.49974 0C4.37931 0 5.13394 0.534 5.4697 1.29853C4.94771 0.821333 4.25831 0.528133 3.49974 0.528133C2.74129 0.528133 2.05229 0.821333 1.53004 1.29853ZM0.0228834 11.2361C0.00894308 11.1056 4.76837e-07 10.9735 4.76837e-07 10.8392C4.76837e-07 8.87933 1.567 7.2908 3.49974 7.2908C5.433 7.2908 7 8.87933 7 10.8392C7 10.9735 6.99093 11.1055 6.97659 11.2361H0.0228834ZM0.129411 11.4193H6.87046C6.94174 11.4193 7 11.4785 7 11.5503V11.8685C7 11.9411 6.94174 12 6.87046 12H0.129411C0.0581303 12 4.76837e-07 11.9411 4.76837e-07 11.8685V11.5503C4.76837e-07 11.4785 0.0581303 11.4193 0.129411 11.4193Z" fill="#353535"/>
</svg>
