<svg width="9" height="10" viewBox="0 0 9 10" fill="none" xmlns="http://www.w3.org/2000/svg">
<g clip-path="url(#clip0)">
<path d="M8.99974 1.67339C8.99974 0.947698 8.62248 0.318677 8.06861 0.000333344V2.11107H6.4298V0C5.87562 0.318344 5.49805 0.947365 5.49805 1.67306C5.49805 2.43841 5.91908 3.0961 6.52288 3.39478L6.17213 8.83529C6.17213 9.47865 6.65387 10 7.24905 10C7.84422 10 8.32659 9.47865 8.32659 8.83529C8.32659 8.83196 8.32566 8.82929 8.32566 8.82563L7.97521 3.39478C8.57933 3.09644 8.99974 2.43841 8.99974 1.67339ZM7.24905 9.48398C6.91432 9.48398 6.64278 9.19097 6.64278 8.82896C6.64278 8.46695 6.91432 8.17327 7.24905 8.17327C7.58347 8.17327 7.85501 8.46695 7.85501 8.82896C7.85501 9.19097 7.58347 9.48398 7.24905 9.48398Z" fill="#353535"/>
<path d="M3.7584 0.362632C3.63789 0.362632 3.46282 0.362632 3.20854 0.362632V0.0712891H2.131V0.4013C0.109685 0.69331 0.00982189 2.66871 0.00982189 2.66871C-0.0481236 3.03239 0.15561 3.3124 0.481399 2.97205C0.638592 2.4867 1.33425 1.83101 2.09771 1.83101C2.1088 1.83101 2.12021 1.83101 2.1313 1.83101V4.87745H2.1085C1.81137 4.87745 1.56973 5.13812 1.56973 5.46047V9.29626C1.56973 9.61794 1.81137 9.87895 2.1085 9.87895H3.23073C3.52847 9.87895 3.7695 9.61794 3.7695 9.29626V5.46047C3.7695 5.13812 3.52878 4.87745 3.23073 4.87745H3.20854V1.82635C3.42059 1.82501 3.61354 1.82335 3.7584 1.82168V2.09836H5.04923V0.0712891H3.7584V0.362632Z" fill="#353535"/>
</g>
<defs>
<clipPath id="clip0">
<rect width="9" height="10" fill="white"/>
</clipPath>
</defs>
</svg>
