<svg width="10" height="10" viewBox="0 0 10 10" fill="none" xmlns="http://www.w3.org/2000/svg">
<path fill-rule="evenodd" clip-rule="evenodd" d="M0.808971 0C0.364644 0 0 0.366148 0 0.810702V3.7586C0 4.20316 0.364644 4.5693 0.808971 4.5693H3.74809C4.19243 4.5693 4.55706 4.20315 4.55706 3.7586V0.810702C4.55706 0.366153 4.19243 0 3.74809 0H0.808971ZM0.808971 0.454555H3.74809C3.94454 0.454555 4.1025 0.612569 4.1025 0.810702V3.7586C4.1025 3.95674 3.94454 4.11475 3.74809 4.11475H0.808971C0.612535 4.11475 0.454555 3.95673 0.454555 3.7586V0.810702C0.454555 0.612574 0.612535 0.454555 0.808971 0.454555Z" fill="#353535"/>
<path d="M0.808971 0.454555H3.74809C3.94454 0.454555 4.1025 0.612569 4.1025 0.810702V3.7586C4.1025 3.95674 3.94454 4.11475 3.74809 4.11475H0.808971C0.612535 4.11475 0.454555 3.95673 0.454555 3.7586V0.810702C0.454555 0.612574 0.612535 0.454555 0.808971 0.454555Z" fill="#353535"/>
<path fill-rule="evenodd" clip-rule="evenodd" d="M6.25232 0C5.80868 0 5.44336 0.365617 5.44336 0.810702V3.7586C5.44336 4.20369 5.80868 4.5693 6.25232 4.5693H9.19258C9.63622 4.5693 10.0004 4.20315 10.0004 3.7586V0.810702C10.0004 0.366153 9.63622 0 9.19258 0H6.25232ZM6.25232 0.454555H9.19258C9.38745 0.454555 9.54589 0.612569 9.54589 0.810702V3.7586C9.54589 3.95674 9.38745 4.11475 9.19258 4.11475H6.25232C6.05745 4.11475 5.89791 3.9562 5.89791 3.7586V0.810702C5.89791 0.613105 6.05745 0.454555 6.25232 0.454555Z" fill="#353535"/>
<path d="M6.25232 0.454555H9.19258C9.38745 0.454555 9.54589 0.612569 9.54589 0.810702V3.7586C9.54589 3.95674 9.38745 4.11475 9.19258 4.11475H6.25232C6.05745 4.11475 5.89791 3.9562 5.89791 3.7586V0.810702C5.89791 0.613105 6.05745 0.454555 6.25232 0.454555Z" fill="#353535"/>
<path fill-rule="evenodd" clip-rule="evenodd" d="M0.808971 5.42969C0.364098 5.42969 0 5.79655 0 6.2404V9.18943C0 9.63329 0.364098 10.0001 0.808971 10.0001H3.74809C4.19297 10.0001 4.55706 9.63328 4.55706 9.18943V6.2404C4.55706 5.79655 4.19297 5.42969 3.74809 5.42969H0.808971ZM0.808971 5.88424H3.74809C3.944 5.88424 4.1025 6.04384 4.1025 6.2404V9.18943C4.1025 9.38599 3.944 9.54557 3.74809 9.54557H0.808971C0.613081 9.54557 0.454555 9.38598 0.454555 9.18943V6.2404C0.454555 6.04385 0.613081 5.88424 0.808971 5.88424Z" fill="#353535"/>
<path d="M0.808971 5.88424H3.74809C3.944 5.88424 4.1025 6.04384 4.1025 6.2404V9.18943C4.1025 9.38599 3.944 9.54557 3.74809 9.54557H0.808971C0.613081 9.54557 0.454555 9.38598 0.454555 9.18943V6.2404C0.454555 6.04385 0.613081 5.88424 0.808971 5.88424Z" fill="#353535"/>
<path fill-rule="evenodd" clip-rule="evenodd" d="M6.25232 5.42969C5.80814 5.42969 5.44336 5.79601 5.44336 6.2404V9.18943C5.44336 9.63381 5.80814 10.0001 6.25232 10.0001H9.19258C9.63676 10.0001 10.0004 9.63328 10.0004 9.18943V6.2404C10.0004 5.79655 9.63676 5.42969 9.19258 5.42969H6.25232ZM6.25232 5.88424H9.19258C9.38691 5.88424 9.54589 6.04384 9.54589 6.2404V9.18943C9.54589 9.38599 9.38691 9.54557 9.19258 9.54557H6.25232C6.05799 9.54557 5.89791 9.38544 5.89791 9.18943V6.2404C5.89791 6.04438 6.05799 5.88424 6.25232 5.88424Z" fill="#353535"/>
</svg>
