<svg width="10" height="12" viewBox="0 0 10 12" fill="none" xmlns="http://www.w3.org/2000/svg">
<g clip-path="url(#clip0)">
<path d="M3.13281 7.29759V7.40538V7.51316V10.8499H6.86686V7.51316V7.40538V7.29759V4.29688H3.13281V7.29759Z" fill="#353535"/>
<path d="M3.13281 11.5902C3.13281 11.8164 3.29692 12.0005 3.49868 12.0005H6.50112C6.70276 12.0005 6.86686 11.8164 6.86686 11.5902V11.0664H3.13281V11.5902ZM4.99984 11.2231C5.15638 11.2231 5.28359 11.3658 5.28359 11.5414C5.28359 11.717 5.15638 11.8597 4.99984 11.8597C4.84329 11.8597 4.71608 11.717 4.71608 11.5414C4.71608 11.3658 4.84329 11.2231 4.99984 11.2231Z" fill="#353535"/>
<path d="M6.50112 3.14746H3.49868C3.29692 3.14746 3.13281 3.33156 3.13281 3.55776V4.08159H6.86686V3.55776C6.86686 3.33156 6.70276 3.14746 6.50112 3.14746Z" fill="#353535"/>
<path d="M1.29297 7.29801H2.94119V3.55789C2.94119 3.21269 3.19151 2.93202 3.49922 2.93202H6.50165C6.80924 2.93202 7.05956 3.21284 7.05956 3.55789V7.29787H8.70829V0H1.29297V7.29801Z" fill="#353535"/>
<path d="M9.51428 0H8.90039V7.29787H9.51428C9.7824 7.29787 10.0006 7.05313 10.0006 6.75219V0.545533C10.0006 0.244742 9.7824 0 9.51428 0Z" fill="#353535"/>
<path d="M0 0.545533V6.75219C0 7.05313 0.218166 7.29787 0.486293 7.29787H1.10018V0H0.486293C0.218166 0 0 0.244742 0 0.545533ZM0.873687 3.64901C0.873687 3.8548 0.724571 4.02223 0.54125 4.02223C0.357674 4.02223 0.208301 3.8548 0.208301 3.64901C0.208301 3.44321 0.357674 3.27578 0.54125 3.27578C0.724571 3.27578 0.873687 3.44321 0.873687 3.64901Z" fill="#353535"/>
<path d="M0.540924 3.80651C0.618538 3.80651 0.681457 3.73593 0.681457 3.64886C0.681457 3.56179 0.618538 3.49121 0.540924 3.49121C0.463309 3.49121 0.400391 3.56179 0.400391 3.64886C0.400391 3.73593 0.463309 3.80651 0.540924 3.80651Z" fill="#353535"/>
<path d="M4.9998 11.643C5.05039 11.643 5.0914 11.597 5.0914 11.5403C5.0914 11.4835 5.05039 11.4375 4.9998 11.4375C4.94921 11.4375 4.9082 11.4835 4.9082 11.5403C4.9082 11.597 4.94921 11.643 4.9998 11.643Z" fill="#353535"/>
</g>
<defs>
<clipPath id="clip0">
<rect width="10" height="12" fill="white"/>
</clipPath>
</defs>
</svg>
