<svg width="12" height="8" viewBox="0 0 12 8" fill="none" xmlns="http://www.w3.org/2000/svg">
<path d="M4.594 0.602475C3.811 0.934583 2.95464 1.52854 2.19353 2.23648C2.77449 2.9153 3.26221 3.69401 3.62505 4.56334C4.09275 5.68392 4.30769 6.84734 4.30246 7.99194C5.42153 7.9121 6.54728 7.65696 7.38709 7.2945C7.80863 7.11256 8.25933 6.85944 8.70808 6.55704C8.88058 5.27178 8.72607 3.92431 8.18967 2.63914C7.77804 1.65291 7.18245 0.802176 6.46115 0.108186C5.77567 0.209418 5.12808 0.375953 4.594 0.602475ZM8.07232 0C8.58766 0.636131 9.02361 1.35399 9.35496 2.14791C9.81245 3.24402 10.0306 4.38159 10.0354 5.5022C11.3758 4.2573 12.354 2.70751 11.8777 1.5663C11.429 0.491176 9.80008 0.0202109 8.07232 0ZM1.31842 3.15639C0.3283 4.34185 -0.274993 5.66139 0.124997 6.61973C0.495979 7.50859 1.67555 7.91806 3.04638 8C3.05045 7.01822 2.86222 6.01886 2.45975 5.05454C2.16581 4.3503 1.77853 3.71484 1.31842 3.15639ZM4.75075 3.70608C4.7535 3.70473 4.75632 3.70353 4.7592 3.70247C4.7747 3.69634 4.79159 3.69465 4.80799 3.69757C4.82439 3.70049 4.83967 3.70792 4.85213 3.71903C4.97337 3.8236 5.06806 3.94864 5.13645 4.08602L5.39819 3.97569C5.34088 3.86446 5.26231 3.76291 5.16201 3.67639C5.15052 3.66684 5.14156 3.65457 5.13594 3.64069C5.13031 3.62682 5.1282 3.61175 5.12978 3.59685C5.13136 3.58195 5.13659 3.56768 5.145 3.5553C5.15342 3.54293 5.16475 3.53284 5.17798 3.52594C5.18074 3.52459 5.18356 3.52339 5.18643 3.52233C5.20194 3.5162 5.21882 3.5145 5.23523 3.51743C5.25163 3.52035 5.26691 3.52778 5.27937 3.53889C5.40061 3.64346 5.4953 3.76851 5.56368 3.90588L5.82542 3.79556C5.76811 3.68432 5.68955 3.58278 5.58924 3.49625C5.57775 3.4867 5.5688 3.47444 5.56317 3.46056C5.55755 3.44668 5.55543 3.43162 5.55701 3.41672C5.5586 3.40182 5.56383 3.38754 5.57224 3.37517C5.58065 3.3628 5.59198 3.35271 5.60522 3.34581C5.60797 3.34446 5.61079 3.34325 5.61367 3.34219C5.6292 3.33598 5.64614 3.33423 5.66261 3.33713C5.67908 3.34003 5.69442 3.34746 5.70693 3.35861C5.82816 3.46318 5.9226 3.58834 5.99092 3.72574L6.25265 3.6154C6.19535 3.50417 6.11678 3.40263 6.01647 3.31612C6.00497 3.30655 5.996 3.29426 5.99038 3.28035C5.98476 3.26644 5.98267 3.25134 5.98428 3.23642C5.9859 3.22149 5.99117 3.2072 5.99964 3.19483C6.0081 3.18246 6.01948 3.17239 6.03277 3.16553C6.03553 3.16418 6.03835 3.16297 6.04122 3.16191C6.05673 3.15579 6.07361 3.15409 6.09002 3.15701C6.10642 3.15994 6.12169 3.16736 6.13416 3.17847C6.25539 3.28305 6.34983 3.4082 6.41815 3.5456L6.67989 3.43527C6.62251 3.32406 6.54401 3.2225 6.44371 3.13599C6.4322 3.12642 6.42323 3.11412 6.41761 3.10021C6.41199 3.0863 6.4099 3.0712 6.41151 3.05628C6.41313 3.04135 6.41841 3.02707 6.42687 3.0147C6.43533 3.00233 6.44672 2.99225 6.46 2.98539C6.46276 2.98404 6.46558 2.98284 6.46846 2.98178C6.48396 2.97565 6.50085 2.97396 6.51725 2.97688C6.53365 2.9798 6.54893 2.98723 6.56139 2.99834C6.68263 3.10291 6.77732 3.22796 6.84571 3.36534L7.10744 3.255C7.05014 3.14377 6.97157 3.04222 6.87126 2.95571C6.85977 2.94616 6.85081 2.9339 6.84519 2.92002C6.83956 2.90614 6.83745 2.89108 6.83903 2.87618C6.84061 2.86127 6.84584 2.847 6.85425 2.83462C6.86267 2.82225 6.874 2.81216 6.88724 2.80526C6.88999 2.80391 6.89281 2.80271 6.89569 2.80165C6.91119 2.79552 6.92808 2.79382 6.94448 2.79675C6.96088 2.79967 6.97616 2.8071 6.98862 2.81821C7.10986 2.92278 7.20455 3.04782 7.27294 3.1852L7.39844 3.1323C7.44538 3.11251 7.49888 3.13377 7.51822 3.18018C7.53756 3.22651 7.5152 3.27981 7.46827 3.2996L7.34049 3.35346C7.38707 3.50174 7.40578 3.65977 7.39036 3.82198C7.38958 3.8341 7.38638 3.84593 7.38095 3.85678C7.37553 3.86763 7.368 3.87728 7.3588 3.88515C7.3496 3.89302 7.33892 3.89896 7.32739 3.90261C7.31586 3.90625 7.30373 3.90753 7.2917 3.90638C7.27967 3.90522 7.268 3.90166 7.25737 3.89588C7.24674 3.89011 7.23737 3.88225 7.22982 3.87277C7.22226 3.86329 7.21668 3.85238 7.2134 3.84069C7.21012 3.82901 7.20921 3.81678 7.21072 3.80473C7.22335 3.67186 7.20992 3.54365 7.17467 3.42337L6.91326 3.53357C6.95984 3.68185 6.97855 3.83988 6.96313 4.00208C6.96233 4.01419 6.95913 4.02602 6.9537 4.03686C6.94827 4.04771 6.94073 4.05735 6.93153 4.06521C6.92233 4.07307 6.91166 4.079 6.90014 4.08264C6.88861 4.08628 6.87648 4.08756 6.86446 4.0864C6.85244 4.08525 6.84077 4.08168 6.83014 4.07591C6.81952 4.07014 6.81015 4.06229 6.8026 4.05281C6.79505 4.04334 6.78947 4.03244 6.78619 4.02076C6.7829 4.00908 6.78199 3.99685 6.78349 3.98481C6.79611 3.85195 6.78242 3.72385 6.74711 3.6036L6.4857 3.7138C6.53221 3.86211 6.55099 4.02012 6.53557 4.18231C6.53479 4.19443 6.53159 4.20626 6.52617 4.21711C6.52074 4.22796 6.51321 4.23761 6.50401 4.24548C6.49481 4.25336 6.48413 4.25929 6.4726 4.26294C6.46108 4.26658 6.44894 4.26787 6.43691 4.26672C6.42488 4.26556 6.41321 4.26199 6.40258 4.25621C6.39195 4.25044 6.38258 4.24258 6.37503 4.2331C6.36748 4.22362 6.36189 4.21272 6.35861 4.20103C6.35533 4.18935 6.35442 4.17711 6.35593 4.16506C6.36856 4.03221 6.35513 3.90398 6.31988 3.78371L6.05847 3.8939C6.10498 4.04221 6.12376 4.20022 6.10834 4.36241C6.10754 4.37452 6.10434 4.38635 6.09891 4.3972C6.09348 4.40804 6.08595 4.41768 6.07675 4.42554C6.06754 4.43341 6.05687 4.43933 6.04535 4.44297C6.03382 4.44661 6.02169 4.4479 6.00967 4.44674C5.99765 4.44559 5.98598 4.44201 5.97535 4.43624C5.96473 4.43047 5.95536 4.42262 5.94781 4.41315C5.94026 4.40367 5.93468 4.39277 5.9314 4.38109C5.92811 4.36941 5.9272 4.35719 5.9287 4.34515C5.94133 4.21229 5.9279 4.08407 5.89265 3.9638L5.63124 4.074C5.67782 4.22229 5.69653 4.38031 5.68111 4.5425C5.68031 4.55461 5.6771 4.56644 5.67167 4.57728C5.66625 4.58812 5.65871 4.59776 5.64951 4.60562C5.64031 4.61348 5.62963 4.61941 5.61811 4.62305C5.60659 4.62669 5.59445 4.62797 5.58243 4.62681C5.57041 4.62565 5.55874 4.62209 5.54811 4.61632C5.53749 4.61055 5.52812 4.60269 5.52058 4.59321C5.51303 4.58374 5.50744 4.57284 5.50416 4.56116C5.50088 4.54948 5.49996 4.53725 5.50147 4.52521C5.51409 4.39235 5.50067 4.26414 5.46542 4.14387L5.204 4.25406C5.25059 4.40233 5.26929 4.56037 5.25388 4.72257C5.25282 4.7345 5.24944 4.7461 5.24391 4.75671C5.23838 4.76732 5.23082 4.77672 5.22166 4.78438C5.2125 4.79204 5.20193 4.7978 5.19055 4.80134C5.17916 4.80488 5.1672 4.80612 5.15534 4.80499C5.14347 4.80386 5.13195 4.80039 5.12143 4.79477C5.11091 4.78916 5.1016 4.7815 5.09403 4.77225C5.08646 4.763 5.08079 4.75235 5.07734 4.74089C5.07388 4.72943 5.07272 4.71739 5.07391 4.70548C5.08654 4.57262 5.07311 4.4444 5.03786 4.32412L4.79043 4.42842C4.84078 4.58111 4.86156 4.74448 4.8456 4.91238C4.84452 4.92429 4.84112 4.93588 4.83558 4.94646C4.83005 4.95705 4.82248 4.96642 4.81333 4.97406C4.80418 4.98171 4.79361 4.98746 4.78224 4.99099C4.77087 4.99451 4.75892 4.99574 4.74708 4.99462C4.73523 4.99349 4.72372 4.99003 4.71321 4.98443C4.7027 4.97882 4.69339 4.97118 4.68583 4.96195C4.67826 4.95272 4.67258 4.94208 4.66911 4.93064C4.66565 4.9192 4.66446 4.90719 4.66563 4.89529C4.67882 4.75649 4.66356 4.62314 4.62461 4.49836L4.46984 4.56359C4.42291 4.5834 4.36941 4.56171 4.35007 4.51571C4.33072 4.46939 4.35308 4.41608 4.40001 4.39629L4.55543 4.33077C4.49879 4.22533 4.42224 4.1293 4.32631 4.04656C4.3148 4.03699 4.30584 4.02469 4.30022 4.01078C4.29461 3.99687 4.29251 3.98179 4.29413 3.96686C4.29574 3.95194 4.30102 3.93765 4.30948 3.92528C4.31794 3.91291 4.32932 3.90284 4.34261 3.89598C4.34531 3.89454 4.34809 3.89325 4.35093 3.8921C4.36643 3.88597 4.38332 3.88427 4.39972 3.8872C4.41612 3.89012 4.4314 3.89755 4.44386 3.90866C4.56081 4.00952 4.65339 4.12926 4.72125 4.26088L4.97063 4.15577C4.91333 4.04453 4.83476 3.94299 4.73445 3.85648C4.72295 3.84691 4.71398 3.83462 4.70836 3.82071C4.70274 3.80679 4.70065 3.7917 4.70226 3.77678C4.70388 3.76185 4.70915 3.74757 4.71762 3.7352C4.72608 3.72283 4.73746 3.71275 4.75075 3.70589L4.75075 3.70608Z" fill="#353535"/>
</svg>
