<svg width="15" height="11" viewBox="0 0 15 11" fill="none" xmlns="http://www.w3.org/2000/svg">
<path d="M14.1389 4.4389H14.4581C14.5607 4.4389 14.6592 4.3981 14.7317 4.32547C14.8043 4.25285 14.8451 4.15435 14.8451 4.05164V3.24809C14.8451 3.14538 14.8043 3.04689 14.7317 2.97426C14.6592 2.90164 14.5607 2.86084 14.4581 2.86084C14.4033 2.72933 14.3264 2.60818 14.2308 2.50263C13.8148 2.0476 13.2633 2.16378 13.1569 1.86366C13.0505 1.56354 13.4471 1.43284 13.4471 1.00686C13.4342 0.750545 13.3292 0.507533 13.1514 0.322537C12.9737 0.13754 12.7351 0.0230034 12.4797 0C12.2227 0.0232551 11.9829 0.139172 11.8049 0.326174C11.6269 0.513176 11.5229 0.758521 11.5122 1.01654C11.5122 1.43284 11.9041 1.59742 11.8073 1.85398C11.7106 2.11053 11.1301 2.04276 10.7189 2.4639C10.6062 2.57837 10.516 2.71301 10.4529 2.86084C10.3503 2.86084 10.2518 2.90164 10.1793 2.97426C10.1067 3.04689 10.0659 3.14538 10.0659 3.24809V4.05164C10.0659 4.15435 10.1067 4.25285 10.1793 4.32547C10.2518 4.3981 10.3503 4.4389 10.4529 4.4389H10.7722C10.515 4.56509 10.2981 4.76065 10.146 5.00354C9.99384 5.24643 9.91251 5.527 9.91113 5.81365V10.2187C9.91113 10.4241 9.99267 10.6211 10.1378 10.7663C10.283 10.9116 10.4798 10.9932 10.6851 10.9932H14.2211C14.3231 10.9938 14.4243 10.9742 14.5188 10.9356C14.6132 10.897 14.6991 10.84 14.7715 10.768C14.8439 10.6961 14.9013 10.6105 14.9405 10.5162C14.9797 10.4219 14.9999 10.3208 14.9999 10.2187V5.81365C14.9985 5.527 14.9172 5.24643 14.765 5.00354C14.6129 4.76065 14.396 4.56509 14.1389 4.4389ZM14.2114 10.2235H10.6851V6.12345C10.6851 5.71391 10.8477 5.32114 11.137 5.03155C11.4264 4.74196 11.8189 4.57928 12.2282 4.57928H12.6683C13.0776 4.57928 13.4701 4.74196 13.7595 5.03155C14.0488 5.32114 14.2114 5.71391 14.2114 6.12345V10.2235Z" fill="#353535"/>
<path d="M8.75516 5.4358C8.72729 5.42838 8.69813 5.42713 8.66972 5.43215C8.64132 5.43717 8.61435 5.44832 8.5907 5.46484C7.83396 5.91219 6.99191 6.19582 6.11888 6.29744C5.29656 6.38457 5.15144 6.21998 5.09339 6.14737C4.8467 5.77948 5.61581 5.23249 5.57711 4.4241C5.5107 3.9351 5.27478 3.48499 4.91053 3.15233C4.54628 2.81967 4.07685 2.6256 3.58418 2.604C3.11273 2.59388 2.65143 2.7418 2.27366 3.02423C1.89589 3.30667 1.62333 3.7074 1.49935 4.1627C1.10472 4.38233 0.659301 4.49418 0.207811 4.48702C0.167157 4.49323 0.128816 4.50991 0.0965552 4.53543C-0.0485611 4.65645 -0.0147006 4.97109 0.0965552 5.16956C0.153904 5.25927 0.231854 5.33395 0.323904 5.38739C0.80742 5.60322 1.32815 5.72322 1.8573 5.74076C1.92567 5.78145 1.9847 5.8361 2.03054 5.90116C2.07639 5.96622 2.10801 6.04022 2.12335 6.11833C2.15721 6.48138 1.60093 6.68469 1.31553 7.04774C0.773765 7.72543 1.07367 9.0421 1.49451 9.67622C2.64093 11.3995 6.97507 11.6125 8.53749 9.27929C9.50493 7.82709 8.99218 5.96827 8.86158 5.54229C8.85185 5.51833 8.83742 5.49656 8.81914 5.47826C8.80086 5.45997 8.77911 5.44553 8.75516 5.4358ZM2.90697 4.84523C2.80045 4.8452 2.6963 4.81373 2.60755 4.75478C2.5188 4.69582 2.44938 4.61199 2.40798 4.51377C2.36659 4.41555 2.35504 4.30729 2.3748 4.20254C2.39455 4.09778 2.44473 4.00118 2.51905 3.92482C2.59337 3.84845 2.68855 3.7957 2.79267 3.77317C2.89678 3.75064 3.00523 3.75933 3.10444 3.79814C3.20365 3.83696 3.28923 3.90418 3.35047 3.99141C3.41171 4.07864 3.44589 4.18199 3.44874 4.28856C3.45068 4.36097 3.4381 4.43303 3.41174 4.50049C3.38539 4.56796 3.34579 4.62945 3.29528 4.68134C3.24478 4.73323 3.1844 4.77447 3.11771 4.80262C3.05101 4.83077 2.97936 4.84526 2.90697 4.84523Z" fill="#353535"/>
</svg>
