<svg width="60" height="60" viewBox="0 0 60 60" fill="none" xmlns="http://www.w3.org/2000/svg">
<g clip-path="url(#clip0)">
<path d="M29.1138 43.4302V45.4235C29.1138 46.2943 29.8197 47.0002 30.6905 47.0002C31.5612 47.0002 32.2671 46.2943 32.2671 45.4235V43.7774H30.285C29.8532 43.7774 29.4517 43.6489 29.1138 43.4302Z" fill="#CAAA3B"/>
<path d="M28.7734 19.3605C29.9497 19.3605 30.9516 18.6147 31.3325 17.5703H26.2144C26.5951 18.6147 27.5972 19.3605 28.7734 19.3605Z" fill="#CAAA3B"/>
<path d="M38.0171 34.8713H36.8311C36.8311 34.3958 36.8528 34.0795 36.7003 33.6099C36.4907 32.9646 36.0426 32.4263 35.4604 32.0987L35.4164 23.3222C35.4078 21.6162 34.013 20.1907 32.307 20.1907H32.0728L29.6497 24.9553V21.6431L30.2028 20.6769C30.3268 20.4605 30.1705 20.1909 29.921 20.1909H27.6242C27.3785 20.1909 27.2218 20.4532 27.3384 20.6695L27.8626 21.6431V24.9555L25.4758 20.1909H25.2391C23.533 20.1909 22.1382 21.6165 22.1297 23.3224L22.0811 32.9754C22.0775 33.7011 22.6627 34.2923 23.3885 34.296C23.3907 34.296 23.3929 34.296 23.3952 34.296C24.1178 34.296 24.7053 33.7121 24.709 32.9885L24.7576 23.3355C24.7584 23.1828 24.8902 23.0615 25.046 23.0776C25.1813 23.0915 25.279 23.2156 25.279 23.3517L25.2796 45.4235C25.2796 46.3196 26.0271 47.041 26.9325 46.9984C27.7806 46.9584 28.433 46.2279 28.433 45.3789V42.7263C28.2368 42.4008 28.1217 42.021 28.1217 41.6141V35.7732C28.1217 35.3662 28.2368 34.9865 28.433 34.661V33.1801C28.433 32.9957 28.571 32.8306 28.7552 32.8209C28.9515 32.8106 29.1139 32.9668 29.1139 33.1609V33.9572C29.4518 33.7386 29.8533 33.6101 30.2851 33.6101H31.6018C31.4491 34.0802 31.471 34.3984 31.471 34.8715H30.2851C29.7869 34.8715 29.3832 35.2753 29.3832 35.7734V41.6141C29.3832 42.1122 29.787 42.516 30.2852 42.516H38.0173C38.5154 42.516 38.9192 42.1122 38.9192 41.6141V35.7732C38.9189 35.2751 38.5152 34.8713 38.0171 34.8713ZM32.2432 32.5558C32.2415 32.5457 32.2405 32.5354 32.2386 32.5254V23.3369C32.2386 23.1853 32.3613 23.0623 32.5128 23.0619C32.6644 23.0614 32.7877 23.1838 32.7885 23.3354L32.8325 32.1039C32.6156 32.2271 32.4172 32.3793 32.2432 32.5558ZM35.0442 34.8188H33.2577C33.2577 34.4247 33.2354 34.2638 33.3574 34.0276C33.5781 34.1953 33.8525 34.2958 34.1508 34.2958C34.1529 34.2958 34.1553 34.2958 34.1574 34.2958C34.4535 34.2944 34.7253 34.1939 34.9442 34.0274C35.0667 34.264 35.0442 34.4254 35.0442 34.8188Z" fill="#CAAA3B"/>
<path d="M26.0502 16.3614H31.4192C31.9126 16.3614 32.3127 15.9614 32.3127 15.4679C32.3127 15.1567 32.1534 14.883 31.9122 14.723C31.852 14.2257 31.6769 13.7642 31.4135 13.3655C30.9514 12.6663 30.2193 12.1618 29.3654 12V13.5252C29.3654 13.8734 29.083 14.1558 28.7348 14.1558C28.3865 14.1558 28.1041 13.8734 28.1041 13.5252V12.0155C27.2834 12.1924 26.5814 12.6875 26.1333 13.3656C25.8785 13.7512 25.7063 14.1957 25.6408 14.6744C25.3535 14.823 25.1567 15.1222 25.1567 15.468C25.1566 15.9614 25.5567 16.3614 26.0502 16.3614Z" fill="#CAAA3B"/>
</g>
<circle cx="30" cy="30" r="29.5" stroke="#E6B712"/>
<defs>
<clipPath id="clip0">
<rect width="35" height="35" fill="white" transform="translate(13 12)"/>
</clipPath>
</defs>
</svg>
