<svg width="23" height="23" viewBox="0 0 23 23" fill="none" xmlns="http://www.w3.org/2000/svg">
<path d="M19.0801 10.8455C20.2745 10.8455 21.2427 9.87725 21.2427 8.68287C21.2427 7.4885 20.2745 6.52026 19.0801 6.52026C17.8857 6.52026 16.9175 7.4885 16.9175 8.68287C16.9175 9.87725 17.8857 10.8455 19.0801 10.8455Z" fill="#CAAA3B"/>
<path d="M3.91993 10.8455C5.11431 10.8455 6.08254 9.87725 6.08254 8.68287C6.08254 7.4885 5.11431 6.52026 3.91993 6.52026C2.72556 6.52026 1.75732 7.4885 1.75732 8.68287C1.75732 9.87725 2.72556 10.8455 3.91993 10.8455Z" fill="#CAAA3B"/>
<path d="M19.0801 12.3151C18.1043 12.3151 17.2126 12.6722 16.5269 13.2623C17.3048 14.1149 17.8431 15.1332 18.1084 16.2348H22.9998C22.9998 14.07 21.2449 12.3151 19.0801 12.3151Z" fill="#333333"/>
<path d="M11.5002 12.5105C8.55747 12.5105 6.17188 14.8961 6.17188 17.8389H16.8286C16.8286 14.8961 14.443 12.5105 11.5002 12.5105Z" fill="#333333"/>
<path d="M3.91972 12.3151C1.75491 12.3151 0 14.07 0 16.2348H4.89142C5.15664 15.1332 5.69501 14.1149 6.47293 13.2623C5.78718 12.6722 4.89544 12.3151 3.91972 12.3151Z" fill="#333333"/>
<path d="M11.4999 11.0407C13.1235 11.0407 14.4397 9.72452 14.4397 8.10092C14.4397 6.47732 13.1235 5.16113 11.4999 5.16113C9.87625 5.16113 8.56006 6.47732 8.56006 8.10092C8.56006 9.72452 9.87625 11.0407 11.4999 11.0407Z" fill="#CAAA3B"/>
</svg>
