<svg width="22" height="24" viewBox="0 0 22 24" fill="none" xmlns="http://www.w3.org/2000/svg">
<path d="M20.1922 5.61615L11.8882 0.816153C11.3602 0.504153 10.6882 0.504153 10.1602 0.816153L1.85619 5.61615C1.32819 5.92815 0.992188 6.50415 0.992188 7.10415V16.7042C0.992188 17.3282 1.32819 17.9042 1.85619 18.1922L10.1602 22.9922C10.4242 23.1362 10.7122 23.2322 11.0242 23.2322C11.3362 23.2322 11.6242 23.1602 11.8882 22.9922L20.1922 18.1922C20.7202 17.8802 21.0562 17.3042 21.0562 16.7042V7.10415C21.0562 6.50415 20.7202 5.92815 20.1922 5.61615ZM6.17619 16.2242C5.84019 16.2242 5.55219 15.9602 5.55219 15.6002V8.88015C5.55219 8.54415 5.81619 8.25615 6.17619 8.25615H8.55219V7.89615C8.55219 7.27215 9.05619 6.76815 9.68019 6.76815H12.1522C12.7762 6.76815 13.2802 7.27215 13.2802 7.89615V8.25615H15.6802C16.0162 8.25615 16.3042 8.52015 16.3042 8.88015V11.5442C15.7522 11.0642 15.0322 10.7762 14.2402 10.7762C12.5122 10.7762 11.1202 12.1682 11.1202 13.8962C11.1202 14.8082 11.5042 15.6482 12.1522 16.2242H6.17619ZM14.2402 16.5362C12.8002 16.5362 11.6242 15.3602 11.6242 13.9202C11.6242 12.4802 12.8002 11.2802 14.2402 11.2802C15.6802 11.2802 16.8562 12.4562 16.8562 13.8962C16.8562 15.3362 15.7042 16.5362 14.2402 16.5362Z" fill="#CAAA3B"/>
</svg>
