<svg width="18" height="18" viewBox="0 0 18 18" fill="none" xmlns="http://www.w3.org/2000/svg">
<path d="M17.9696 5.62324C17.7086 2.73064 15.6602 0.631836 13.0988 0.631836C12.2608 0.637989 11.4389 0.86149 10.7132 1.28048C9.98752 1.69948 9.38301 2.29962 8.95877 3.02224C8.55509 2.29992 7.96665 1.6979 7.25372 1.27786C6.5408 0.857827 5.72902 0.63487 4.90156 0.631836C2.34016 0.631836 0.291763 2.73064 0.0307631 5.62144C0.00916306 5.74924 -0.0754369 6.42244 0.180163 7.51864C0.569207 9.12582 1.43884 10.5763 2.67316 11.6766L8.94617 17.3682L15.3254 11.6766C16.5604 10.5765 17.4306 9.12604 17.8202 7.51864C18.0758 6.42244 17.9912 5.75104 17.9696 5.62324Z" fill="#DB4437" fill-opacity="0.7"/>
</svg>
