<svg width="12" height="18" viewBox="0 0 12 18" fill="none" xmlns="http://www.w3.org/2000/svg">
<path d="M1.32293 8.98556L1.32285 8.98542C0.761829 8.03708 0.5 7.30335 0.5 6.12C0.5 2.83182 2.94772 0.619995 6 0.619995C9.05228 0.619995 11.5 2.83182 11.5 6.12C11.5 7.30336 11.2382 8.03705 10.6772 8.98541L10.6771 8.98556L6 16.8974L1.32293 8.98556ZM9.38 6.12C9.38 4.25328 7.86672 2.74 6 2.74C4.13328 2.74 2.62 4.25328 2.62 6.12C2.62 7.98668 4.13328 9.5 6 9.5C7.86672 9.5 9.38 7.98668 9.38 6.12Z" fill="#333333" stroke="#CAAA3B"/>
</svg>
