<svg width="60" height="60" viewBox="0 0 60 60" fill="none" xmlns="http://www.w3.org/2000/svg">
<path d="M23.1914 38.8101L24.7179 44.1881C24.7743 44.3901 24.9575 44.531 25.1688 44.531H33.83C34.0414 44.531 34.2246 44.3901 34.281 44.1881L35.8075 38.8101C34.0085 40.0313 31.8338 40.7452 29.4994 40.7452C27.165 40.7452 24.9903 40.0313 23.1914 38.8101Z" fill="#CAAA3B"/>
<path d="M35.8075 20.1912L34.281 14.8085C34.2246 14.6065 34.0414 14.4703 33.83 14.4703H25.1688C24.9575 14.4703 24.7743 14.6065 24.7179 14.8085L23.1914 20.1912C24.9903 18.97 27.165 18.2513 29.4994 18.2513C31.8338 18.2513 34.0085 18.97 35.8075 20.1912Z" fill="#CAAA3B"/>
<path d="M29.4994 19.1918C23.8273 19.1918 19.1914 23.8146 19.1914 29.4998C19.1914 35.1888 23.8311 39.8078 29.4994 39.8078C35.1418 39.8078 39.8074 35.2179 39.8074 29.4998C39.8074 23.7939 35.1517 19.1918 29.4994 19.1918ZM37.8295 33.767L36.6092 33.0625C36.3837 32.9324 36.0972 33.0099 35.9676 33.2344C35.8379 33.4594 35.915 33.7463 36.1395 33.876L37.3593 34.58C36.6388 35.6914 35.6909 36.6387 34.5796 37.3597L33.8755 36.1399C33.7454 35.9154 33.4589 35.8374 33.2339 35.968C33.0094 36.0976 32.9324 36.3851 33.062 36.6096L33.7666 37.8299C32.6172 38.4212 31.3312 38.7768 29.9691 38.8449V37.4386C29.9691 37.1794 29.7587 36.9689 29.4994 36.9689C29.2401 36.9689 29.0297 37.1794 29.0297 37.4386V38.8449C27.6676 38.7768 26.382 38.4217 25.2327 37.8304L25.9372 36.6101C26.0668 36.3851 25.9898 36.0981 25.7653 35.9685C25.5394 35.8384 25.2533 35.9159 25.1237 36.1404L24.4196 37.3602C23.3083 36.6397 22.3605 35.6918 21.6399 34.5805L22.8597 33.8764C23.0847 33.7468 23.1613 33.4594 23.0316 33.2348C22.9015 33.0103 22.6146 32.9328 22.39 33.0629L21.1698 33.7675C20.5784 32.6181 20.2233 31.3326 20.1552 29.97H21.5615C21.8208 29.97 22.0312 29.7595 22.0312 29.5003C22.0312 29.241 21.8208 29.0306 21.5615 29.0306H20.1552C20.2233 27.6685 20.5784 26.3829 21.1698 25.2335L22.39 25.9381C22.6164 26.0682 22.9025 25.9893 23.0316 25.7662C23.1613 25.5412 23.0843 25.2542 22.8597 25.1246L21.6399 24.4205C22.3605 23.3092 23.3083 22.3613 24.4196 21.6408L25.1237 22.8606C25.2528 23.0842 25.5394 23.1627 25.7653 23.0325C25.9898 22.9029 26.0668 22.6155 25.9372 22.3909L25.2327 21.1707C26.382 20.5793 27.6676 20.2242 29.0297 20.1561V21.5624C29.0297 21.8217 29.2401 22.0321 29.4994 22.0321C29.7587 22.0321 29.9691 21.8217 29.9691 21.5624V20.1561C31.3312 20.2242 32.6172 20.5793 33.7666 21.1707L33.062 22.3909C32.9324 22.6159 33.0094 22.9029 33.2339 23.0325C33.4603 23.1627 33.7464 23.0837 33.8755 22.8606L34.5796 21.6408C35.6909 22.3613 36.6388 23.3092 37.3593 24.4205L36.1395 25.1246C35.9145 25.2542 35.8379 25.5417 35.9676 25.7662C36.0967 25.9898 36.3833 26.0682 36.6092 25.9381L37.8295 25.2335C38.4208 26.3829 38.7759 27.6685 38.844 29.0306H37.4377C37.1785 29.0306 36.968 29.241 36.968 29.5003C36.968 29.7595 37.1785 29.97 37.4377 29.97H38.844C38.7764 31.3316 38.4208 32.6177 37.8295 33.767Z" fill="#CAAA3B"/>
<path d="M29.4994 26.2381C30.2692 26.2381 30.8953 26.8642 30.8953 27.634C30.8953 27.8933 31.1058 28.1037 31.365 28.1037C31.6243 28.1037 31.8347 27.8933 31.8347 27.634C31.8347 26.5072 31.0325 25.5641 29.9691 25.3461V24.5805C29.9691 24.3213 29.7587 24.1108 29.4994 24.1108C29.2401 24.1108 29.0297 24.3213 29.0297 24.5805V25.3461C27.9663 25.5641 27.1641 26.5072 27.1641 27.634C27.1641 28.9215 28.2115 29.9694 29.4994 29.9694C30.2692 29.9694 30.8953 30.5955 30.8953 31.3653C30.8953 32.1351 30.2688 32.7613 29.4994 32.7613C28.73 32.7613 28.1035 32.1351 28.1035 31.3653C28.1035 31.106 27.893 30.8956 27.6338 30.8956C27.3745 30.8956 27.1641 31.106 27.1641 31.3653C27.1641 32.4921 27.9663 33.4353 29.0297 33.6532V34.4188C29.0297 34.6781 29.2401 34.8885 29.4994 34.8885C29.7587 34.8885 29.9691 34.6781 29.9691 34.4188V33.6532C31.0325 33.4353 31.8347 32.4921 31.8347 31.3653C31.8347 30.0774 30.7873 29.03 29.4994 29.03C28.7296 29.03 28.1035 28.4039 28.1035 27.634C28.1035 26.8642 28.7296 26.2381 29.4994 26.2381Z" fill="#CAAA3B"/>
<path d="M36.2386 21.7091L34.2828 14.8107C34.2255 14.6087 34.0409 14.4692 33.831 14.4692H25.1688C24.9589 14.4692 24.7743 14.6087 24.717 14.8107L22.7616 21.7091C20.5475 23.6269 19.1924 26.4376 19.1924 29.4995C19.1924 32.5606 20.546 35.3708 22.7611 37.2899L24.717 44.1884C24.7743 44.3903 24.9589 44.5298 25.1688 44.5298H33.8314C34.0414 44.5298 34.226 44.3903 34.2833 44.1884L36.2391 37.2895C38.4537 35.3708 39.8079 32.5615 39.8079 29.4995C39.8079 26.4376 38.4532 23.6274 36.2386 21.7091ZM25.5234 15.4086H33.4759L35.001 20.789C33.3777 19.7599 31.4844 19.1916 29.4994 19.1916C27.5037 19.1916 25.6113 19.766 23.9983 20.789L25.5234 15.4086ZM33.4763 43.5905H25.5234L23.9979 38.2101C24.1064 38.2786 24.2158 38.3453 24.3266 38.4102C25.4539 39.1471 27.4849 39.808 29.4994 39.808C31.5107 39.808 33.4007 39.2246 35.0014 38.2101L33.4763 43.5905ZM34.5801 37.3595L33.876 36.1396C33.7459 35.9151 33.4594 35.8372 33.2344 35.9677C33.0099 36.0974 32.9329 36.3848 33.0625 36.6093L33.7671 37.8296C32.6177 38.421 31.3317 38.7765 29.9696 38.8446V37.4384C29.9696 37.1791 29.7592 36.9687 29.4999 36.9687C29.2406 36.9687 29.0302 37.1791 29.0302 37.4384V38.8446C27.6681 38.7765 26.3825 38.4214 25.2332 37.8301L25.9377 36.6098C26.0673 36.3848 25.9903 36.0978 25.7658 35.9682C25.5399 35.8381 25.2538 35.9156 25.1242 36.1401L24.4201 37.3599C23.3088 36.6394 22.361 35.6916 21.6404 34.5803L22.8602 33.8762C23.0852 33.7465 23.1618 33.4591 23.0322 33.2346C22.902 33.0101 22.6151 32.9326 22.3905 33.0627L21.1703 33.7672C20.5789 32.6179 20.2238 31.3323 20.1557 29.9697H21.562C21.8213 29.9697 22.0317 29.7593 22.0317 29.5C22.0317 29.2407 21.8213 29.0303 21.562 29.0303H20.1557C20.2238 27.6682 20.5789 26.3826 21.1703 25.2333L22.3905 25.9378C22.6169 26.0679 22.903 25.989 23.0322 25.7659C23.1618 25.5409 23.0848 25.254 22.8602 25.1243L21.6404 24.4202C22.361 23.3089 23.3088 22.3611 24.4201 21.6406L25.1242 22.8604C25.2534 23.084 25.5399 23.1624 25.7658 23.0323C25.9903 22.9026 26.0673 22.6152 25.9377 22.3907L25.2332 21.1704C26.3825 20.5791 27.6681 20.224 29.0302 20.1559V21.5621C29.0302 21.8214 29.2406 22.0318 29.4999 22.0318C29.7592 22.0318 29.9696 21.8214 29.9696 21.5621V20.1559C31.3317 20.224 32.6177 20.5791 33.7671 21.1704L33.0625 22.3907C32.9329 22.6157 33.0099 22.9026 33.2344 23.0323C33.4608 23.1624 33.7469 23.0835 33.876 22.8604L34.5801 21.6406C35.6914 22.3611 36.6393 23.3089 37.3598 24.4202L36.14 25.1243C35.915 25.254 35.8384 25.5414 35.9681 25.7659C36.0972 25.9895 36.3838 26.0679 36.6097 25.9378L37.83 25.2333C38.4213 26.3826 38.7764 27.6682 38.8445 29.0303H37.4382C37.179 29.0303 36.9685 29.2407 36.9685 29.5C36.9685 29.7593 37.179 29.9697 37.4382 29.9697H38.8445C38.7764 31.3318 38.4213 32.6179 37.83 33.7672L36.6097 33.0627C36.3842 32.9326 36.0977 33.0101 35.9681 33.2346C35.8384 33.4596 35.9155 33.7465 36.14 33.8762L37.3598 34.5803C36.6393 35.6911 35.6914 36.6389 34.5801 37.3595Z" fill="#CAAA3B"/>
<path d="M29.4994 26.2381C30.2692 26.2381 30.8953 26.8642 30.8953 27.634C30.8953 27.8933 31.1058 28.1037 31.365 28.1037C31.6243 28.1037 31.8347 27.8933 31.8347 27.634C31.8347 26.5072 31.0325 25.5641 29.9691 25.3461V24.5805C29.9691 24.3213 29.7587 24.1108 29.4994 24.1108C29.2401 24.1108 29.0297 24.3213 29.0297 24.5805V25.3461C27.9663 25.5641 27.1641 26.5072 27.1641 27.634C27.1641 28.9215 28.2115 29.9694 29.4994 29.9694C30.2692 29.9694 30.8953 30.5955 30.8953 31.3653C30.8953 32.1351 30.2688 32.7613 29.4994 32.7613C28.73 32.7613 28.1035 32.1351 28.1035 31.3653C28.1035 31.106 27.893 30.8956 27.6338 30.8956C27.3745 30.8956 27.1641 31.106 27.1641 31.3653C27.1641 32.4921 27.9663 33.4353 29.0297 33.6532V34.4188C29.0297 34.6781 29.2401 34.8885 29.4994 34.8885C29.7587 34.8885 29.9691 34.6781 29.9691 34.4188V33.6532C31.0325 33.4353 31.8347 32.4921 31.8347 31.3653C31.8347 30.0774 30.7873 29.03 29.4994 29.03C28.7296 29.03 28.1035 28.4039 28.1035 27.634C28.1035 26.8642 28.7296 26.2381 29.4994 26.2381Z" fill="#CAAA3B"/>
<circle cx="30" cy="30" r="29.5" stroke="#E6B712"/>
</svg>
