<svg width="16" height="24" viewBox="0 0 16 24" fill="none" xmlns="http://www.w3.org/2000/svg">
<path d="M2.49401 21.239C2.9502 20.4858 3.48033 19.6166 4.04498 18.6976L4.04523 18.6972C5.21384 16.7922 5.9899 15.5173 6.47418 14.7024C6.71571 14.296 6.88856 13.9976 7.00221 13.7901C7.05839 13.6876 7.10541 13.5977 7.14008 13.5236C7.15706 13.4873 7.1763 13.4437 7.19271 13.3981C7.19298 13.3974 7.19331 13.3965 7.19367 13.3955C7.20322 13.3692 7.24311 13.2594 7.24311 13.1243C7.24311 12.7754 7.06753 12.509 6.90211 12.3351L6.89602 12.3286L6.88977 12.3224L6.74145 12.1741L6.53642 11.969H6.24647H4.54824C3.63783 11.969 3.21082 11.964 2.97332 11.9371C2.91492 11.9304 2.8828 11.9238 2.86784 11.9201C2.86532 11.918 2.86225 11.9155 2.85857 11.9124C2.85622 11.9085 2.85283 11.9025 2.84869 11.894C2.83445 11.8648 2.81974 11.8229 2.81014 11.774C2.8005 11.7249 2.7988 11.683 2.80083 11.6552C2.80089 11.6544 2.80095 11.6536 2.80101 11.6528C2.81162 11.6363 2.83104 11.6061 2.8631 11.5578C2.9221 11.4689 3.00547 11.3456 3.11069 11.1915C3.32079 10.8839 3.61294 10.4613 3.96049 9.96146C4.6553 8.96218 5.56826 7.65907 6.48176 6.36118C7.39526 5.0633 8.30856 3.7717 9.00403 2.79544C9.35192 2.30708 9.64443 1.89887 9.85491 1.60858C9.9604 1.4631 10.0438 1.34937 10.1026 1.27069C10.1254 1.24015 10.1432 1.21673 10.1563 1.19971C10.2615 1.11135 10.415 1.02183 10.5308 0.974772C10.556 0.97343 10.588 0.971978 10.6273 0.970477C10.7463 0.965925 10.9142 0.961534 11.1202 0.957716C11.5314 0.950099 12.0832 0.944966 12.6756 0.944966H12.6764L12.6772 0.944964L14.6554 0.940368L14.7007 0.966862L14.7017 0.96744C14.7027 0.968237 14.7041 0.969339 14.7059 0.970778C14.7144 0.97762 14.7261 0.988032 14.7392 1.0013C14.7523 1.01449 14.7636 1.02735 14.7721 1.03793C14.7723 1.03819 14.7725 1.03845 14.7727 1.0387C14.7757 1.04683 14.7791 1.05791 14.7824 1.07184C14.7894 1.10134 14.7939 1.13622 14.7946 1.17195C14.7953 1.20804 14.7919 1.23604 14.7883 1.25287C14.786 1.25631 14.7828 1.26095 14.7789 1.26683C14.7567 1.29975 14.7082 1.37173 14.6259 1.49211C14.5147 1.65476 14.3594 1.8806 14.171 2.15362C13.7943 2.69946 13.2871 3.43152 12.7401 4.21881L12.7398 4.21919C11.6522 5.78668 10.691 7.18459 10.6045 7.31446L10.5988 7.32295L10.5934 7.33159C10.4207 7.60807 10.2998 7.95485 10.366 8.33228C10.4339 8.72001 10.6749 9.00411 10.9532 9.19263L10.9538 9.19301L10.9585 9.19621C11.009 9.2304 11.1124 9.30038 11.2632 9.34825C11.3988 9.39127 11.5384 9.40626 11.6717 9.41458C11.929 9.43066 12.3685 9.43066 13.1555 9.43065H13.2127C13.99 9.43065 14.3971 9.43345 14.6343 9.44573C14.7512 9.45178 14.8006 9.45907 14.8196 9.46282C14.825 9.46388 14.8187 9.46185 14.8232 9.46394L14.8261 9.46525L14.8289 9.46654C14.8649 9.48267 14.9127 9.52722 14.9355 9.60888C14.9521 9.66827 14.9467 9.7154 14.9354 9.74702C14.911 9.77064 14.8789 9.80143 14.8388 9.8396C14.7356 9.93775 14.5862 10.0785 14.3948 10.2579C14.0124 10.6163 13.4665 11.125 12.797 11.7468C11.4584 12.9902 9.62816 14.6838 7.62898 16.5271L2.49401 21.239ZM2.49401 21.239C3.65462 20.1819 5.32122 18.6518 7.62888 16.5272L2.49401 21.239ZM14.979 9.7042C14.9868 9.69635 14.9852 9.69757 14.9784 9.70484C14.9786 9.70461 14.9788 9.7044 14.979 9.7042ZM10.1748 1.17616C10.1789 1.17142 10.1813 1.16845 10.1817 1.16794C10.182 1.16737 10.1799 1.16981 10.1748 1.17616ZM2.8029 11.6378C2.80312 11.637 2.8032 11.6366 2.80319 11.6366C2.80318 11.6366 2.80307 11.637 2.8029 11.6378Z" fill="#333333" stroke="#CAAA3B" stroke-width="14"/>
</svg>
