<svg width="60" height="60" viewBox="0 0 60 60" fill="none" xmlns="http://www.w3.org/2000/svg">
<g clip-path="url(#clip0)">
<path fill-rule="evenodd" clip-rule="evenodd" d="M29.9493 15.8114C29.9251 15.8138 29.9011 15.8173 29.8773 15.8221C29.7408 15.8428 29.6134 15.903 29.5106 15.9951C29.507 15.9986 29.5035 16.0022 29.4999 16.0058C29.4327 16.054 28.1614 16.9648 26.2267 17.9357C24.2417 18.9311 21.6575 19.9063 19.373 19.9063H18.666V30.0499C18.666 35.2297 21.4846 38.7943 24.2455 40.9945C27.0065 43.1946 29.778 44.1155 29.778 44.1155L29.9981 44.1889L30.2221 44.1155C30.2221 44.1155 32.9937 43.1946 35.7546 40.9945C38.5156 38.7943 41.3341 35.2297 41.3341 30.0499V19.9063H40.6216C38.3371 19.9063 35.7571 18.931 33.7721 17.9349C31.8241 16.9573 30.528 16.0256 30.4781 15.9898C30.3727 15.8959 30.2416 15.8357 30.1018 15.8168C30.0982 15.8168 30.0946 15.8168 30.0911 15.8168C30.0699 15.8141 30.0487 15.8122 30.0273 15.8114C30.0238 15.8114 30.0202 15.8114 30.0166 15.8114C29.9941 15.8103 29.9715 15.8103 29.9489 15.8114H29.9493ZM29.9991 22.9003C30.9293 22.9003 31.8504 23.0835 32.7098 23.4395C33.5691 23.7954 34.35 24.3172 35.0077 24.975C35.6655 25.6327 36.1873 26.4136 36.5432 27.2729C36.8992 28.1323 37.0824 29.0534 37.0824 29.9836C37.0824 31.8622 36.3361 33.6639 35.0077 34.9923C33.6794 36.3206 31.8777 37.067 29.9991 37.067C29.0689 37.067 28.1478 36.8837 27.2884 36.5277C26.429 36.1718 25.6481 35.65 24.9904 34.9923C24.3326 34.3345 23.8109 33.5537 23.4549 32.6943C23.0989 31.8349 22.9157 30.9138 22.9157 29.9836C22.9157 29.0534 23.0989 28.1323 23.4549 27.2729C23.8109 26.4136 24.3326 25.6327 24.9904 24.975C25.6481 24.3172 26.429 23.7954 27.2884 23.4395C28.1478 23.0835 29.0689 22.9002 29.9991 22.9003V22.9003ZM33.8769 26.4364C33.6007 26.4437 33.3382 26.5584 33.1451 26.756L28.9407 30.9659L26.8544 28.8796C26.7561 28.7787 26.6387 28.6983 26.5091 28.6432C26.3795 28.588 26.2401 28.5592 26.0992 28.5583C25.9584 28.5575 25.8187 28.5847 25.6884 28.6383C25.5581 28.692 25.4398 28.771 25.3403 28.8708C25.2409 28.9705 25.1622 29.089 25.1089 29.2195C25.0557 29.3499 25.0289 29.4896 25.0301 29.6305C25.0313 29.7714 25.0605 29.9107 25.116 30.0401C25.1715 30.1696 25.2522 30.2868 25.3534 30.3848L28.1881 33.2195C28.3873 33.4179 28.6569 33.5293 28.938 33.5293C29.219 33.5293 29.4886 33.4179 29.6878 33.2195L34.6447 28.257C34.7967 28.1078 34.9004 27.9164 34.9422 27.7075C34.9841 27.4987 34.9622 27.2821 34.8794 27.0859C34.7967 26.8896 34.6568 26.7227 34.4781 26.6069C34.2993 26.4911 34.0899 26.4317 33.8769 26.4364V26.4364Z" fill="#CAAA3B"/>
</g>
<circle cx="30" cy="30" r="29.5" stroke="#E6B712"/>
<defs>
<clipPath id="clip0">
<rect width="34" height="42.5" fill="white" transform="translate(13 13)"/>
</clipPath>
</defs>
</svg>
