<svg width="16px" height="16px" viewBox="0 0 15 17" fill="none" xmlns="http://www.w3.org/2000/svg">
<path d="M0 8.09375C0 8.96624 0.59877 9.69318 1.40625 9.90283V16.0625H0.46875C0.210557 16.0625 0 16.2721 0 16.5312C0 16.7904 0.210586 17 0.46875 17H14.5312C14.7913 17 15 16.7904 15 16.5312C15 16.2721 14.7913 16.0625 14.5312 16.0625H13.5938V9.90283C14.4012 9.69318 15 8.96624 15 8.09375V7.625H0V8.09375ZM9.375 9.96875C10.4114 9.96875 11.25 9.12922 11.25 8.09375C11.25 8.96624 11.8488 9.69318 12.6562 9.90283V16.0625H5.625V9.96875C6.66138 9.96875 7.5 9.12922 7.5 8.09375C7.5 9.12922 8.34047 9.96875 9.375 9.96875ZM5.15625 9.90283V16.0625H2.34375V9.90283C3.15126 9.69318 3.75 8.96624 3.75 8.09375C3.75 8.96624 4.34877 9.69318 5.15625 9.90283ZM13.125 3.40625C13.1799 4.72835 13.3297 5.22158 12.5 5.22158C11.6703 5.22158 11.9224 4.66268 11.826 3.40625H1.875L0 7.15625H15L14.0625 5.28125L13.125 3.40625ZM3.96059 4.44813L3.02309 6.32313C2.98096 6.40555 2.89857 6.45315 2.8125 6.45315C2.7777 6.45315 2.74201 6.44583 2.70811 6.42843C2.59274 6.37074 2.54514 6.22977 2.60373 6.11439L3.54123 4.23939C3.59982 4.12402 3.73989 4.07735 3.85526 4.1341C3.97157 4.19179 4.01733 4.33276 3.96059 4.44813ZM5.83559 4.44813L4.89809 6.32313C4.85596 6.40555 4.77357 6.45315 4.6875 6.45315C4.6527 6.45315 4.61701 6.44583 4.58312 6.42843C4.46774 6.37074 4.42014 6.22977 4.47873 6.11439L5.41623 4.23939C5.47482 4.12402 5.61583 4.07735 5.73026 4.1341C5.84657 4.19179 5.89233 4.33276 5.83559 4.44813ZM7.73437 6.21875C7.73437 6.34877 7.63002 6.45312 7.5 6.45312C7.37092 6.45312 7.26562 6.34874 7.26562 6.21875V4.34375C7.26562 4.21373 7.37092 4.10938 7.5 4.10938C7.63002 4.10938 7.73437 4.21376 7.73437 4.34375V6.21875ZM10.426 6.42383C10.3894 6.44398 10.351 6.45312 10.3125 6.45312C10.2301 6.45312 10.1496 6.40918 10.1074 6.33137L9.08203 4.45637C9.01978 4.34284 9.06187 4.20002 9.17543 4.13867C9.28714 4.07642 9.43178 4.1167 9.49403 4.23113L10.5194 6.10613C10.5798 6.21966 10.5396 6.36248 10.426 6.42383ZM12.2919 6.4284C12.2589 6.4458 12.2241 6.45312 12.1875 6.45312C12.1014 6.45312 12.019 6.40552 11.9788 6.32311L11.0413 4.44811C10.9827 4.33273 11.0303 4.19176 11.1456 4.13407C11.2591 4.07639 11.402 4.12309 11.4606 4.23937L12.3981 6.11437C12.4548 6.22974 12.409 6.37074 12.2919 6.4284ZM3.98437 13.3214V12.2411C3.84703 12.1587 3.75 12.0159 3.75 11.8438C3.75 11.5847 3.96059 11.375 4.21875 11.375C4.47876 11.375 4.6875 11.5847 4.6875 11.8438C4.6875 12.0159 4.59138 12.1587 4.45312 12.2411V13.3214C4.59138 13.4038 4.6875 13.5467 4.6875 13.7188C4.6875 13.9779 4.47876 14.1875 4.21875 14.1875C3.96056 14.1875 3.75 13.9779 3.75 13.7188C3.75 13.5466 3.84706 13.4038 3.98437 13.3214ZM8.21596 12.4782L7.88455 12.1468L9.21023 10.8211L9.54164 11.1525L8.21596 12.4782ZM8.21596 13.8039L7.88455 13.4725L10.5359 10.8211L10.8673 11.1525L9.54164 12.4782L8.21596 13.8039ZM10.5359 12.1468L10.8673 12.4782L9.54161 13.8039L9.21021 13.4725L10.5359 12.1468Z" fill="#FFFFFF"/>
<path d="M1.875 2.46875C1.875 2.20965 2.08559 2 2.34375 2H9.72145C9.4009 2.37104 9.40406 2.5704 9.72145 2.9375H2.34375C2.08559 2.9375 1.875 2.72785 1.875 2.46875Z" fill="#FFFFFF"/>
<path d="M14.7287 2.15115H12.8488V0.271317C12.8488 0.185683 12.7325 0 12.5 0C12.2674 0 12.1512 0.185693 12.1512 0.271317V2.15116H10.2713C10.1857 2.15115 10 2.26743 10 2.49998C10 2.73253 10.1857 2.84882 10.2713 2.84882H12.1512V4.72866C12.1512 4.81428 12.2674 4.99998 12.5 4.99998C12.7326 4.99998 12.8488 4.81428 12.8488 4.72866V2.84882H14.7287C14.8143 2.84882 15 2.73255 15 2.49998C15 2.26741 14.8143 2.15115 14.7287 2.15115Z" fill="#FFFFFF"/>
</svg>
