<svg width="82" height="72" viewBox="0 0 82 72" fill="none" xmlns="http://www.w3.org/2000/svg">
<mask id="mask0" mask-type="alpha" maskUnits="userSpaceOnUse" x="0" y="0" width="82" height="72">
<rect width="82" height="72" rx="4" fill="#C4C4C4"/>
</mask>
<g mask="url(#mask0)">
<path d="M41.5794 36.7982C40.0323 38.2804 37.5919 38.2804 36.0448 36.7982L-12.8102 -10.0096C-15.4133 -12.5036 -13.648 -16.8979 -10.043 -16.8979L87.6672 -16.8979C91.2722 -16.8979 93.0375 -12.5036 90.4344 -10.0096L41.5794 36.7982Z" fill="#E6B712"/>
<path d="M41.2756 16.11C39.7061 17.6625 37.1756 17.6498 35.6216 16.0818L9.66003 -10.1145C7.15764 -12.6395 8.94622 -16.9301 12.5012 -16.9301L64.9475 -16.9301C68.5217 -16.9301 70.3016 -12.5997 67.7604 -10.0863L41.2756 16.11Z" fill="black"/>
<path d="M51.948 32.4328C50.393 30.8778 50.385 28.3591 51.93 26.7941L101.154 -23.0651C103.666 -25.6099 108 -23.8309 108 -20.2549V78.8283C108 82.3919 103.692 84.1765 101.172 81.6567L51.948 32.4328Z" fill="black"/>
<path d="M74.5067 30.3465C72.9596 28.7842 72.9637 26.266 74.5157 24.7086L101.138 -2.00589C103.655 -4.53249 107.971 -2.74934 107.971 0.81763V54.4178C107.971 57.9909 103.643 59.7712 101.129 57.2322L74.5067 30.3465Z" fill="#E6B712"/>
</g>
</svg>
