<svg width="16" height="16" viewBox="0 0 16 16" fill="none" xmlns="http://www.w3.org/2000/svg">
<path d="M12.0003 6.00019C12.0003 2.68667 9.31377 0 6.00019 0C2.68667 0 0 2.68667 0 6.00019C0 9.31371 2.68667 12.0002 6.00019 12.0002C9.31377 12.0002 12.0003 9.31371 12.0003 6.00019ZM6.00019 10.5002C3.51866 10.5002 1.50009 8.48175 1.50009 6.00022C1.50009 3.51869 3.51866 1.50012 6.00019 1.50012C8.48165 1.50012 10.5004 3.51869 10.5004 6.00022C10.5004 8.48175 8.48165 10.5002 6.00019 10.5002Z" fill="#CAAA3B"/>
<path d="M15.5605 13.4396L11.8897 9.76855C11.3428 10.6192 10.6189 11.3426 9.76831 11.8896L13.4394 15.5607C14.0254 16.1466 14.9756 16.1466 15.5604 15.5607C16.1465 14.9757 16.1465 14.0255 15.5605 13.4396Z" fill="#CAAA3B"/>
</svg>
