<svg width="38" height="29" viewBox="0 0 38 29" fill="none" xmlns="http://www.w3.org/2000/svg">
<path d="M36.9075 8.26804H32.4875L31.2595 5.20004C30.6512 3.66223 29.5934 2.34348 28.2243 1.41587C26.8552 0.488262 25.2383 -0.00514143 23.5845 4.04004e-05H14.2095C12.5556 -0.00506833 10.9386 0.488353 9.56936 1.41594C8.2001 2.34353 7.14215 3.66223 6.53351 5.20004L5.30451 8.26804H0.885513C0.750947 8.26796 0.618136 8.29857 0.497179 8.35754C0.376222 8.41651 0.270305 8.50228 0.187483 8.60834C0.104661 8.7144 0.0471151 8.83795 0.0192217 8.96959C-0.00867175 9.10123 -0.00617809 9.2375 0.026513 9.36804L0.469513 11.14C0.517277 11.3317 0.627788 11.5019 0.783452 11.6235C0.939117 11.7451 1.13099 11.8111 1.32851 11.811H2.80951C2.2996 12.2501 1.89012 12.7938 1.60887 13.4051C1.32762 14.0164 1.18119 14.6811 1.17951 15.354V18.9C1.18201 20.0428 1.60202 21.1453 2.36051 22V25.991C2.36078 26.6174 2.60972 27.218 3.05262 27.6609C3.49552 28.1038 4.09615 28.3528 4.72251 28.353H7.08551C7.71187 28.3528 8.3125 28.1038 8.75541 27.6609C9.19831 27.218 9.44725 26.6174 9.44751 25.991V23.622H28.3475V25.984C28.3478 26.6104 28.5967 27.211 29.0396 27.6539C29.4825 28.0968 30.0832 28.3458 30.7095 28.346H33.0715C33.6979 28.3458 34.2985 28.0968 34.7414 27.6539C35.1843 27.211 35.4332 26.6104 35.4335 25.984V21.993C36.1922 21.1384 36.6123 20.0359 36.6145 18.893V15.354C36.6128 14.6812 36.4665 14.0166 36.1854 13.4053C35.9044 12.794 35.4951 12.2503 34.9855 11.811H36.4655C36.663 11.8111 36.8549 11.7451 37.0106 11.6235C37.1662 11.5019 37.2767 11.3317 37.3245 11.14L37.7675 9.36804C37.8 9.23744 37.8023 9.10115 37.7743 8.96951C37.7463 8.83788 37.6886 8.71436 37.6057 8.60833C37.5228 8.5023 37.4169 8.41655 37.2959 8.35759C37.1749 8.29863 37.0421 8.268 36.9075 8.26804V8.26804ZM10.9185 6.95204C11.1817 6.29464 11.6357 5.73112 12.2221 5.33419C12.8085 4.93725 13.5004 4.72508 14.2085 4.72504H23.5835C24.2916 4.72508 24.9835 4.93725 25.5699 5.33419C26.1563 5.73112 26.6104 6.29464 26.8735 6.95204L28.3455 10.63H9.44751L10.9185 6.95204ZM7.08551 18.883C6.77625 18.883 6.47002 18.8221 6.18429 18.7038C5.89857 18.5854 5.63896 18.412 5.42028 18.1933C5.20159 17.9746 5.02813 17.715 4.90978 17.4293C4.79143 17.1435 4.73051 16.8373 4.73051 16.528C4.73051 16.2188 4.79143 15.9125 4.90978 15.6268C5.02813 15.3411 5.20159 15.0815 5.42028 14.8628C5.63896 14.6441 5.89857 14.4707 6.18429 14.3523C6.47002 14.234 6.77625 14.173 7.08551 14.173C8.50251 14.173 10.6285 16.292 10.6285 17.705C10.6285 19.118 8.50251 18.883 7.08551 18.883ZM30.7075 18.883C29.2905 18.883 27.1645 19.118 27.1645 17.706C27.1645 16.294 29.2905 14.174 30.7075 14.174C31.3321 14.174 31.9311 14.4222 32.3727 14.8638C32.8144 15.3055 33.0625 15.9045 33.0625 16.529C33.0625 17.1536 32.8144 17.7526 32.3727 18.1943C31.9311 18.6359 31.3321 18.884 30.7075 18.884V18.883Z" fill="white"/>
</svg>
