<svg width="29" height="29" viewBox="0 0 29 29" fill="none" xmlns="http://www.w3.org/2000/svg">
<path d="M15.5992 13.3712C15.8899 13.0844 16.0532 12.6961 16.0532 12.2912C16.0532 11.8864 15.8899 11.498 15.5992 11.2113L14.5007 10.1313L13.4022 11.2113C13.2579 11.3532 13.1435 11.5216 13.0654 11.7069C12.9874 11.8923 12.9472 12.0909 12.9473 12.2915C12.9473 12.4921 12.9875 12.6907 13.0656 12.8761C13.1438 13.0614 13.2583 13.2298 13.4026 13.3716C13.5469 13.5134 13.7182 13.6259 13.9067 13.7026C14.0953 13.7793 14.2973 13.8188 14.5014 13.8188C14.7054 13.8187 14.9075 13.7792 15.096 13.7024C15.2845 13.6256 15.4558 13.513 15.6 13.3712H15.5992Z" fill="white"/>
<path d="M23.3027 14.7646H26.4094V15.7827H23.3027V14.7646Z" fill="white"/>
<path d="M20.7139 18.8367H26.9289V21.8908H20.7139V18.8367Z" fill="white"/>
<path d="M22.2674 11.7096V13.7457H27.4461V11.7096H26.8447L28.4736 2.6344L27.4549 2.45983L25.7938 11.712H25.3757V0H24.3402V11.7096H23.9099L22.2609 1.44892L21.2383 1.60762L22.8607 11.7104L22.2674 11.7096Z" fill="white"/>
<path d="M20.7139 16.8005V17.8186H27.4463C27.5837 17.8186 27.7155 17.8723 27.8127 17.9678C27.9099 18.0633 27.9645 18.1929 27.9645 18.328V22.401C27.9645 22.5361 27.9099 22.6657 27.8127 22.7612C27.7155 22.8568 27.5837 22.9104 27.4463 22.9104H20.7139V23.9285H28.9992V16.8005H20.7139Z" fill="white"/>
<path d="M13.9822 17.8186C13.9822 17.6849 13.9554 17.5525 13.9034 17.429C13.8513 17.3055 13.7751 17.1933 13.6789 17.0987C13.5827 17.0042 13.4686 16.9292 13.3429 16.878C13.2173 16.8269 13.0826 16.8005 12.9466 16.8005H2.58933C1.9026 16.8005 1.24399 17.0687 0.758397 17.5461C0.272804 18.0235 0 18.671 0 19.3461C0 20.0212 0.272804 20.6687 0.758397 21.146C1.24399 21.6234 1.9026 21.8916 2.58933 21.8916H8.28537V19.8555H1.03557V18.8374H8.28537V18.328C8.28544 18.2534 8.30217 18.1798 8.33438 18.1122C8.36659 18.0447 8.41349 17.9849 8.47177 17.9372C8.53005 17.8894 8.59828 17.8549 8.67165 17.8359C8.74502 17.8169 8.82174 17.814 8.89638 17.8273C10.5319 18.117 12.1883 18.2786 13.8498 18.3106C13.9356 18.1602 13.9811 17.9909 13.9822 17.8186V17.8186Z" fill="white"/>
<path d="M9.32129 18.9351V28.0031H19.6786V18.9351C16.2487 19.484 12.7512 19.484 9.32129 18.9351Z" fill="white"/>
<path d="M17.7951 14.513C18.6678 13.653 19.1579 12.4879 19.1579 11.2731C19.1579 10.0584 18.6678 8.89324 17.7951 8.03329L14.4995 4.79346L11.2039 8.03646C10.3299 8.89572 9.83887 10.0611 9.83887 11.2763C9.83887 12.4915 10.3299 13.6569 11.2039 14.5161C12.078 15.3754 13.2634 15.8581 14.4995 15.8581C15.7356 15.8581 16.9211 15.3754 17.7951 14.5161V14.513ZM12.6649 10.4907L14.1299 9.05134C14.227 8.95603 14.3586 8.9025 14.4959 8.9025C14.6331 8.9025 14.7648 8.95603 14.8619 9.05134L16.3269 10.4907C16.689 10.8467 16.9356 11.3003 17.0355 11.7941C17.1354 12.2879 17.0841 12.7997 16.8881 13.2648C16.6921 13.7299 16.3602 14.1275 15.9344 14.4072C15.5086 14.6869 15.008 14.8361 14.4959 14.8361C13.9838 14.8361 13.4832 14.6869 13.0574 14.4072C12.6316 14.1275 12.2997 13.7299 12.1037 13.2648C11.9077 12.7997 11.8564 12.2879 11.9563 11.7941C12.0562 11.3003 12.3028 10.8467 12.6649 10.4907V10.4907Z" fill="white"/>
<path d="M1.03557 15.7817H11.1338C10.3898 15.257 9.79194 14.5569 9.3952 13.7456H1.03557C0.76092 13.7456 0.497519 13.8529 0.303311 14.0438C0.109104 14.2347 0 14.4937 0 14.7637C0 15.0337 0.109104 15.2926 0.303311 15.4835C0.497519 15.6744 0.76092 15.7817 1.03557 15.7817V15.7817Z" fill="white"/>
</svg>
