<svg width="14" height="14" viewBox="0 0 14 14" fill="none" xmlns="http://www.w3.org/2000/svg">
<path d="M13.5973 5.10784L13.2411 5.0319C13.1959 4.97181 13.1475 4.91423 13.0924 4.86155C13.0653 4.83569 13.0359 4.81228 13.0066 4.78869C12.7141 4.55357 12.3137 4.43319 11.8118 4.43319H11.339H10.4327L9.63284 4.2627L7.42042 0.602067C7.30434 0.409966 7.15215 0.313965 7.00001 0.313965C6.84787 0.313965 6.69566 0.410015 6.57958 0.602067L4.36718 4.26265L3.56729 4.43314H2.66107H1.7549H0.829617C0.657077 4.43314 0.513186 4.54945 0.46789 4.70749C0.458456 4.74058 0.451713 4.77481 0.451713 4.81102V4.90413V5.0973L0.402663 5.10772C-0.0363437 5.20127 -0.13106 5.5305 0.191273 5.843L1.73006 7.33508V7.59831V7.86149V8.86742C1.73006 9.07604 1.89929 9.24527 2.10793 9.24527H2.70755H2.89832H3.08906L2.54341 13.1623C2.49767 13.4907 2.63667 13.6859 2.87488 13.6859C2.95915 13.6859 3.05589 13.6615 3.16123 13.6099L6.99996 11.7303L10.8386 13.6099C10.944 13.6615 11.0407 13.686 11.125 13.686C11.3633 13.686 11.5022 13.4908 11.4565 13.1624L10.9108 9.24537H10.9871C11.0263 9.24537 11.0634 9.23774 11.099 9.2266C11.168 9.20514 11.2279 9.16495 11.2737 9.11126C11.3298 9.04532 11.3651 8.9609 11.3651 8.86747V8.73886V8.47578V8.21257L11.8584 7.7342C11.9658 7.72822 12.0675 7.71639 12.1652 7.69994C12.2978 7.67767 12.4212 7.64558 12.5354 7.60404C12.7394 7.5299 12.9154 7.42686 13.0593 7.29218C13.2263 7.13574 13.3501 6.94915 13.4318 6.73492C13.4735 6.62519 13.5036 6.50782 13.5227 6.38357C13.5368 6.29199 13.5448 6.19653 13.5466 6.09729L13.8088 5.84305C14.131 5.5306 14.0364 5.2014 13.5973 5.10784ZM13.1027 6.52775C13.0425 6.71995 12.9429 6.8835 12.8011 7.01635C12.6771 7.13251 12.5199 7.2193 12.3302 7.27684C12.1432 7.33372 11.9244 7.36217 11.6736 7.36217H10.9873V8.5789V8.86747H10.8584H9.7283V4.81107H11.8118C12.2656 4.81107 12.6055 4.919 12.8314 5.13484C13.0574 5.3507 13.1704 5.65782 13.1704 6.05627C13.1704 6.22982 13.1469 6.38636 13.1027 6.52775ZM2.10798 8.22801V7.96483V7.70157V5.81272H0.829617V5.01683V4.82367V4.81112H0.888472H1.79462H4.63975V5.8128H3.36138V8.86759H3.14167H2.95093H2.76016H2.10798V8.22801ZM7.00001 8.93667C6.54256 8.93667 6.16391 8.86379 5.86418 8.71809C5.56444 8.57238 5.32139 8.3418 5.13509 8.02635C4.94882 7.71089 4.85563 7.31614 4.85563 6.84206C4.85563 6.17981 5.0401 5.66421 5.40899 5.29532C5.77796 4.92636 6.29162 4.74197 6.9502 4.74197C7.62531 4.74197 8.1455 4.9232 8.51076 5.28567C8.87602 5.64813 9.05864 6.15593 9.05864 6.80889C9.05864 7.28297 8.97884 7.67176 8.81929 7.97518C8.65974 8.27859 8.42916 8.51473 8.12755 8.68357C7.82589 8.8524 7.45013 8.93667 7.00001 8.93667Z" fill="white"/>
</svg>
