<svg width="36" height="28" viewBox="0 0 36 28" fill="none" xmlns="http://www.w3.org/2000/svg">
<path d="M30.5008 17.5352V26.4997C30.5012 26.6972 30.4626 26.8928 30.3871 27.0753C30.3117 27.2578 30.201 27.4235 30.0613 27.563C29.9216 27.7025 29.7557 27.813 29.5732 27.888C29.3907 27.9631 29.1952 28.0014 28.9978 28.0005H21.7466C21.5477 28 21.3572 27.9207 21.2166 27.78C21.076 27.6393 20.9967 27.4486 20.9962 27.2496V20.2435C20.9956 20.0446 20.9164 19.8539 20.7758 19.7132C20.6352 19.5725 20.4446 19.4932 20.2458 19.4926H15.7454C15.5465 19.4932 15.356 19.5725 15.2154 19.7132C15.0747 19.8539 14.9955 20.0446 14.9949 20.2435V27.2486C14.9944 27.4475 14.9152 27.6382 14.7745 27.7789C14.6339 27.9196 14.4434 27.9989 14.2445 27.9995H6.99753C6.80046 27.9999 6.60524 27.9613 6.42309 27.8861C6.24094 27.8108 6.07544 27.7003 5.93609 27.5608C5.79674 27.4214 5.68628 27.2558 5.61106 27.0735C5.53584 26.8912 5.49733 26.6959 5.49775 26.4987V17.5341C5.49758 17.4228 5.52218 17.3127 5.56976 17.212C5.61734 17.1114 5.6867 17.0225 5.77283 16.952L17.5244 7.26919C17.6599 7.16005 17.8285 7.10054 18.0024 7.10054C18.1763 7.10054 18.345 7.16005 18.4804 7.26919L30.232 16.952C30.3162 17.0238 30.3838 17.113 30.4302 17.2135C30.4766 17.314 30.5007 17.4234 30.5008 17.5341V17.5352ZM35.7263 13.7258L30.5008 9.41647V0.753542C30.5002 0.554559 30.421 0.363885 30.2804 0.223182C30.1397 0.082479 29.9492 0.00318776 29.7503 0.00263116H26.248C26.0492 0.00318776 25.8586 0.082479 25.718 0.223182C25.5774 0.363885 25.4982 0.554559 25.4976 0.753542V5.29383L19.9032 0.684991C19.3664 0.242169 18.6923 0 17.9966 0C17.3009 0 16.6268 0.242169 16.09 0.684991L0.270122 13.7258C0.117979 13.8529 0.0221226 14.035 0.0033751 14.2325C-0.0153724 14.43 0.0445035 14.6269 0.169996 14.7804L1.76358 16.7199C1.89065 16.8722 2.07263 16.9681 2.26997 16.9869C2.46731 17.0056 2.66408 16.9457 2.81753 16.8201L17.5213 4.70639C17.6567 4.59724 17.8254 4.53773 17.9993 4.53773C18.1731 4.53773 18.3418 4.59724 18.4772 4.70639L33.1799 16.8212C33.3334 16.9468 33.5301 17.0067 33.7275 16.9879C33.9248 16.9692 34.1068 16.8732 34.2339 16.721L35.8275 14.7815C35.9529 14.6275 36.0124 14.4301 35.9931 14.2323C35.9738 14.0346 35.8771 13.8525 35.7242 13.7258H35.7263Z" fill="white"/>
</svg>
