<svg width="29" height="26" viewBox="0 0 29 26" fill="none" xmlns="http://www.w3.org/2000/svg">
<g filter="url(#filter0_d)">
<mask id="path-1-inside-1" fill="white">
<path d="M3 0C3 2.88908 3.56905 5.74987 4.67465 8.41904C5.78025 11.0882 7.40076 13.5135 9.44365 15.5563C11.4865 17.5992 13.9118 19.2197 16.581 20.3254C19.2501 21.431 22.1109 22 25 22L25 0L3 0Z"/>
</mask>
<path d="M3 0C3 2.88908 3.56905 5.74987 4.67465 8.41904C5.78025 11.0882 7.40076 13.5135 9.44365 15.5563C11.4865 17.5992 13.9118 19.2197 16.581 20.3254C19.2501 21.431 22.1109 22 25 22L25 0L3 0Z" stroke="white" stroke-opacity="0.5" stroke-width="6" mask="url(#path-1-inside-1)"/>
</g>
<defs>
<filter id="filter0_d" x="-1" y="0" width="30" height="30" filterUnits="userSpaceOnUse" color-interpolation-filters="sRGB">
<feFlood flood-opacity="0" result="BackgroundImageFix"/>
<feColorMatrix in="SourceAlpha" type="matrix" values="0 0 0 0 0 0 0 0 0 0 0 0 0 0 0 0 0 0 127 0"/>
<feOffset dy="4"/>
<feGaussianBlur stdDeviation="2"/>
<feColorMatrix type="matrix" values="0 0 0 0 0 0 0 0 0 0 0 0 0 0 0 0 0 0 0.25 0"/>
<feBlend mode="normal" in2="BackgroundImageFix" result="effect1_dropShadow"/>
<feBlend mode="normal" in="SourceGraphic" in2="effect1_dropShadow" result="shape"/>
</filter>
</defs>
</svg>
