<svg width="20" height="19" viewBox="0 0 20 19" fill="none" xmlns="http://www.w3.org/2000/svg">
<path d="M12.7389 4.44454C13.1006 4.44454 13.3938 4.14084 13.3938 3.76621C13.3938 3.39159 13.1006 3.08789 12.7389 3.08789C12.3772 3.08789 12.084 3.39159 12.084 3.76621C12.084 4.14084 12.3772 4.44454 12.7389 4.44454Z" fill="black"/>
<path d="M18.457 0H9.68009V1.63366C9.68009 1.92819 9.44998 2.1662 9.16594 2.1662C8.88158 2.1662 8.6518 1.92786 8.6518 1.63366V0H8.3068H6.59457H5.70096C4.85011 0 4.1582 0.752369 4.1582 1.63366V6.13267C4.24022 6.20077 4.31522 6.27911 4.37937 6.36737L8.28414 11.79H8.3068H8.6518V10.1563C8.6518 9.86179 8.8819 9.62378 9.16594 9.62378C9.4503 9.62378 9.68009 9.86212 9.68009 10.1563V11.79H18.4573C19.3081 11.79 20 11.0376 20 10.1563V1.63366C19.9997 0.7527 19.3078 0 18.457 0ZM9.68009 8.02582C9.68009 8.32036 9.44998 8.55837 9.16594 8.55837C8.88158 8.55837 8.6518 8.32003 8.6518 8.02582V6.96041C8.6518 6.66587 8.8819 6.42787 9.16594 6.42787C9.4503 6.42787 9.68009 6.6662 9.68009 6.96041V8.02582ZM9.68009 4.82991C9.68009 5.12444 9.44998 5.36245 9.16594 5.36245C8.88158 5.36245 8.6518 5.12411 8.6518 4.82991V3.76449C8.6518 3.46996 8.8819 3.23195 9.16594 3.23195C9.4503 3.23195 9.68009 3.47029 9.68009 3.76449V4.82991ZM11.1964 3.76581C11.1964 2.88452 11.8883 2.16786 12.7391 2.16786C13.59 2.16786 14.2819 2.88452 14.2819 3.76581C14.2819 4.6471 13.5896 5.36377 12.7391 5.36377C11.8886 5.36377 11.1964 4.64677 11.1964 3.76581ZM13.1712 9.39073C13.0187 9.61188 12.7401 9.70609 12.4512 9.53982C12.2148 9.36925 12.1532 9.03934 12.3073 8.79406L14.7963 4.92709L16.4214 2.40223C16.5858 2.15728 16.9046 2.09348 17.1414 2.25314C17.3779 2.42371 17.4398 2.75395 17.2854 2.9989L14.7963 6.8662L13.1712 9.39073ZM16.8536 9.6251C16.0027 9.6251 15.3108 8.90811 15.3108 8.02715C15.3108 7.14586 16.0027 6.42919 16.8536 6.42919C17.7044 6.42919 18.3963 7.14586 18.3963 8.02715C18.3963 8.90844 17.7044 9.6251 16.8536 9.6251Z" fill="black"/>
<path d="M16.8541 8.70528C17.2158 8.70528 17.509 8.40158 17.509 8.02696C17.509 7.65233 17.2158 7.34863 16.8541 7.34863C16.4924 7.34863 16.1992 7.65233 16.1992 8.02696C16.1992 8.40158 16.4924 8.70528 16.8541 8.70528Z" fill="black"/>
<path d="M9.80548 12.8549C9.30027 12.8549 8.8308 13.008 8.43315 13.2684L3.79211 6.82306C3.58817 6.54141 3.16179 6.52489 2.96871 6.81479C2.47499 7.55493 2.48073 8.56184 3.01722 9.3033L4.90051 11.9211L3.86136 13.1951C3.48987 12.9792 3.06222 12.8546 2.60584 12.8546C1.18563 12.8546 0 14.0469 0 15.5179C0 16.989 1.18563 18.1813 2.60584 18.1813C4.02604 18.1813 5.17721 16.989 5.17721 15.5179C5.17721 15.3447 5.15997 15.1761 5.12965 15.0122L6.18667 13.7081L7.25549 15.1933C7.24305 15.2998 7.23443 15.4075 7.23443 15.5176C7.23443 16.9886 8.38559 18.181 9.8058 18.181C11.226 18.181 12.3772 16.9886 12.3772 15.5176C12.3772 14.0466 11.2257 12.8549 9.80548 12.8549ZM2.60296 16.868C1.88329 16.868 1.27116 16.2637 1.27116 15.5186C1.27116 14.7732 1.88329 14.1692 2.60296 14.1692C3.32264 14.1692 3.90572 14.7735 3.90572 15.5186C3.90572 16.2637 3.32264 16.868 2.60296 16.868ZM9.81984 16.868C9.10016 16.868 8.48804 16.2637 8.48804 15.5186C8.48804 14.7732 9.10016 14.1692 9.81984 14.1692C10.5395 14.1692 11.1226 14.7735 11.1226 15.5186C11.1229 16.2637 10.5395 16.868 9.81984 16.868Z" fill="black"/>
</svg>
