<svg width="33" height="29" viewBox="0 0 33 29" fill="none" xmlns="http://www.w3.org/2000/svg">
<g clip-path="url(#clip0)">
<path d="M23.2871 0.688721L1.22595 13.0878C0.90081 13.2706 0.66082 13.5736 0.558779 13.9304C0.456738 14.2871 0.501006 14.6683 0.681841 14.99L7.49815 27.1178C7.58769 27.2771 7.70806 27.4171 7.85239 27.5296C7.99673 27.6422 8.1622 27.7252 8.33935 27.7738C8.51651 27.8225 8.70188 27.8359 8.88489 27.8133C9.06789 27.7907 9.24495 27.7324 9.40594 27.642L31.467 15.2428C31.628 15.1524 31.7698 15.0314 31.8843 14.8868C31.9988 14.7423 32.0837 14.5769 32.1342 14.4003C32.1847 14.2237 32.1999 14.0392 32.1788 13.8574C32.1577 13.6755 32.1007 13.5 32.0112 13.3407L25.1949 1.21285C25.014 0.8911 24.7114 0.655121 24.3536 0.556829C23.9959 0.458536 23.6122 0.505979 23.2871 0.688721V0.688721ZM8.99599 25.4783L7.63273 23.0527C8.28281 22.6874 9.0499 22.5925 9.76524 22.789C10.4806 22.9856 11.0856 23.4574 11.4471 24.1007L8.99599 25.4783ZM4.22436 16.9884L2.8611 14.5629L5.31225 13.1853C5.67381 13.8286 5.76232 14.5906 5.5583 15.3039C5.35428 16.0171 4.87445 16.6231 4.22436 16.9884V16.9884ZM18.3901 17.8014C16.6974 18.7528 14.4105 17.8939 13.2813 15.8847C12.152 13.8754 12.6079 11.475 14.2999 10.524C15.9919 9.57303 18.2791 10.4308 19.4088 12.4408C20.5385 14.4508 20.0814 16.8509 18.3901 17.8014ZM29.8306 13.7655L27.3787 15.1436C27.0172 14.5003 26.9287 13.7382 27.1327 13.025C27.3367 12.3117 27.8165 11.7058 28.4666 11.3404L29.8306 13.7655ZM25.059 5.2757C24.4089 5.64107 23.6418 5.73593 22.9265 5.5394C22.2112 5.34288 21.6062 4.87107 21.2446 4.22777L23.6957 2.85014L25.059 5.2757Z" fill="white"/>
</g>
<defs>
<clipPath id="clip0">
<rect width="28.1185" height="16.6954" fill="white" transform="matrix(0.871749 -0.489953 0.489956 0.871747 0 13.7769)"/>
</clipPath>
</defs>
</svg>
