<svg width="33" height="28" viewBox="0 0 33 28" fill="none" xmlns="http://www.w3.org/2000/svg">
<path d="M16.4458 25.3747H13.3349V18.5271L22.7086 9.29971C22.9003 9.11104 23.0308 8.87058 23.0835 8.60883C23.1361 8.34707 23.1087 8.07581 23.0045 7.82944C22.9004 7.58307 22.7243 7.37269 22.4985 7.22498C22.2728 7.07728 22.0075 6.9989 21.7365 6.99978H1.37311C1.10203 6.9989 0.836796 7.07728 0.611033 7.22498C0.385271 7.37269 0.209154 7.58307 0.105016 7.82944C0.00087895 8.07581 -0.0265877 8.34707 0.0260995 8.60883C0.0787868 8.87058 0.209255 9.11104 0.400958 9.29971L9.77466 18.5271V25.3747H6.6681C6.07881 25.3747 5.51366 25.6052 5.09697 26.0154C4.68028 26.4256 4.44619 26.9819 4.44619 27.562C4.44619 27.6194 4.45767 27.6762 4.47998 27.7292C4.50229 27.7822 4.535 27.8304 4.57622 27.871C4.61744 27.9116 4.66638 27.9438 4.72025 27.9657C4.77411 27.9877 4.83184 27.999 4.89014 27.999H18.2237C18.282 27.999 18.3398 27.9877 18.3936 27.9657C18.4475 27.9438 18.4964 27.9116 18.5377 27.871C18.5789 27.8304 18.6116 27.7822 18.6339 27.7292C18.6562 27.6762 18.6677 27.6194 18.6677 27.562C18.6677 27.2747 18.6102 26.9903 18.4986 26.725C18.3869 26.4596 18.2232 26.2185 18.0169 26.0154C17.8106 25.8123 17.5656 25.6512 17.2961 25.5412C17.0265 25.4313 16.7376 25.3747 16.4458 25.3747ZM24.0016 4.76815e-05C22.3519 0.00307324 20.7438 0.509547 19.3987 1.4497C18.0537 2.38986 17.0378 3.71744 16.4912 5.24958H19.4076C19.9241 4.36923 20.6892 3.65545 21.6099 3.19494C22.5306 2.73442 23.5673 2.54698 24.5942 2.65538C25.6211 2.76379 26.5939 3.16337 27.3944 3.80559C28.195 4.44782 28.7889 5.30507 29.104 6.27321C29.4192 7.24135 29.4419 8.27874 29.1696 9.25937C28.8972 10.24 28.3415 11.1217 27.5698 11.7974C26.7982 12.473 25.8438 12.9136 24.8227 13.0655C23.8015 13.2175 22.7575 13.0743 21.8175 12.6534L19.8591 14.5811C20.9134 15.2158 22.1028 15.6012 23.3338 15.7071C24.5649 15.8129 25.8042 15.6363 26.9542 15.1912C28.1043 14.7461 29.1339 14.0445 29.962 13.1417C30.7902 12.2388 31.3945 11.1592 31.7273 9.98765C32.0601 8.81612 32.1125 7.58458 31.8802 6.38978C31.648 5.19498 31.1375 4.06945 30.3889 3.10162C29.6402 2.13378 28.6738 1.35 27.5655 0.811846C26.4573 0.273689 25.2373 -0.00418691 24.0016 4.76815e-05V4.76815e-05Z" fill="white"/>
</svg>
