<svg width="20" height="18" viewBox="0 0 20 18" fill="none" xmlns="http://www.w3.org/2000/svg">
<path d="M10.3012 1.74502H9.53466C9.31466 0.799979 8.47084 0 7.46252 0C6.28702 0 5.33398 1.03624 5.33398 2.21755H5.97174H9.59106H10.7567L10.3012 1.74502Z" fill="black"/>
<path d="M7.46252 4.92732C8.63803 4.92732 9.59107 3.87076 9.59107 2.68945H5.33398C5.33398 3.87076 6.28679 4.92732 7.46252 4.92732Z" fill="black"/>
<path d="M1.62305 15.4482L1.73248 16.157H3.6017L3.71114 15.4482H1.62305Z" fill="black"/>
<path d="M6.13487 9.46245V14.5522C6.13487 15.033 5.76408 15.4226 5.307 15.4226H4.45105L4.41464 16.1744C4.38925 16.701 4.78835 17.1426 5.28992 17.1426H9.57487C10.078 17.1426 10.4778 16.6984 10.4499 16.1701L10.1648 10.7541H10.5701L10.7985 13.2422C10.8223 13.5016 11.0344 13.6962 11.2821 13.6861L11.8551 13.6625C11.9803 13.6573 12.0985 13.5994 12.1827 13.5018L13.4971 11.9812V9.42961L12.4468 10.6523L11.1697 6.33435C11.0555 5.9483 10.7153 5.68558 10.3308 5.68653L4.89329 5.69999C4.59307 5.7007 4.31419 5.86301 4.15397 6.12999L2.66992 8.60411H5.31891C5.76947 8.60411 6.13487 8.98851 6.13487 9.46245Z" fill="black"/>
<path d="M5.61798 9.62195C5.61798 9.3167 5.3827 9.06934 5.09236 9.06934H0.525618C0.235281 9.06934 0 9.3167 0 9.62195V14.423C0 14.7285 0.235281 14.9759 0.525618 14.9759H5.09213C5.3827 14.9759 5.61798 14.7285 5.61798 14.4232V9.62195ZM3.82022 11.1267C3.82022 11.1647 3.79079 11.1957 3.75461 11.1957H1.8636C1.82719 11.1957 1.79775 11.1647 1.79775 11.1267V10.5561C1.79775 10.5179 1.82719 10.4869 1.86337 10.4869H3.75438C3.79079 10.4869 3.82022 10.5179 3.82022 10.5559V11.1267Z" fill="black"/>
<path d="M16.4706 13.3902C16.8318 13.3902 17.1247 13.0822 17.1247 12.7024C17.1247 12.3226 16.8318 12.0146 16.4706 12.0146C16.1093 12.0146 15.8164 12.3226 15.8164 12.7024C15.8164 13.0822 16.1093 13.3902 16.4706 13.3902Z" fill="black"/>
<path d="M18.2023 8.89147V10.7232H14.6068V7.15802C14.6068 6.77622 14.9742 6.4705 15.3376 6.4705H17.6095C17.8306 6.4705 18.0259 6.58343 18.1454 6.75945L18.6812 6.26165C18.4259 5.93726 18.0403 5.76172 17.6095 5.76172H15.3376C14.5708 5.76172 13.9326 6.35166 13.9326 7.15802V13.3296C13.9326 14.1355 14.5708 14.7396 15.3376 14.7396H17.6095C18.3762 14.7396 18.8764 14.1355 18.8764 13.3294V8.08605L18.2023 8.89147ZM17.6095 14.0309H15.3376C14.9742 14.0309 14.6068 13.7112 14.6068 13.3294V11.432H18.2023V13.3294C18.2023 13.7112 17.9726 14.0309 17.6095 14.0309Z" fill="black"/>
<path d="M20.0004 5.55859L16.8512 8.66968L16.2838 7.18903L15.4824 7.88624L16.4323 10.2439L20.0004 6.31746V5.55859Z" fill="black"/>
</svg>
