<svg width="41" height="54" viewBox="0 0 41 54" fill="none" xmlns="http://www.w3.org/2000/svg">
<path fill-rule="evenodd" clip-rule="evenodd" d="M3.94231 7.88462C1.76503 7.88462 0 6.11959 0 3.94231C0 1.76503 1.76503 0 3.94231 0C6.11958 0 7.88462 1.76503 7.88462 3.94231C7.88462 6.11959 6.11958 7.88462 3.94231 7.88462ZM7.88462 12.1052C12.7686 10.744 17.9384 10.9272 22.832 13.5964C27.2147 15.9869 31.9213 15.9869 36.3628 14.5334C37.0119 14.3209 37.5938 14.0942 38.0978 13.8693C38.3896 13.739 38.5832 13.6427 38.668 13.5964C39.7188 13.0232 41 13.7838 41 14.9808V37.0577C41 37.6348 40.6848 38.1658 40.1782 38.4421C39.6165 38.7485 38.6466 39.1813 37.3438 39.6077C32.1485 41.308 26.5759 41.308 21.3218 38.4421C16.9699 36.0683 12.2986 36.0517 7.88462 37.4748V12.1052ZM2.36538 10.0513C2.8694 10.181 3.3978 10.25 3.94231 10.25C4.48682 10.25 5.01521 10.181 5.51923 10.0513V52.827C5.51923 53.2624 5.16622 53.6154 4.73077 53.6154H3.15385C2.71839 53.6154 2.36538 53.2624 2.36538 52.827V10.0513Z" fill="#FFFFFF"/>
</svg>
