<svg width="20" height="20" viewBox="0 0 20 20" fill="none" xmlns="http://www.w3.org/2000/svg">
<g clip-path="url(#clip0)">
<path d="M19.9802 9.51761C19.9268 9.34985 19.7779 9.237 19.5717 9.20794L19.1294 9.14522L18.933 8.75566C18.841 8.57455 18.6888 8.4707 18.5151 8.4707C18.3409 8.4707 18.1886 8.575 18.0974 8.75627L17.9008 9.14514L17.4583 9.20786C17.2524 9.237 17.1036 9.34985 17.05 9.51746C16.9969 9.68416 17.052 9.86087 17.2006 10.0016L17.5165 10.3025L17.4426 10.7244C17.4144 10.8835 17.4475 11.0292 17.5359 11.1346C17.668 11.2924 17.8982 11.3292 18.1173 11.2168L18.5151 11.0127L18.9126 11.2167C18.9985 11.2608 19.0845 11.2831 19.1686 11.2831C19.2982 11.2831 19.4137 11.2304 19.4941 11.1347C19.5826 11.0294 19.6158 10.8839 19.5879 10.725L19.5136 10.3024L19.8285 10.0025C19.9781 9.86116 20.0333 9.6844 19.9802 9.51761Z" fill="#464646"/>
<path d="M16.9351 15.0596L16.4807 15.0705L16.2347 14.7198C16.0974 14.5234 15.93 14.4941 15.8424 14.4941C15.6883 14.4941 15.4938 14.5873 15.4096 14.8488L15.2724 15.2745L14.8471 15.4113C14.6508 15.4745 14.5232 15.6099 14.497 15.7831C14.471 15.9548 14.5513 16.1201 14.7173 16.2366L15.0687 16.4828L15.058 16.9178C15.0527 17.1088 15.1259 17.2252 15.1882 17.2893C15.266 17.3694 15.3713 17.4135 15.4845 17.4135C15.5913 17.4135 15.701 17.3734 15.8012 17.2978L16.1584 17.0294L16.573 17.166C16.7893 17.2362 16.9996 17.1779 17.1125 17.0216C17.1635 16.9512 17.2376 16.7994 17.1633 16.5747L17.0272 16.1606L17.2956 15.8035C17.4192 15.6393 17.4456 15.4561 17.3682 15.3007C17.2918 15.1475 17.1339 15.0596 16.9351 15.0596Z" fill="#464646"/>
<path d="M17.6545 3.62899C17.6284 3.45586 17.5008 3.3203 17.3043 3.25697L16.8786 3.11994L16.7419 2.69475C16.658 2.43306 16.4631 2.33984 16.3087 2.33984C16.2213 2.33984 16.0539 2.36906 15.9168 2.56483L15.6705 2.91616L15.2358 2.90564L15.216 2.90533C15.0171 2.90533 14.8594 2.99322 14.7829 3.14643C14.7054 3.30175 14.732 3.48494 14.8554 3.64882L15.124 4.0061L14.9874 4.42023C14.9137 4.64598 14.9882 4.79751 15.0391 4.86778C15.1523 5.0241 15.3643 5.08209 15.5786 5.01082L15.9926 4.87487L16.3499 5.14357C16.4505 5.21911 16.56 5.25901 16.6667 5.25901C16.7799 5.25901 16.885 5.21492 16.963 5.13487C17.0253 5.07095 17.0985 4.95459 17.0933 4.76446L17.0826 4.32829L17.4334 4.08216C17.5997 3.96598 17.6803 3.8008 17.6545 3.62899Z" fill="#464646"/>
<path d="M11.4646 1.04691C11.4112 0.879144 11.2622 0.7663 11.0561 0.737237L10.6138 0.674518L10.4174 0.284954C10.3254 0.103844 10.1731 0 9.99949 0C9.82539 0 9.67312 0.104219 9.58173 0.285564L9.38521 0.674518L8.94288 0.737159C8.73689 0.7663 8.58797 0.879144 8.53442 1.04675C8.48132 1.21346 8.5364 1.39016 8.68501 1.53093L9.00086 1.83182L8.92686 2.25404C8.89878 2.41304 8.93205 2.55868 9.02039 2.66404C9.15252 2.82182 9.38291 2.85776 9.60171 2.74606L9.99949 2.54198L10.397 2.74598C10.4829 2.79007 10.5689 2.81243 10.653 2.81243C10.7825 2.81243 10.898 2.75971 10.9784 2.66404C11.0669 2.55868 11.1002 2.41318 11.0723 2.25426L10.998 1.83168L11.3129 1.53176C11.4624 1.39046 11.5177 1.21369 11.4646 1.04691Z" fill="#464646"/>
<path d="M1.08707 11.2168L1.48485 11.0127L1.88231 11.2167C1.96822 11.2608 2.05427 11.2831 2.13834 11.2831C2.26788 11.2831 2.38339 11.2304 2.46379 11.1347C2.55229 11.0294 2.58555 10.8839 2.55763 10.725L2.48332 10.3024L2.79826 10.0025C2.94778 9.86116 3.00301 9.6844 2.94992 9.51761C2.89652 9.34985 2.74759 9.237 2.54146 9.20794L2.09912 9.14522L1.90276 8.75566C1.81075 8.57455 1.65848 8.4707 1.48485 8.4707C1.31074 8.4707 1.15847 8.57492 1.06708 8.75627L0.870564 9.14522L0.428227 9.20786C0.222238 9.237 0.0733243 9.34985 0.019767 9.51746C-0.0333263 9.68416 0.0217489 9.86087 0.170366 10.0016L0.486209 10.3025L0.412213 10.7247C0.384136 10.8837 0.417402 11.0294 0.505739 11.1347C0.637873 11.2926 0.868267 11.3285 1.08707 11.2168Z" fill="#464646"/>
<path d="M11.4646 18.2344C11.4112 18.0666 11.2622 17.9538 11.0561 17.9247L10.6138 17.862L10.4174 17.4725C10.3254 17.2913 10.1731 17.1875 9.99949 17.1875C9.82539 17.1875 9.67312 17.2917 9.58173 17.4731L9.38521 17.862L8.94288 17.9247C8.73689 17.9538 8.58797 18.0666 8.53442 18.2343C8.48132 18.401 8.5364 18.5777 8.68501 18.7184L9.00086 19.0193L8.92686 19.4415C8.89878 19.6005 8.93205 19.7462 9.02039 19.8515C9.15252 20.0092 9.38291 20.0454 9.60171 19.9336L9.99949 19.7295L10.397 19.9335C10.4829 19.9776 10.5689 19.9999 10.653 19.9999C10.7825 19.9999 10.898 19.9472 10.9784 19.8515C11.0669 19.7462 11.1002 19.6007 11.0723 19.4418L10.998 19.0192L11.3129 18.7193C11.4624 18.578 11.5177 18.4012 11.4646 18.2344Z" fill="#464646"/>
<path d="M3.03655 5.13496C3.11451 5.21515 3.2198 5.25925 3.33301 5.25925C3.43982 5.25925 3.54952 5.21918 3.64992 5.14357L4.0071 4.87503L4.42121 5.01151C4.63802 5.08254 4.84812 5.02365 4.96119 4.8674C5.012 4.79698 5.08631 4.64523 5.012 4.42017L4.8759 4.00634L5.14443 3.64913C5.26788 3.48494 5.29427 3.30169 5.21676 3.14643C5.14033 2.99316 4.98224 2.90527 4.78328 2.90527L4.3292 2.91617L4.08324 2.56544C3.94608 2.36914 3.77869 2.33984 3.69112 2.33984C3.53716 2.33984 3.34262 2.43292 3.2581 2.69461L3.12107 3.12025L2.69583 3.25697C2.49962 3.31999 2.37191 3.45541 2.34566 3.62846C2.31957 3.80027 2.39983 3.96568 2.56584 4.08218L2.91723 4.32845L2.90671 4.7631C2.90121 4.95437 2.9743 5.07087 3.03655 5.13496Z" fill="#464646"/>
<path d="M2.63059 15.3006C2.55308 15.456 2.57964 15.6392 2.70307 15.8031L2.97146 16.1603L2.83491 16.5748C2.76136 16.8005 2.83581 16.952 2.88678 17.0222C3.00029 17.1784 3.21178 17.2361 3.42614 17.1651L3.84025 17.0291L4.19729 17.2975C4.29783 17.3733 4.40755 17.4133 4.51435 17.4133C4.62756 17.4133 4.73284 17.3691 4.81081 17.289C4.87307 17.225 4.94616 17.1087 4.94081 16.9189L4.93028 16.4826L5.2809 16.2365C5.44722 16.1203 5.52778 15.955 5.502 15.7832C5.47606 15.6102 5.34849 15.4746 5.15197 15.4113L4.72628 15.2742L4.58957 14.8488C4.50535 14.5873 4.3105 14.4941 4.15624 14.4941C4.06881 14.4941 3.90159 14.5233 3.76426 14.719L3.518 15.0704L3.08314 15.0598L3.06393 15.0595C2.86495 15.0595 2.70704 15.1474 2.63059 15.3006Z" fill="#464646"/>
<path d="M8.0854 4.69171C8.08494 4.69269 8.08464 4.69375 8.08418 4.69475C8.08235 4.69369 8.08036 4.69261 8.07853 4.69163C7.82891 4.55399 7.57075 4.41171 7.27459 4.41171C7.12552 4.41171 6.98164 4.45008 6.85851 4.52271C6.41878 4.7831 6.41359 5.29793 6.40976 5.67384C6.40976 5.67674 6.40976 5.67963 6.40976 5.68268C6.40825 5.68238 6.40672 5.68215 6.40519 5.68193C6.25246 5.65857 6.09439 5.63432 5.9354 5.63432C5.6159 5.63432 5.36826 5.73846 5.1995 5.9437C4.8768 6.33531 5.0454 6.81962 5.16838 7.17325C5.16991 7.1773 5.17128 7.18148 5.1728 7.18576C5.17113 7.18614 5.16946 7.18645 5.16777 7.18675C4.79899 7.26045 4.2938 7.36139 4.12107 7.84533C3.9511 8.32261 4.27228 8.71889 4.50694 9.00819C4.51015 9.01232 4.51366 9.01652 4.51718 9.02086C4.51594 9.02155 4.51488 9.02224 4.51382 9.02293C4.19141 9.21832 3.75 9.48596 3.75 10C3.75 10.5141 4.19141 10.7817 4.51382 10.9771C4.51488 10.9778 4.5161 10.9785 4.51718 10.9793C4.51366 10.9836 4.51015 10.988 4.5068 10.9922C4.27228 11.2815 3.95094 11.6779 4.12107 12.1547C4.2938 12.6388 4.79899 12.7398 5.16777 12.8135C5.16946 12.8138 5.17113 12.8141 5.1728 12.8144C5.17128 12.8186 5.16975 12.8228 5.16838 12.8269C5.04524 13.1804 4.87664 13.6647 5.19966 14.0569C5.36826 14.2618 5.6159 14.3658 5.93524 14.3658C6.09439 14.3658 6.25246 14.3415 6.40519 14.3181C6.40672 14.3179 6.40825 14.3177 6.40962 14.3174C6.40976 14.3206 6.40976 14.3236 6.40976 14.3266C6.41359 14.7027 6.41878 15.2176 6.85805 15.4772C6.98164 15.5501 7.12568 15.5886 7.27475 15.5886C7.5709 15.5886 7.82906 15.4462 8.07869 15.3085C8.08052 15.3075 8.08235 15.3065 8.08418 15.3055C8.08464 15.3065 8.08494 15.3075 8.0854 15.3085C8.2189 15.6624 8.40185 16.1473 8.90841 16.2378C8.95374 16.2459 9.00027 16.25 9.0465 16.25C9.47662 16.25 9.76043 15.9215 9.98853 15.6575C9.99204 15.6534 9.99586 15.6492 9.99951 15.6447C10.0033 15.6492 10.0072 15.6535 10.0108 15.6577C10.2388 15.9216 10.5227 16.25 10.9527 16.25C10.9989 16.25 11.0455 16.2459 11.0909 16.2378C11.5973 16.1473 11.7804 15.6624 11.9141 15.3083C11.9144 15.3074 11.9147 15.3064 11.9152 15.3055C11.917 15.3066 11.9188 15.3076 11.9206 15.3087C12.1703 15.4463 12.4284 15.5886 12.7244 15.5886C12.8737 15.5886 13.0177 15.55 13.141 15.4772C13.5803 15.2177 13.5856 14.7026 13.5894 14.3264C13.5896 14.3235 13.5896 14.3205 13.5896 14.3174C13.5911 14.3177 13.5925 14.3179 13.594 14.3181C13.7469 14.3416 13.9048 14.3658 14.0639 14.3658C14.3833 14.3658 14.6309 14.2618 14.7997 14.0567C15.1225 13.6648 14.9539 13.1805 14.8308 12.8269C14.8294 12.8228 14.8281 12.8186 14.8265 12.8144C14.8282 12.8141 14.8297 12.8138 14.8314 12.8135C15.2002 12.7398 15.7052 12.6388 15.8781 12.1552C16.0484 11.6779 15.7271 11.2815 15.4925 10.992C15.4892 10.9879 15.4857 10.9836 15.4822 10.9793C15.4832 10.9786 15.4843 10.9779 15.4855 10.9772C15.8078 10.7817 16.2493 10.5141 16.2493 10C16.2493 9.48596 15.8078 9.21832 15.4855 9.02285C15.4843 9.02216 15.4832 9.02155 15.4822 9.02086C15.4857 9.0166 15.489 9.0124 15.4924 9.00827C15.7269 8.71897 16.0482 8.32269 15.8783 7.84563C15.7052 7.36139 15.2002 7.26045 14.8314 7.18675C14.8299 7.18645 14.8282 7.18614 14.8265 7.18584C14.8281 7.18156 14.8294 7.17744 14.831 7.1734C14.9541 6.81962 15.1228 6.33507 14.7991 5.94285C14.6306 5.73831 14.3831 5.63432 14.0638 5.63432C13.9048 5.6344 13.7467 5.65857 13.594 5.68199C13.5925 5.68223 13.5911 5.68238 13.5896 5.68262C13.5896 5.67963 13.5896 5.67659 13.5896 5.67368C13.5856 5.29787 13.5804 4.78318 13.1419 4.52332C13.0177 4.45008 12.8738 4.41171 12.7247 4.41171C12.4286 4.41171 12.1704 4.55399 11.9208 4.69163C11.9188 4.69261 11.917 4.69369 11.9152 4.69468C11.9147 4.69375 11.9144 4.69285 11.9141 4.69193C11.7804 4.33777 11.5973 3.85277 11.0908 3.7622C11.0453 3.75412 10.9989 3.75 10.9527 3.75C10.5227 3.75 10.2389 4.07852 10.0108 4.3425C10.0072 4.34669 10.0033 4.35097 9.99951 4.35539C9.99586 4.35105 9.99204 4.34677 9.98853 4.34258C9.76043 4.07852 9.47648 3.75 9.0465 3.75C9.00027 3.75 8.95388 3.75405 8.90873 3.76213C8.40185 3.85277 8.2189 4.33769 8.0854 4.69171ZM8.80161 9.73712C8.92474 9.66013 9.06405 9.57049 9.13042 9.52418C9.16018 9.47207 9.92673 8.20452 9.97389 8.00516V7.74972C9.97389 7.70395 9.97143 7.65703 9.96915 7.60987C9.95695 7.35475 9.94001 7.00525 10.2404 6.75164C10.3762 6.63682 10.5326 6.57175 10.6924 6.56343C10.817 6.55709 10.9464 6.58387 11.0728 6.64315C11.614 6.89676 11.6954 7.68861 11.7302 8.02675C11.7452 8.16842 11.6483 8.66189 11.5455 9.05252L12.8537 9.0539C13.2699 9.0539 13.5737 9.32521 13.592 9.7137C13.6047 9.98729 13.5101 10.1603 13.4213 10.261C13.4785 10.3542 13.5127 10.4612 13.5127 10.5794C13.5127 10.804 13.4126 11.0055 13.2548 11.1415C13.2934 11.2316 13.3148 11.3308 13.3148 11.4351C13.3148 11.6827 13.1932 11.9023 13.0067 12.0369C13.0354 12.1161 13.051 12.2016 13.051 12.2907C13.051 12.6993 12.7196 13.0317 12.3122 13.0317L9.72701 13.0307C9.69832 13.0307 9.66964 13.0268 9.64201 13.0189C9.51308 12.9824 9.41361 12.9149 9.33366 12.8607C9.29505 12.8344 9.25829 12.8095 9.22929 12.7959C9.20152 12.796 9.18001 12.7983 9.15865 12.8003C9.05581 12.8093 8.96258 12.8073 8.88065 12.7861C8.79581 12.8633 8.69099 12.9183 8.57624 12.9341C8.57624 12.9341 7.17572 13.125 7.15344 13.125C6.90871 13.125 6.71859 12.9392 6.71859 12.6848V9.85163C6.71859 9.60109 6.9026 9.42118 7.1414 9.42118C7.16686 9.42118 7.8132 9.52243 7.81366 9.52243C7.84523 9.52243 8.57777 9.64541 8.57777 9.64541C8.65849 9.6583 8.73386 9.69173 8.80161 9.73712Z" fill="#464646"/>
<path d="M9.68507 12.3435C9.72108 12.3679 9.75571 12.3914 9.7841 12.4057L9.91409 12.4058C9.92203 12.4058 9.93012 12.4061 9.9379 12.4067L11.484 12.4076C11.4919 12.407 11.4998 12.4067 11.5078 12.4067H12.3126C12.3753 12.4067 12.4265 12.3547 12.4265 12.2907C12.4265 12.2289 12.3789 12.1784 12.3181 12.1758C12.2968 12.1748 12.2762 12.1717 12.2562 12.1668H11.993C11.8204 12.1668 11.6805 12.0268 11.6805 11.8543C11.6805 11.6817 11.8204 11.5418 11.993 11.5418H12.5002C12.5252 11.5418 12.5493 11.5455 12.5726 11.5511H12.5768C12.6393 11.5511 12.6903 11.499 12.6903 11.4351C12.6903 11.3732 12.6425 11.3228 12.5817 11.3201C12.5494 11.3188 12.5192 11.3112 12.4903 11.3008H12.0476C11.8751 11.3008 11.7351 11.1609 11.7351 10.9883C11.7351 10.8157 11.8751 10.6758 12.0476 10.6758H12.8339C12.8657 10.6552 12.8882 10.6207 12.8882 10.5794C12.8784 10.563 12.7985 10.5039 12.7061 10.4888H12.0476C11.8751 10.4888 11.7351 10.3489 11.7351 10.1763C11.7351 10.0037 11.8751 9.86382 12.0476 9.86382H12.9176C12.9364 9.85879 12.9483 9.8526 12.9529 9.84789C12.9582 9.84223 12.9713 9.81248 12.9681 9.74298C12.9669 9.71596 12.9651 9.67888 12.8538 9.67888L11.1228 9.67706C11.0052 9.6769 10.8976 9.61076 10.8444 9.50577C10.7974 9.41301 10.8 9.30382 10.8493 9.21418C10.9109 9.05809 11.1102 8.24333 11.1085 8.08213C11.0429 7.44759 10.9088 7.25623 10.8079 7.20902C10.7783 7.19513 10.7505 7.1875 10.7296 7.1875C10.7036 7.18872 10.6741 7.20383 10.6442 7.22908C10.5861 7.27822 10.5842 7.37847 10.594 7.57974C10.5967 7.63703 10.5993 7.6941 10.5993 7.74971V8.02041C10.5993 8.23533 10.4171 8.60215 9.8195 9.59017C9.75144 9.70278 9.67424 9.83042 9.65943 9.85971C9.62693 9.93271 9.61306 9.96392 9.25586 10.1903V12.1711C9.32223 12.1736 9.38175 12.1848 9.43682 12.2054C9.53753 12.2433 9.61595 12.2966 9.68507 12.3435Z" fill="#464646"/>
<path d="M7.50136 10.5285V10.1054L7.34375 10.0801V12.4725L8.45438 12.3198V10.2584L8.12633 10.2057V10.5285C8.12633 10.7011 7.98642 10.841 7.81385 10.841C7.64128 10.841 7.50136 10.7011 7.50136 10.5285Z" fill="#464646"/>
</g>
<defs>
<clipPath id="clip0">
<rect width="20" height="20" fill="white"/>
</clipPath>
</defs>
</svg>
