<svg width="18" height="17" viewBox="0 0 18 17" fill="none" xmlns="http://www.w3.org/2000/svg">
<path d="M17.8891 3.22107C17.7804 3.07207 17.6069 2.98389 17.4225 2.98389H4.42787C4.4027 2.98389 4.37756 2.98542 4.35335 2.98868L3.81856 1.44707C3.76313 1.28763 3.64107 1.16054 3.48421 1.09878L0.788982 0.0399967C0.491938 -0.0762992 0.156747 0.0696044 0.0400882 0.366286C-0.0763688 0.663128 0.0694946 0.998522 0.366377 1.11518L2.81427 2.07681L5.81053 10.7134C5.67828 10.7594 5.56622 10.8609 5.51518 11.0029L4.64886 13.4093C4.59577 13.5569 4.61764 13.7208 4.708 13.849C4.79823 13.9773 4.94498 14.0536 5.10168 14.0536H5.54656C5.27087 14.3604 5.10168 14.7644 5.10168 15.2087C5.10168 16.1641 5.87905 16.9413 6.83431 16.9413C7.78958 16.9413 8.56695 16.1641 8.56695 15.2087C8.56695 14.7644 8.39776 14.3604 8.12207 14.0536H11.8996C11.6238 14.3604 11.4546 14.7644 11.4546 15.2087C11.4546 16.1641 12.2318 16.9413 13.1872 16.9413C14.1427 16.9413 14.9199 16.1641 14.9199 15.2087C14.9199 14.7644 14.7507 14.3604 14.475 14.0536H15.0162C15.282 14.0536 15.4974 13.8381 15.4974 13.5723C15.4974 13.3065 15.2819 13.091 15.0162 13.091H5.78648L6.32301 11.6007C6.39229 11.6299 6.46714 11.6472 6.54549 11.6472H15.016C15.2672 11.6472 15.4894 11.4849 15.5659 11.246L17.9723 3.73782C18.0288 3.56203 17.9978 3.37008 17.8891 3.22107ZM6.83431 15.9787C6.40962 15.9787 6.06427 15.6334 6.06427 15.2087C6.06427 14.784 6.40962 14.4386 6.83431 14.4386C7.25901 14.4386 7.60436 14.784 7.60436 15.2087C7.60436 15.6334 7.25901 15.9787 6.83431 15.9787ZM13.1872 15.9787C12.7625 15.9787 12.4171 15.6334 12.4171 15.2087C12.4171 14.784 12.7625 14.4386 13.1872 14.4386C13.6119 14.4386 13.9572 14.784 13.9572 15.2087C13.9572 15.6334 13.6119 15.9787 13.1872 15.9787ZM16.2146 5.43847H13.2674V4.13899H16.631L16.2146 5.43847ZM15.3659 8.08552H13.2674V6.59353H15.8442L15.3659 8.08552ZM9.44914 8.08552V6.59353H12.1123V8.08552H9.44914ZM12.1123 9.24071V10.492H9.44914V9.24071H12.1123V9.24071ZM5.60392 6.59353H8.29416V8.08552H6.12159L5.60392 6.59353ZM9.44914 5.43847V4.13899H12.1123V5.43847H9.44914ZM8.29412 4.13899V5.43847H5.20307L4.75227 4.13899H8.29412ZM6.52241 9.24071H8.29412V10.492H6.95649L6.52241 9.24071ZM13.2674 10.4921V9.24075H14.9959L14.5949 10.4921H13.2674Z" fill="url(#paint0_linear)"/>
<defs>
<linearGradient id="paint0_linear" x1="5.625" y1="16.9413" x2="15.875" y2="16.9413" gradientUnits="userSpaceOnUse">
<stop stop-color="#E6B712"/>
<stop offset="1" stop-color="#CAAA3B"/>
</linearGradient>
</defs>
</svg>

