<svg width="18" height="17" viewBox="0 0 18 17" fill="none" xmlns="http://www.w3.org/2000/svg">
<path d="M17.9702 5.06923C17.7075 2.13164 15.6606 0.000351656 13.0989 0.000351656C11.3922 0.000351656 9.82958 0.933251 8.95029 2.42842C8.07897 0.91391 6.58037 0 4.90107 0C2.33972 0 0.292437 2.13129 0.0300354 5.06888C0.00926481 5.19863 -0.0758944 5.88152 0.183045 6.99516C0.556222 8.60145 1.4182 10.0625 2.67516 11.2194L8.94614 17L15.3248 11.2198C16.5817 10.0625 17.4437 8.6018 17.8169 6.99516C18.0758 5.88187 17.9907 5.19899 17.9702 5.06923Z" fill="url(#paint0_linear)"/>
<defs>
<linearGradient id="paint0_linear" x1="5.625" y1="17" x2="15.875" y2="17" gradientUnits="userSpaceOnUse">
<stop stop-color="#E6B712"/>
<stop offset="1" stop-color="#CAAA3B"/>
</linearGradient>
</defs>
</svg>
