<svg width="32" height="32" viewBox="0 0 32 32" fill="none" xmlns="http://www.w3.org/2000/svg">
<path d="M23.9995 11.9998C23.9995 5.37309 18.6267 0 11.9998 0C5.37309 0 0 5.37309 0 11.9998C0 18.6265 5.37309 23.9993 11.9998 23.9993C18.6267 23.9993 23.9995 18.6265 23.9995 11.9998ZM11.9998 20.9993C7.03699 20.9993 3.00003 16.9627 3.00003 11.9999C3.00003 7.03705 7.03699 3.0001 11.9998 3.0001C16.9625 3.0001 20.9998 7.03705 20.9998 11.9999C20.9998 16.9627 16.9625 20.9993 11.9998 20.9993Z" fill="white"/>
<path d="M31.1199 26.8793L23.7787 19.5376C22.6849 21.2388 21.2373 22.6856 19.5361 23.7795L26.8779 31.1213C28.0499 32.2931 29.9503 32.2931 31.1198 31.1213C32.2919 29.9514 32.2919 28.0511 31.1199 26.8793Z" fill="white"/>
</svg>
