<svg width="9" height="16" viewBox="0 0 9 16" fill="none" xmlns="http://www.w3.org/2000/svg">
<path d="M4.49966 4.27644C5.87115 4.27644 6.98191 5.44498 6.98191 6.8864C6.98191 8.32747 5.87115 9.49618 4.49966 9.49618C3.12919 9.49618 2.01742 8.32764 2.01742 6.8864C2.01742 5.44498 3.12919 4.27644 4.49966 4.27644ZM7.31485 6.24107C7.31485 4.32053 5.53838 2.84587 4.07491 2.76391C2.53686 2.67822 1.51894 3.55076 1.08083 4.77547C1.08083 4.7584 1.07846 4.74169 1.07846 4.7248C1.07846 2.73796 2.61059 1.128 4.49949 1.128C6.38925 1.128 7.92053 2.73813 7.92053 4.7248C7.92053 5.51502 7.67535 6.24409 7.26378 6.83822C7.29557 6.64356 7.31485 6.44533 7.31485 6.24107ZM1.28221 5.84818C1.28221 4.40693 2.39314 3.23876 3.76446 3.23876C4.57102 3.23876 5.28576 3.6448 5.73926 4.27164C5.36574 4.07573 4.94589 3.96302 4.49983 3.96302C2.96415 3.96302 1.71931 5.27147 1.71931 6.8864C1.71931 7.05796 1.73656 7.224 1.76294 7.38756C1.46162 6.95502 1.28221 6.42436 1.28221 5.84818ZM1.9672 1.73138C2.39922 0.712 3.3698 0 4.49966 0C5.63054 0 6.60078 0.712 7.03247 1.73138C6.36135 1.09511 5.47497 0.704178 4.49966 0.704178C3.52452 0.704178 2.63866 1.09511 1.9672 1.73138ZM0.0294218 14.9815C0.0114985 14.8075 9.53674e-07 14.6313 9.53674e-07 14.4523C9.53674e-07 11.8391 2.01471 9.72107 4.49966 9.72107C6.98529 9.72107 9 11.8391 9 14.4523C9 14.6313 8.98833 14.8073 8.9699 14.9815H0.0294218ZM0.166386 15.2258H8.83345C8.92509 15.2258 9 15.3047 9 15.4004V15.8247C9 15.9214 8.92509 16 8.83345 16H0.166386C0.0747385 16 9.53674e-07 15.9214 9.53674e-07 15.8247V15.4004C9.53674e-07 15.3047 0.0747385 15.2258 0.166386 15.2258Z" fill="white"/>
</svg>
