<svg width="26" height="26" viewBox="0 0 26 26" fill="none" xmlns="http://www.w3.org/2000/svg">
<circle cx="13" cy="13" r="12.5" stroke="black"/>
<path d="M13.0013 9.92335C11.2987 9.92335 9.92538 11.297 9.92538 13C9.92538 14.703 11.2987 16.0766 13.0013 16.0766C14.704 16.0766 16.0773 14.703 16.0773 13C16.0773 11.297 14.704 9.92335 13.0013 9.92335ZM13.0013 15.0002C11.9011 15.0002 11.0016 14.1032 11.0016 13C11.0016 11.8968 11.8984 10.9998 13.0013 10.9998C14.1043 10.9998 15.0011 11.8968 15.0011 13C15.0011 14.1032 14.1016 15.0002 13.0013 15.0002ZM16.9206 9.7975C16.9206 10.1965 16.5993 10.5151 16.2031 10.5151C15.8042 10.5151 15.4857 10.1938 15.4857 9.7975C15.4857 9.40121 15.8069 9.07988 16.2031 9.07988C16.5993 9.07988 16.9206 9.40121 16.9206 9.7975ZM18.9578 10.5258C18.9123 9.56454 18.6928 8.71304 17.9887 8.01149C17.2873 7.30994 16.436 7.09037 15.475 7.04217C14.4844 6.98594 11.5156 6.98594 10.525 7.04217C9.56665 7.08769 8.71534 7.30726 8.01127 8.00881C7.30719 8.71036 7.09035 9.56187 7.04216 10.5232C6.98595 11.5139 6.98595 14.4834 7.04216 15.4742C7.08767 16.4355 7.30719 17.287 8.01127 17.9885C8.71534 18.6901 9.56397 18.9096 10.525 18.9578C11.5156 19.0141 14.4844 19.0141 15.475 18.9578C16.436 18.9123 17.2873 18.6927 17.9887 17.9885C18.6901 17.287 18.9096 16.4355 18.9578 15.4742C19.0141 14.4834 19.0141 11.5166 18.9578 10.5258ZM17.6782 16.5372C17.4694 17.062 17.0651 17.4664 16.5378 17.6779C15.748 17.9912 13.8741 17.9189 13.0013 17.9189C12.1286 17.9189 10.252 17.9885 9.46492 17.6779C8.94021 17.469 8.53597 17.0647 8.32448 16.5372C8.01127 15.7473 8.08355 13.8729 8.08355 13C8.08355 12.1271 8.01394 10.25 8.32448 9.46279C8.5333 8.93797 8.93753 8.53364 9.46492 8.3221C10.2547 8.00881 12.1286 8.08111 13.0013 8.08111C13.8741 8.08111 15.7507 8.01149 16.5378 8.3221C17.0625 8.53096 17.4667 8.93529 17.6782 9.46279C17.9914 10.2527 17.9191 12.1271 17.9191 13C17.9191 13.8729 17.9914 15.75 17.6782 16.5372Z" fill="black"/>
</svg>
