<svg width="26" height="26" viewBox="0 0 26 26" fill="none" xmlns="http://www.w3.org/2000/svg">
<path d="M9.68601 19H7.19817V10.9884H9.68601V19ZM8.44075 9.89554C7.64539 9.89554 7 9.23661 7 8.44107C7 7.64554 7.64539 7 8.44075 7C9.23611 7 9.8815 7.64554 9.8815 8.44107C9.8815 9.23661 9.23611 9.89554 8.44075 9.89554ZM18.9973 19H16.5148V15.1C16.5148 14.1705 16.4961 12.9786 15.2214 12.9786C13.9279 12.9786 13.7297 13.9884 13.7297 15.033V19H11.2446V10.9884H13.6307V12.0813H13.6655C13.9975 11.4518 14.809 10.7875 16.0194 10.7875C18.5367 10.7875 19 12.4455 19 14.5991V19H18.9973Z" fill="black"/>
<circle cx="13" cy="13" r="12.5" stroke="black"/>
</svg>
