<svg width="30" height="28" viewBox="0 0 30 28" fill="none" xmlns="http://www.w3.org/2000/svg">
<path d="M15.5253 14.9394C16.4197 14.5131 16.7116 13.2596 16.18 12.146C15.6475 11.0287 14.49 10.4663 13.5956 10.8925C12.7012 11.3187 12.4092 12.5722 12.9418 13.6896C13.4743 14.8051 14.6318 15.3675 15.5253 14.9394Z" fill="white"/>
<path d="M18.2058 8.27173C19.0657 13.6542 15.2352 17.6889 15.2352 17.6889C15.2352 17.6889 12.0772 12.3456 6.7666 10.733C17.0969 18.2867 11.2173 27.7039 11.2173 27.7039H14.2074C14.2084 27.7039 21.1586 15.7088 18.2058 8.27173Z" fill="white"/>
<path d="M12.3761 8.88615C12.3183 8.80035 12.2595 8.70894 12.2007 8.60821C11.9275 8.13628 11.8025 7.69793 11.8025 7.69793C11.8025 7.69793 12.1177 8.02809 12.391 8.49723C12.4479 8.59702 12.4973 8.69495 12.543 8.78822C12.5859 8.56345 12.6363 8.10178 12.4181 7.72125C12.1168 7.19988 11.4229 7.0376 11.4229 7.0376C11.4229 7.0376 11.2158 7.72031 11.5171 8.24261C11.7353 8.62314 12.1606 8.8106 12.3761 8.88615Z" fill="white"/>
<path d="M19.2334 12.8457C19.4069 12.9949 19.7818 13.2691 20.2192 13.2691C20.8217 13.2691 21.3086 12.7477 21.3086 12.7477C21.3086 12.7477 20.8227 12.2273 20.2192 12.2273C19.7818 12.2273 19.4069 12.5015 19.2334 12.6507C19.3369 12.6433 19.4451 12.6377 19.5617 12.6377C20.1064 12.6377 20.5513 12.7459 20.5513 12.7459C20.5513 12.7459 20.1064 12.8559 19.5617 12.855C19.4442 12.8596 19.3369 12.8531 19.2334 12.8457Z" fill="white"/>
<path d="M17.0451 8.49942C17.3165 8.02749 17.6336 7.69826 17.6336 7.69826C17.6336 7.69826 17.5077 8.13848 17.2344 8.61041C17.1766 8.70928 17.1178 8.80254 17.0581 8.88835C17.2764 8.8128 17.7008 8.6244 17.9181 8.24667C18.2203 7.72344 18.0151 7.03979 18.0151 7.03979C18.0151 7.03979 17.3193 7.20488 17.019 7.72437C16.8007 8.10304 16.8492 8.56378 16.8931 8.79135C16.936 8.69715 16.9863 8.59922 17.0451 8.49942Z" fill="white"/>
<path d="M14.4746 5.65852C14.4746 4.44512 14.718 3.46302 14.718 3.46302C14.718 3.46302 14.9624 4.44698 14.9624 5.65852C14.9624 5.91501 14.9503 6.1575 14.9316 6.38694C15.2655 6.00175 15.8745 5.16701 15.8745 4.1933C15.8745 2.85398 14.718 1.76929 14.718 1.76929C14.718 1.76929 13.5615 2.85398 13.5615 4.1933C13.5615 5.16701 14.1706 6.00081 14.5035 6.38694C14.4867 6.1575 14.4746 5.91594 14.4746 5.65852Z" fill="white"/>
<path d="M6.73123 9.47307C7.5753 9.95992 8.60124 9.84894 9.10208 9.75287C8.89503 9.65587 8.67772 9.54209 8.45668 9.41525C7.40649 8.80994 6.67714 8.10764 6.67714 8.10764C6.67714 8.10764 7.64992 8.38744 8.7001 8.99368C8.92208 9.12239 9.12633 9.25296 9.3166 9.38447C9.15058 8.90134 8.73368 7.95748 7.88868 7.47063C6.7303 6.80004 5.21191 7.25891 5.21191 7.25891C5.21191 7.25891 5.57193 8.80435 6.73123 9.47307Z" fill="white"/>
<path d="M22.7026 16.0231C21.8595 15.5371 20.8336 15.6463 20.3327 15.7423C20.5407 15.8403 20.7571 15.954 20.9791 16.0809C22.0283 16.6871 22.7586 17.3885 22.7586 17.3885C22.7586 17.3885 21.7858 17.1096 20.7347 16.5034C20.5127 16.3737 20.3085 16.2432 20.1191 16.1117C20.2852 16.5948 20.7021 17.5377 21.5452 18.0246C22.7036 18.6952 24.2229 18.2363 24.2229 18.2363C24.2229 18.2363 23.861 16.6918 22.7026 16.0231Z" fill="white"/>
<path d="M9.3146 16.1145C9.12434 16.2442 8.92101 16.3748 8.69904 16.5044C7.64885 17.1088 6.67514 17.3914 6.67514 17.3914C6.67514 17.3914 7.40449 16.6881 8.45468 16.0819C8.67759 15.9523 8.89397 15.8431 9.10102 15.7433C8.60111 15.6463 7.5733 15.5353 6.73017 16.0241C5.57086 16.6928 5.20898 18.2373 5.20898 18.2373C5.20898 18.2373 6.72737 18.6962 7.88668 18.0274C8.73168 17.5387 9.14859 16.5958 9.3146 16.1145Z" fill="white"/>
<path d="M20.1201 9.38074C20.3094 9.2511 20.5137 9.12053 20.7375 8.99182C21.7868 8.38558 22.7596 8.10578 22.7596 8.10578C22.7596 8.10578 22.0312 8.80808 20.98 9.41339C20.7581 9.5421 20.5408 9.65402 20.3356 9.75101C20.8345 9.84801 21.8623 9.95993 22.7036 9.47121C23.8639 8.80155 24.2248 7.25705 24.2248 7.25705C24.2248 7.25705 22.7073 6.79911 21.549 7.46877C20.703 7.95562 20.2852 8.89948 20.1201 9.38074Z" fill="white"/>
<path d="M10.2043 5.50642C10.0308 5.2518 9.85453 4.97759 9.68199 4.67914C8.8687 3.27267 8.49284 1.96693 8.49284 1.96693C8.49284 1.96693 9.43483 2.94437 10.2472 4.35457C10.4197 4.65116 10.568 4.94122 10.7005 5.22009C10.831 4.5495 10.9793 3.17381 10.3265 2.04341C9.42924 0.488651 7.35871 0.00366211 7.35871 0.00366211C7.35871 0.00366211 6.74408 2.03875 7.64131 3.59258C8.29418 4.72391 9.56074 5.28258 10.2043 5.50642Z" fill="white"/>
<path d="M19.2316 19.991C19.405 20.2456 19.5832 20.5189 19.7548 20.8164C20.569 22.2284 20.9439 23.5305 20.9439 23.5305C20.9439 23.5305 20.002 22.5521 19.1877 21.1437C19.0161 20.8453 18.8669 20.5552 18.7345 20.2782C18.6067 20.9488 18.4574 22.3217 19.1094 23.453C20.0075 25.0069 22.0771 25.4937 22.0771 25.4937C22.0771 25.4937 22.6946 23.4568 21.7964 21.9029C21.1417 20.7725 19.876 20.2139 19.2316 19.991Z" fill="white"/>
<path d="M5.21176 13.0758C3.58612 13.0758 2.26825 12.7475 2.26825 12.7475C2.26825 12.7475 3.58612 12.4192 5.21176 12.4192C5.55685 12.4192 5.88235 12.4379 6.1892 12.4603C5.67344 12.0126 4.5561 11.1956 3.24849 11.1956C1.45497 11.1965 0 12.7475 0 12.7475C0 12.7475 1.4559 14.2995 3.24849 14.2986C4.55516 14.2986 5.6725 13.4825 6.18827 13.0357C5.88142 13.059 5.55499 13.0758 5.21176 13.0758Z" fill="white"/>
<path d="M26.1868 11.1995C24.8811 11.1995 23.7638 12.0128 23.2471 12.4623C23.5549 12.439 23.8813 12.4213 24.2236 12.4222C25.8502 12.4222 27.1671 12.7496 27.1671 12.7496C27.1671 12.7496 25.8502 13.0779 24.2254 13.0779C23.8813 13.0779 23.5549 13.0601 23.2471 13.0378C23.7628 13.4845 24.8811 14.3006 26.1868 14.3006C27.9813 14.3006 29.4344 12.7514 29.4344 12.7514C29.4344 12.7514 27.9794 11.1976 26.1868 11.1995Z" fill="white"/>
<path d="M10.2485 21.1444C9.43518 22.5527 8.49319 23.5311 8.49319 23.5311C8.49319 23.5311 8.86812 22.2254 9.68141 20.817C9.85489 20.5204 10.0312 20.2472 10.2056 19.9897C9.56016 20.2136 8.29359 20.7732 7.64073 21.9045C6.74256 23.4583 7.35813 25.4953 7.35813 25.4953C7.35813 25.4953 9.42959 25.0103 10.3268 23.4565C10.9806 22.3252 10.8323 20.9485 10.7027 20.2798C10.5674 20.5559 10.4192 20.8431 10.2485 21.1444Z" fill="white"/>
<path d="M19.1879 4.35184C20.0002 2.94351 20.9422 1.96607 20.9422 1.96607C20.9422 1.96607 20.5673 3.27088 19.7531 4.67828C19.5815 4.97393 19.4052 5.25 19.2317 5.50462C19.8762 5.28171 21.1428 4.72211 21.7947 3.59171C22.6929 2.03789 22.0773 0 22.0773 0C22.0773 0 20.0077 0.485921 19.1095 2.03975C18.4539 3.17108 18.6031 4.54677 18.7327 5.21643C18.8671 4.94129 19.0144 4.65123 19.1879 4.35184Z" fill="white"/>
</svg>
