<svg width="30" height="30" viewBox="0 0 30 30" fill="none" xmlns="http://www.w3.org/2000/svg">
<path d="M10.5813 23H7.26423V12.3179H10.5813V23ZM8.921 10.8607C7.86052 10.8607 7 9.98214 7 8.92143C7 7.86071 7.86052 7 8.921 7C9.98148 7 10.842 7.86071 10.842 8.92143C10.842 9.98214 9.98148 10.8607 8.921 10.8607ZM22.9964 23H19.6865V17.8C19.6865 16.5607 19.6615 14.9714 17.9618 14.9714C16.2372 14.9714 15.973 16.3179 15.973 17.7107V23H12.6595V12.3179H15.8409V13.775H15.8873C16.3301 12.9357 17.412 12.05 19.0259 12.05C22.3823 12.05 23 14.2607 23 17.1321V23H22.9964Z" fill="white"/>
<circle cx="15" cy="15" r="14.5" stroke="white"/>
</svg>
