<svg width="21" height="26" viewBox="0 0 21 26" fill="none" xmlns="http://www.w3.org/2000/svg">
<path d="M11.9994 25.4754C19.567 14.7789 20.9717 13.6811 20.9717 9.75C20.9717 4.36521 16.4945 0 10.9717 0C5.44882 0 0.97168 4.36521 0.97168 9.75C0.97168 13.6811 2.37637 14.7789 9.94397 25.4754C10.4406 26.1749 11.5028 26.1748 11.9994 25.4754ZM10.9717 13.8125C8.67048 13.8125 6.80501 11.9937 6.80501 9.75C6.80501 7.50633 8.67048 5.6875 10.9717 5.6875C13.2729 5.6875 15.1383 7.50633 15.1383 9.75C15.1383 11.9937 13.2729 13.8125 10.9717 13.8125Z" fill="url(#paint0_linear)"/>
<defs>
<linearGradient id="paint0_linear" x1="14.7217" y1="26" x2="3.33279" y2="26" gradientUnits="userSpaceOnUse">
<stop stop-color="#E6B712"/>
<stop offset="1" stop-color="#CAAA3B"/>
</linearGradient>
</defs>
</svg>
