<svg width="19" height="14" viewBox="0 0 19 14" fill="none" xmlns="http://www.w3.org/2000/svg">
<path d="M17.8984 4.96484C17.9688 4.89453 18.0391 4.88281 18.1094 4.92969C18.2031 4.97656 18.25 5.04688 18.25 5.14062V12.3125C18.25 12.7812 18.0859 13.1797 17.7578 13.5078C17.4297 13.8359 17.0312 14 16.5625 14H1.9375C1.46875 14 1.07031 13.8359 0.742188 13.5078C0.414062 13.1797 0.25 12.7812 0.25 12.3125V5.14062C0.25 5.04688 0.285156 4.98828 0.355469 4.96484C0.449219 4.91797 0.53125 4.91797 0.601562 4.96484C1.375 5.55078 3.17969 6.875 6.01562 8.9375L6.36719 9.25391C6.92969 9.67578 7.375 9.98047 7.70312 10.168C8.26562 10.4727 8.78125 10.625 9.25 10.625C9.71875 10.625 10.2344 10.4609 10.7969 10.1328C11.1484 9.94531 11.5938 9.64062 12.1328 9.21875L12.4844 8.9375C15.25 6.94531 17.0547 5.62109 17.8984 4.96484ZM9.25 9.5C9.55469 9.5 9.92969 9.35938 10.375 9.07812C10.6328 8.9375 10.9961 8.67969 11.4648 8.30469L11.8164 8.05859C14.7695 5.92578 16.75 4.46094 17.7578 3.66406L17.9336 3.52344C18.1445 3.35937 18.25 3.13672 18.25 2.85547V2.1875C18.25 1.71875 18.0859 1.32031 17.7578 0.992188C17.4297 0.664063 17.0312 0.5 16.5625 0.5H1.9375C1.46875 0.5 1.07031 0.664063 0.742188 0.992188C0.414062 1.32031 0.25 1.71875 0.25 2.1875V2.85547C0.25 3.13672 0.355469 3.35937 0.566406 3.52344L0.8125 3.69922C1.84375 4.49609 3.80078 5.94922 6.68359 8.05859L7.03516 8.30469C7.50391 8.67969 7.86719 8.9375 8.125 9.07812C8.57031 9.35938 8.94531 9.5 9.25 9.5Z" fill="url(#paint0_linear)"/>
<defs>
<linearGradient id="paint0_linear" x1="4.375" y1="15" x2="21.4583" y2="15" gradientUnits="userSpaceOnUse">
<stop stop-color="#E6B712"/>
<stop offset="1" stop-color="#CAAA3B"/>
</linearGradient>
</defs>
</svg>
