<svg width="12" height="20" viewBox="0 0 12 20" fill="none" xmlns="http://www.w3.org/2000/svg">
<path d="M8.69943 10L0.442668 18.2567C0.253177 18.4462 0.253177 18.7535 0.442668 18.9429L1.35758 19.8579C1.44855 19.9489 1.57199 20 1.70066 20C1.82934 20 1.95278 19.9489 2.04374 19.8579L11.5586 10.3431C11.7481 10.1536 11.7481 9.84638 11.5586 9.65696L2.04381 0.142199C1.95284 0.0511742 1.82941 6.48499e-05 1.70073 6.48499e-05C1.57205 6.48499e-05 1.44861 0.0511742 1.35765 0.142199L0.442734 1.05718C0.253242 1.24667 0.253242 1.55391 0.442734 1.74334L8.69943 10Z" fill="#231F20"/>
</svg>
