<svg width="21" height="21" viewBox="0 0 21 21" fill="none" xmlns="http://www.w3.org/2000/svg">
<path d="M5.6 2.1L4.2 0.7C1.8 2.5 0.2 5.3 0 8.5H2C2.2 5.8 3.5 3.5 5.6 2.1ZM19 8.5H21C20.8 5.3 19.3 2.5 16.9 0.7L15.5 2.1C17.5 3.5 18.8 5.8 19 8.5ZM17 9C17 5.9 14.9 3.4 12 2.7V2C12 1.2 11.3 0.5 10.5 0.5C9.7 0.5 9 1.2 9 2V2.7C6.1 3.4 4 5.9 4 9V14.5L2 16.5V17.5H19V16.5L17 14.5V9ZM10.5 20.5C10.6 20.5 10.8 20.5 10.9 20.5C11.6 20.4 12.1 19.9 12.3 19.3C12.4 19.1 12.5 18.8 12.5 18.5H8.5C8.5 19.6 9.4 20.5 10.5 20.5Z" fill="url(#paint0_linear)"/>
<defs>
<linearGradient id="paint0_linear" x1="6.5625" y1="20.5" x2="18.5208" y2="20.5" gradientUnits="userSpaceOnUse">
<stop stop-color="#E6B712"/>
<stop offset="1" stop-color="#CAAA3B"/>
</linearGradient>
</defs>
</svg>
