<svg width="6" height="12" viewBox="0 0 6 12" fill="none" xmlns="http://www.w3.org/2000/svg">
<path d="M4.2 0H5.4C5.73121 0 6 0.358403 6 0.8V10.4001C6 10.8417 5.7312 11.2001 5.4 11.2001H4.19999C3.86848 11.2001 3.59998 10.8421 3.59998 10.4001V0.8C3.59999 0.358403 3.86849 0 4.2 0ZM0.599961 0H1.79996C2.13147 0 2.39997 0.358403 2.39997 0.8V10.4001C2.39997 10.8417 2.13147 11.2001 1.79996 11.2001H0.59995C0.268444 11.2001 -6.10352e-05 10.8421 -6.10352e-05 10.4001V0.8C-5.05447e-05 0.358403 0.268455 0 0.599961 0Z" fill="white"/>
</svg>
