<svg width="45" height="45" viewBox="0 0 45 45" fill="none" xmlns="http://www.w3.org/2000/svg">
<path d="M0.489862 27.9C0.442186 27.7149 0.438519 27.5212 0.479153 27.3345C0.519788 27.1477 0.603595 26.973 0.723862 26.8245L6.66836 19.4175C7.55093 18.3139 8.7662 17.5248 10.1334 17.1675C10.3514 17.1113 10.5722 17.0662 10.7949 17.0325L13.1889 26.253C13.3314 26.8453 13.6829 27.3662 14.1789 27.72C14.5908 28.0042 15.0807 28.1538 15.5811 28.1482C16.0816 28.1425 16.568 27.9819 16.9734 27.6885L25.9734 21.1635C26.2727 20.9535 26.6083 20.8009 26.9634 20.7135C27.5544 20.5631 28.1775 20.5987 28.7476 20.8153C29.3178 21.0319 29.8072 21.4191 30.1494 21.924C30.5187 22.4933 30.6859 23.1704 30.6238 23.8462C30.5618 24.5221 30.2742 25.1574 29.8074 25.65L25.4379 30.357L31.4994 28.8C31.6264 28.7668 31.7588 28.759 31.8889 28.777C32.0189 28.795 32.1442 28.8384 32.2575 28.9049C32.3707 28.9713 32.4698 29.0595 32.549 29.1643C32.6281 29.269 32.6859 29.3884 32.7189 29.5155L33.6909 33.264C33.7847 33.7886 33.7171 34.3293 33.497 34.8147C33.2769 35.3001 32.9146 35.7072 32.4581 35.9823C32.0017 36.2573 31.4725 36.3873 30.9405 36.3552C30.4085 36.323 29.8988 36.1301 29.4789 35.802C29.4329 36.346 29.2193 36.8624 28.8674 37.2798C28.5155 37.6972 28.0427 37.9951 27.5143 38.1324C26.9859 38.2697 26.4279 38.2396 25.9173 38.0462C25.4068 37.8529 24.9688 37.5058 24.6639 37.053C24.4702 37.5128 24.1498 37.9081 23.7401 38.1928C23.3304 38.4776 22.8482 38.64 22.3498 38.6612C21.8513 38.6824 21.3571 38.5616 20.9246 38.3127C20.4922 38.0638 20.1394 37.6972 19.9074 37.2555C17.4768 39.9959 14.2834 41.9482 10.7364 42.8625L8.67086 43.398L5.81786 44.1405C5.68074 44.1783 5.53743 44.1884 5.39636 44.17C5.2553 44.1517 5.11934 44.1053 4.99648 44.0336C4.87362 43.9618 4.76634 43.8663 4.68097 43.7525C4.59559 43.6387 4.53385 43.509 4.49936 43.371L0.489862 27.9ZM12.8019 12.519L40.5399 5.31899L39.7029 2.11049C39.5847 1.67423 39.299 1.3023 38.9079 1.0756C38.5169 0.848908 38.0522 0.785792 37.6149 0.899987L13.1979 7.22249C12.9797 7.27907 12.7749 7.3781 12.595 7.51392C12.4152 7.64975 12.2639 7.81969 12.1498 8.01404C12.0357 8.20839 11.961 8.42332 11.9301 8.64655C11.8991 8.86978 11.9125 9.09692 11.9694 9.31499L12.8019 12.519ZM15.9834 24.75L24.2319 18.7875C24.8289 18.354 25.5021 18.0364 26.2164 17.8515C27.3989 17.5485 28.646 17.6161 29.7889 18.0451C30.9317 18.474 31.9153 19.2437 32.6064 20.25C33.0895 20.9683 33.4085 21.7842 33.5407 22.6397C33.6729 23.4952 33.6151 24.3693 33.3714 25.2L43.2714 22.6305C43.4895 22.5739 43.6944 22.4749 43.8742 22.3391C44.054 22.2032 44.2053 22.0333 44.3194 21.8389C44.4335 21.6446 44.5082 21.4297 44.5392 21.2064C44.5701 20.9832 44.5568 20.7561 44.4999 20.538L41.3499 8.42849L13.6164 15.6285L15.9834 24.75Z" fill="#E6B712"/>
</svg>
