<svg width="26" height="30" viewBox="0 0 26 30" fill="none" xmlns="http://www.w3.org/2000/svg">
<g clip-path="url(#clip0)">
<path d="M8.14526 18.245V18.5144V18.7839V27.1257H17.8538V18.7839V18.5144V18.245V10.7432H8.14526V18.245Z" fill="white"/>
<path d="M8.14526 28.9746C8.14526 29.5401 8.57194 30.0004 9.09653 30.0004H16.9029C17.4271 30.0004 17.8538 29.5401 17.8538 28.9746V27.665H8.14526V28.9746ZM12.9995 28.0567C13.4065 28.0567 13.7373 28.4134 13.7373 28.8525C13.7373 29.2915 13.4065 29.6483 12.9995 29.6483C12.5925 29.6483 12.2618 29.2915 12.2618 28.8525C12.2618 28.4134 12.5925 28.0567 12.9995 28.0567Z" fill="white"/>
<path d="M16.9029 7.86914H9.09653C8.57194 7.86914 8.14526 8.32938 8.14526 8.89489V10.2045H17.8538V8.89489C17.8538 8.32938 17.4271 7.86914 16.9029 7.86914Z" fill="white"/>
<path d="M3.35986 18.245H7.64523V8.89473C7.64523 8.03173 8.29607 7.33006 9.09612 7.33006H16.9024C17.7022 7.33006 18.353 8.03209 18.353 8.89473V18.2447H22.6397V0H3.35986V18.245Z" fill="white"/>
<path d="M24.7362 0H23.1401V18.2447H24.7362C25.4334 18.2447 26.0006 17.6328 26.0006 16.8805V1.36383C26.0006 0.611856 25.4334 0 24.7362 0Z" fill="white"/>
<path d="M0 1.36383V16.8805C0 17.6328 0.567231 18.2447 1.26436 18.2447H2.86047V0H1.26436C0.567231 0 0 0.611856 0 1.36383ZM2.27159 9.12252C2.27159 9.63701 1.88388 10.0556 1.40725 10.0556C0.929951 10.0556 0.541584 9.63701 0.541584 9.12252C0.541584 8.60802 0.929951 8.18946 1.40725 8.18946C1.88388 8.18946 2.27159 8.60802 2.27159 9.12252Z" fill="white"/>
<path d="M1.40762 9.51677C1.60942 9.51677 1.77301 9.34032 1.77301 9.12264C1.77301 8.90497 1.60942 8.72852 1.40762 8.72852C1.20583 8.72852 1.04224 8.90497 1.04224 9.12264C1.04224 9.34032 1.20583 9.51677 1.40762 9.51677Z" fill="white"/>
<path d="M12.9986 29.1085C13.1302 29.1085 13.2368 28.9935 13.2368 28.8516C13.2368 28.7097 13.1302 28.5947 12.9986 28.5947C12.8671 28.5947 12.7605 28.7097 12.7605 28.8516C12.7605 28.9935 12.8671 29.1085 12.9986 29.1085Z" fill="white"/>
</g>
<defs>
<clipPath id="clip0">
<rect width="26" height="30" fill="white"/>
</clipPath>
</defs>
</svg>
