<svg width="19" height="19" viewBox="0 0 19 19" fill="none" xmlns="http://www.w3.org/2000/svg">
<path d="M11.7461 6.75391C12.4258 7.45703 12.8828 8.26562 13.1172 9.17969C13.3516 10.0938 13.3516 11.0078 13.1172 11.9219C12.8828 12.8359 12.4258 13.6328 11.7461 14.3125L9.35547 16.7031C8.67578 17.3828 7.87891 17.8398 6.96484 18.0742C6.05078 18.3086 5.13672 18.3086 4.22266 18.0742C3.30859 17.8398 2.5 17.3711 1.79688 16.668C1.11719 15.9883 0.660156 15.1914 0.425781 14.2773C0.191406 13.3633 0.191406 12.4492 0.425781 11.5352C0.660156 10.6211 1.11719 9.82422 1.79688 9.14453L3.13281 7.80859C3.29688 7.64453 3.48438 7.60938 3.69531 7.70312C3.92969 7.79688 4.05859 7.96094 4.08203 8.19531C4.10547 8.82812 4.22266 9.44922 4.43359 10.0586C4.50391 10.2695 4.45703 10.457 4.29297 10.6211L3.83594 11.1133C3.34375 11.6055 3.08594 12.2031 3.0625 12.9062C3.0625 13.5859 3.30859 14.1836 3.80078 14.6992C4.29297 15.1914 4.89062 15.4375 5.59375 15.4375C6.29688 15.4375 6.89453 15.1914 7.38672 14.6992L9.74219 12.3438C10.2344 11.8516 10.4805 11.2539 10.4805 10.5508C10.4805 9.84766 10.2344 9.25 9.74219 8.75781C9.625 8.64062 9.49609 8.53516 9.35547 8.44141C9.21484 8.34766 9.14453 8.20703 9.14453 8.01953C9.12109 7.59766 9.25 7.24609 9.53125 6.96484L10.3047 6.22656C10.3984 6.13281 10.5039 6.08594 10.6211 6.08594C10.7617 6.0625 10.8906 6.08594 11.0078 6.15625C11.2656 6.34375 11.5117 6.54297 11.7461 6.75391ZM16.7031 1.79688C16 1.11719 15.1914 0.660156 14.2773 0.425781C13.3633 0.191406 12.4492 0.191406 11.5352 0.425781C10.6211 0.660156 9.82422 1.11719 9.14453 1.79688L6.75391 4.1875C6.07422 4.86719 5.61719 5.66406 5.38281 6.57812C5.14844 7.49219 5.14844 8.40625 5.38281 9.32031C5.61719 10.2344 6.07422 11.043 6.75391 11.7461C6.98828 11.957 7.23438 12.1562 7.49219 12.3438C7.60938 12.4141 7.72656 12.4492 7.84375 12.4492C7.98438 12.4258 8.10156 12.3672 8.19531 12.2734L8.96875 11.5352C9.25 11.2539 9.37891 10.9023 9.35547 10.4805C9.35547 10.293 9.28516 10.1523 9.14453 10.0586C9.00391 9.96484 8.875 9.85938 8.75781 9.74219C8.26562 9.25 8.01953 8.65234 8.01953 7.94922C8.01953 7.24609 8.26562 6.64844 8.75781 6.15625L11.1133 3.80078C11.6055 3.30859 12.2031 3.0625 12.9062 3.0625C13.6094 3.0625 14.207 3.32031 14.6992 3.83594C15.1914 4.32812 15.4258 4.92578 15.4023 5.62891C15.4023 6.30859 15.1562 6.89453 14.6641 7.38672L14.207 7.87891C14.043 8.04297 13.9961 8.23047 14.0664 8.44141C14.2773 9.05078 14.3945 9.67188 14.418 10.3047C14.4414 10.5391 14.5586 10.7031 14.7695 10.7969C15.0039 10.8906 15.2031 10.8555 15.3672 10.6914L16.7031 9.35547C17.3828 8.67578 17.8398 7.87891 18.0742 6.96484C18.3086 6.05078 18.3086 5.13672 18.0742 4.22266C17.8398 3.30859 17.3828 2.5 16.7031 1.79688Z" fill="url(#paint0_linear)"/>
<defs>
<linearGradient id="paint0_linear" x1="4.375" y1="17" x2="21.4583" y2="17" gradientUnits="userSpaceOnUse">
<stop stop-color="#E6B712"/>
<stop offset="1" stop-color="#CAAA3B"/>
</linearGradient>
</defs>
</svg>
