<svg width="48" height="60" viewBox="0 0 48 60" fill="none" xmlns="http://www.w3.org/2000/svg">
<g clip-path="url(#clip0)">
<path fill-rule="evenodd" clip-rule="evenodd" d="M23.9334 19.645V46.8274L7.16602 42.0202V28.1703L20.2743 28.921L23.9334 19.645Z" fill="#CAAA3B"/>
<path fill-rule="evenodd" clip-rule="evenodd" d="M40.9893 19.0242L25.2559 18.0637L29.1554 28.0496L44.8893 27.0892L40.9893 19.0242Z" fill="#E6B712"/>
<path fill-rule="evenodd" clip-rule="evenodd" d="M25.0273 19.645L28.6864 28.921L41.7937 28.1703V42.0202L25.0273 46.8274V19.645Z" fill="#E6B712"/>
<path fill-rule="evenodd" clip-rule="evenodd" d="M7.96935 19.0242L4.07031 27.0892L19.8047 28.0496L23.7033 18.0637L7.96935 19.0242Z" fill="#CAAA3B"/>
<path d="M30.7182 12.2485C28.903 14.0637 25.945 14.0661 24.1285 12.2489C22.3106 10.4323 22.313 7.47438 24.1285 5.65887C25.9443 3.83963 28.9009 3.84064 30.7188 5.65853C32.536 7.47506 32.535 10.4317 30.7182 12.2485Z" fill="#E6B712"/>
<path d="M22.4825 3.81497C21.4995 4.7979 19.8982 4.79926 18.9149 3.81531C17.9306 2.8317 17.932 1.23036 18.9149 0.24742C19.8982 -0.737212 21.4985 -0.737552 22.4832 0.247079C23.4664 1.23035 23.4661 2.83136 22.4825 3.81497Z" fill="#E6B712"/>
<path d="M34.3563 14.9577C34.3563 16.3478 33.2249 17.481 31.8334 17.4806C30.4419 17.481 29.3105 16.3478 29.3105 14.9577C29.3096 13.5662 30.4409 12.4343 31.8334 12.4343C33.2249 12.4338 34.3563 13.5666 34.3563 14.9577Z" fill="#E6B712"/>
<path d="M26.3329 13.1884C26.3329 14.5785 25.2025 15.7113 23.81 15.7113C22.419 15.7113 21.2871 14.5785 21.2871 13.1884C21.2857 11.7969 22.418 10.6646 23.81 10.6646C25.2025 10.6646 26.3329 11.7969 26.3329 13.1884Z" fill="#E6B712"/>
<path d="M19.1276 14.4825C19.1276 16.2648 17.6771 17.7182 15.8924 17.7177C14.1083 17.7182 12.6582 16.2648 12.6582 14.4825C12.6568 12.6979 14.1083 11.2473 15.8924 11.2473C17.6766 11.2473 19.1276 12.6988 19.1276 14.4825Z" fill="#E6B712"/>
</g>
<defs>
<clipPath id="clip0">
<rect width="45" height="45" fill="white"/>
</clipPath>
</defs>
</svg>
