<svg width="32" height="40" viewBox="0 0 32 40" fill="none" xmlns="http://www.w3.org/2000/svg">
<path d="M28.249 1.36804H25.177C25.177 1.37204 25.177 1.37204 25.177 1.37604V2.89204C25.177 4.58404 23.797 5.96004 22.105 5.96004H9.89699C8.20098 5.96004 6.82499 4.59204 6.82499 2.89204V1.37604C6.82499 1.37204 6.82499 1.37204 6.82499 1.36804H3.75298C2.08098 1.36804 0.708984 2.74004 0.708984 4.43204V36.536C0.708984 38.24 2.07298 39.6 3.75298 39.6H28.249C29.921 39.6 31.293 38.228 31.293 36.536V4.43204C31.293 2.72804 29.929 1.36804 28.249 1.36804ZM25.165 28.896H6.83698C5.98498 28.896 5.29698 28.216 5.29698 27.368C5.29698 26.524 5.98498 25.84 6.83698 25.84H25.169C26.021 25.84 26.709 26.52 26.709 27.368C26.705 28.212 26.017 28.896 25.165 28.896ZM25.165 22.78H6.83698C5.98498 22.78 5.29698 22.1 5.29698 21.252C5.29698 20.408 5.98498 19.724 6.83698 19.724H25.169C26.021 19.724 26.709 20.404 26.709 21.252C26.705 22.092 26.017 22.78 25.165 22.78ZM25.165 16.66H6.83698C5.98498 16.66 5.29698 15.98 5.29698 15.132C5.29698 14.288 5.98498 13.604 6.83698 13.604H25.169C26.021 13.604 26.709 14.284 26.709 15.132C26.705 15.976 26.017 16.66 25.165 16.66Z" fill="#FFFFFF"/>
<path d="M9.45752 4.65602C9.52152 4.69602 9.58552 4.72802 9.65352 4.76002C9.75352 4.80802 9.85752 4.84802 9.96552 4.88402C10.0375 4.90802 10.1095 4.92402 10.1855 4.94002C10.2215 4.94802 10.2615 4.95602 10.2975 4.96002C10.4095 4.97602 10.5295 4.98802 10.6455 4.98802H21.3575C22.6215 4.98802 23.6455 3.96002 23.6455 2.69602C23.6455 2.33602 23.5655 2.00002 23.4215 1.69602C23.3895 1.62802 23.3535 1.56402 23.3175 1.50002C23.2975 1.46802 23.2775 1.43602 23.2575 1.40802C23.1535 1.25602 23.0335 1.11602 22.8975 0.992024C22.8695 0.968024 22.8415 0.944024 22.8135 0.920024C22.5575 0.712024 22.2575 0.556024 21.9295 0.472024C21.7455 0.424024 21.5535 0.400024 21.3575 0.400024H10.6455C10.0135 0.400024 9.44152 0.656024 9.02552 1.07202C9.00152 1.09602 8.97352 1.12402 8.94952 1.15202C8.87752 1.23202 8.80552 1.32002 8.74552 1.41202C8.49752 1.78002 8.35352 2.22002 8.35352 2.69602C8.35352 3.53202 8.79752 4.25602 9.45752 4.65602Z" fill="#FFFFFF"/>
</svg>
