<svg width="20" height="20" viewBox="0 0 20 20" fill="none" xmlns="http://www.w3.org/2000/svg">
<path d="M15.0001 7.50011C15.0001 3.35828 11.642 0 7.50011 0C3.35828 0 0 3.35828 0 7.50011C0 11.6419 3.35828 15 7.50011 15C11.642 15 15.0001 11.6419 15.0001 7.50011ZM7.50011 13.125C4.39825 13.125 1.87508 10.602 1.87508 7.50015C1.87508 4.39829 4.39825 1.87512 7.50011 1.87512C10.6019 1.87512 13.1253 4.39829 13.1253 7.50015C13.1253 10.602 10.6019 13.125 7.50011 13.125Z" fill="#CAAA3B"/>
<path d="M19.45 16.7997L14.8617 12.2109C14.178 13.2742 13.2732 14.1785 12.21 14.8622L16.7987 19.4509C17.5312 20.1833 18.719 20.1833 19.45 19.4509C20.1826 18.7198 20.1826 17.532 19.45 16.7997Z" fill="#CAAA3B"/>
</svg>
