<svg width="20" height="20" viewBox="0 0 20 20" fill="none" xmlns="http://www.w3.org/2000/svg">
<path d="M15.0001 7.50011C15.0001 3.35828 11.642 0 7.50011 0C3.35828 0 0 3.35828 0 7.50011C0 11.6419 3.35828 15 7.50011 15C11.642 15 15.0001 11.6419 15.0001 7.50011ZM7.50011 13.125C4.39825 13.125 1.87508 10.602 1.87508 7.50015C1.87508 4.39829 4.39825 1.87512 7.50011 1.87512C10.6019 1.87512 13.1253 4.39829 13.1253 7.50015C13.1253 10.602 10.6019 13.125 7.50011 13.125Z" fill="#C4C4C4"/>
<path d="M19.451 16.8L14.8626 12.2113C14.179 13.2746 13.2742 14.1789 12.2109 14.8626L16.7997 19.4513C17.5322 20.1837 18.72 20.1837 19.4509 19.4513C20.1835 18.7201 20.1835 17.5324 19.451 16.8Z" fill="#C4C4C4"/>
</svg>
