<svg width="20" height="20" viewBox="0 0 20 20" fill="none" xmlns="http://www.w3.org/2000/svg">
<path d="M4.16699 3.33366V8.33366C4.16699 9.25033 4.91699 10.0003 5.83366 10.0003H14.167C15.0837 10.0003 15.8337 9.25033 15.8337 8.33366V3.33366C15.8337 2.41699 15.0837 1.66699 14.167 1.66699H5.83366C4.91699 1.66699 4.16699 2.41699 4.16699 3.33366ZM12.5003 4.16699H7.50033V3.33366H12.5003V4.16699Z" fill="black"/>
<path d="M18.1667 11.7498C18 11.5832 17.75 11.4165 17.25 11.3332C16.75 11.2498 14.0833 10.9165 13.75 10.8332C13.25 10.7498 12.6667 10.9998 11.9167 11.4998C11.4167 11.8332 10.4167 12.4165 10.3333 12.4165C10.4167 12.4998 10.8333 12.4998 10.8333 12.4998H10.9167C11.8333 12.4998 12.5 13.2498 12.5 14.0832V14.2498C12.5 15.1665 11.75 15.8332 10.9167 15.8332H9.16667C7.66667 15.8332 6.25 14.3332 6.25 14.3332C6.25 14.3332 8 14.9998 9.16667 14.9998H10.8333C11.3333 14.9998 11.6667 14.5832 11.6667 14.1665C11.6667 13.7498 11.3333 13.3332 10.9167 13.3332C9.33333 13.1665 8.66667 12.4998 8.66667 12.4998C8.66667 12.4998 7.25 11.4165 6.75 11.1665C5 10.1665 1.75 12.2498 1.75 12.2498L3.91667 16.9998C3.91667 16.9998 5 16.3332 6.5 16.9165C7.5 17.3332 8.08333 17.6665 9.08333 17.9998C10.5 18.4998 11 18.4165 11.9167 17.7498C12.75 17.1665 16.75 13.9998 17.3333 13.5832C18.1667 12.8332 18.5833 12.2498 18.1667 11.7498Z" fill="black"/>
</svg>
