<svg width="45" height="45" viewBox="0 0 45 45" fill="none" xmlns="http://www.w3.org/2000/svg">
<path d="M38.9306 15.3C39.7288 15.6008 40.5751 15.7533 41.4281 15.75H43.4441C43.7257 15.75 43.9959 15.8619 44.195 16.0611C44.3942 16.2603 44.5061 16.5304 44.5061 16.812V31.797C44.5037 32.0764 44.3914 32.3435 44.1935 32.5406C43.9955 32.7377 43.7279 32.8489 43.4486 32.85H40.7846C40.4027 32.8509 40.0326 32.9828 39.7361 33.2235L39.1286 33.7185C39.0537 33.7781 38.9584 33.8058 38.8633 33.7957C38.7682 33.7856 38.6808 33.7385 38.6201 33.6645L24.3416 16.3305C24.1674 16.1182 23.9241 15.9739 23.6543 15.9229C23.3844 15.8719 23.1052 15.9174 22.8656 16.0515L16.3226 19.719C15.6738 20.0816 14.9499 20.2893 14.2076 20.326C13.4653 20.3627 12.7245 20.2274 12.0431 19.9305C11.8196 19.8336 11.624 19.6822 11.4741 19.4902C11.3241 19.2982 11.2247 19.0717 11.1849 18.8313C11.1451 18.591 11.1661 18.3445 11.246 18.1144C11.326 17.8843 11.4623 17.6779 11.6426 17.514L19.3286 11.664C20.3634 10.8777 21.5816 10.3679 22.8681 10.1829C24.1546 9.99784 25.4671 10.1437 26.6816 10.6065L38.9306 15.3ZM1.55809 32.85H3.86209L5.46859 30.8835C5.9474 30.3042 6.57579 29.8672 7.28552 29.6198C7.99525 29.3725 8.75918 29.3244 9.49433 29.4807C10.2295 29.637 10.9078 29.9918 11.4555 30.5064C12.0032 31.0211 12.3994 31.676 12.6011 32.4C13.2806 32.5877 13.9004 32.9471 14.4008 33.4436C14.9013 33.9401 15.2655 34.557 15.4586 35.235C16.4684 35.5287 17.327 36.1988 17.8571 37.107C18.7276 37.2443 19.5316 37.6558 20.1521 38.2815C20.7938 38.95 21.1999 39.8095 21.3087 40.7297C21.4175 41.6498 21.2231 42.5804 20.7551 43.38L20.5166 43.7985C20.8992 44.0708 21.3547 44.2221 21.8242 44.2329C22.2936 44.2437 22.7556 44.1136 23.1504 43.8592C23.5452 43.6049 23.8547 43.2381 24.0389 42.8062C24.2232 42.3743 24.2737 41.897 24.1841 41.436C24.1785 41.4248 24.1774 41.4118 24.181 41.3998C24.1847 41.3877 24.1928 41.3775 24.2036 41.3712C24.2145 41.3649 24.2274 41.363 24.2396 41.3658C24.2519 41.3687 24.2626 41.3761 24.2696 41.3865L24.4451 41.5575C24.8409 41.9532 25.3614 42.1999 25.9183 42.2557C26.4751 42.3114 27.0342 42.1729 27.5006 41.8635C27.8744 41.6026 28.1644 41.2388 28.3354 40.8162C28.5063 40.3936 28.5509 39.9305 28.4636 39.483C28.458 39.4718 28.4569 39.4588 28.4605 39.4468C28.4642 39.4347 28.4722 39.4245 28.4831 39.4182C28.494 39.4119 28.5069 39.41 28.5191 39.4128C28.5314 39.4157 28.5421 39.4231 28.5491 39.4335L28.7246 39.6045C29.1201 39.9991 29.6397 40.2451 30.1956 40.3008C30.7515 40.3566 31.3096 40.2187 31.7756 39.9105C32.1502 39.6502 32.4411 39.2866 32.6129 38.864C32.7847 38.4414 32.8299 37.9779 32.7431 37.53C32.7375 37.5188 32.7364 37.5058 32.74 37.4938C32.7437 37.4817 32.7518 37.4715 32.7626 37.4652C32.7735 37.4589 32.7864 37.457 32.7986 37.4598C32.8109 37.4627 32.8216 37.4701 32.8286 37.4805L33.0266 37.6695C33.4014 38.0416 33.8885 38.2799 34.4123 38.3474C34.9361 38.4149 35.4676 38.3079 35.9246 38.043C36.2234 37.8645 36.4789 37.622 36.6729 37.333C36.8669 37.044 36.9944 36.7157 37.0465 36.3716C37.0985 36.0274 37.0738 35.676 36.9739 35.3426C36.8741 35.0092 36.7017 34.702 36.4691 34.443L35.0291 32.706L23.4011 18.5355C23.3438 18.4655 23.2636 18.418 23.1746 18.4015C23.0856 18.385 22.9937 18.4006 22.9151 18.4455L17.3531 21.5595C16.4692 22.055 15.488 22.3519 14.4777 22.4296C13.4674 22.5073 12.4524 22.364 11.5031 22.0095C10.9807 21.8264 10.5054 21.5296 10.1117 21.1405C9.7179 20.7514 9.41543 20.2797 9.22609 19.7595C9.07583 19.2276 9.03187 18.6712 9.09673 18.1222C9.16158 17.5732 9.33399 17.0424 9.60409 16.56C9.65001 16.4797 9.67432 16.3888 9.67466 16.2963C9.675 16.2038 9.65135 16.1127 9.60603 16.0321C9.56071 15.9514 9.49525 15.8838 9.41605 15.836C9.33684 15.7881 9.24659 15.7616 9.15409 15.759H1.55809C1.27643 15.759 1.00631 15.8709 0.807146 16.0701C0.607983 16.2693 0.496094 16.5394 0.496094 16.821V31.806C0.500815 32.0846 0.614785 32.3501 0.813439 32.5454C1.01209 32.7407 1.27952 32.8501 1.55809 32.85ZM12.3581 41.6565L12.4931 41.76C12.7959 41.9972 13.1604 42.1424 13.5434 42.1783C13.9263 42.2142 14.3115 42.1393 14.6531 41.9625C14.6694 41.9525 14.688 41.9468 14.7071 41.946C14.7262 41.9451 14.7453 41.9492 14.7624 41.9577C14.7795 41.9663 14.7942 41.9791 14.805 41.9949C14.8158 42.0107 14.8223 42.029 14.8241 42.048C14.905 42.545 15.1701 42.9933 15.5666 43.3035L15.6521 43.371C15.8809 43.5502 16.1456 43.6779 16.4282 43.7456C16.7108 43.8134 17.0047 43.8195 17.2899 43.7635C17.575 43.7076 17.8448 43.591 18.0809 43.4215C18.317 43.2521 18.5138 43.0338 18.6581 42.7815L18.9506 42.2685C19.1926 41.8625 19.2897 41.3863 19.2259 40.9179C19.1621 40.4495 18.9413 40.0166 18.5996 39.69C18.3082 39.4259 17.9458 39.2528 17.5572 39.192C17.1686 39.1313 16.7708 39.1855 16.4126 39.348C16.4032 39.353 16.3926 39.3554 16.3819 39.3548C16.3713 39.3542 16.361 39.3507 16.3522 39.3446C16.3434 39.3386 16.3364 39.3303 16.3319 39.3206C16.3275 39.3109 16.3259 39.3001 16.3271 39.2895C16.3443 38.9583 16.2786 38.628 16.1359 38.3286C15.9932 38.0291 15.778 37.77 15.5099 37.5747C15.2418 37.3795 14.9292 37.2542 14.6004 37.2102C14.2716 37.1663 13.9371 37.205 13.6271 37.323C13.3301 37.377 13.3931 37.116 13.3931 37.116C13.5503 36.7348 13.585 36.3141 13.4926 35.9122C13.4002 35.5104 13.1852 35.1471 12.8773 34.8728C12.5694 34.5985 12.1838 34.4267 11.7739 34.3811C11.3641 34.3356 10.9502 34.4186 10.5896 34.6185C10.3691 34.65 10.3961 34.443 10.3961 34.443C10.6512 33.9957 10.7215 33.4664 10.5921 32.9679C10.4626 32.4695 10.1436 32.0413 9.70309 31.7745C9.2749 31.5349 8.77512 31.4562 8.294 31.5528C7.81289 31.6493 7.38216 31.9147 7.07959 32.301L5.51809 34.218C5.35186 34.4218 5.22789 34.6567 5.15343 34.909C5.07896 35.1612 5.0555 35.4258 5.08441 35.6872C5.11331 35.9486 5.19401 36.2016 5.32178 36.4315C5.44955 36.6614 5.62184 36.8635 5.82859 37.026L6.06709 37.2105C6.37747 37.4546 6.75386 37.6 7.14769 37.6281C7.54153 37.6562 7.93474 37.5656 8.27659 37.368C8.2926 37.3572 8.31155 37.3516 8.33088 37.3518C8.3502 37.3521 8.36898 37.3583 8.38467 37.3696C8.40037 37.3809 8.41222 37.3967 8.41865 37.4149C8.42507 37.4332 8.42575 37.4529 8.42059 37.4715C8.34976 37.8305 8.37952 38.202 8.50658 38.545C8.63364 38.8881 8.85306 39.1894 9.14059 39.4155L9.33409 39.5685C9.63322 39.804 9.99362 39.9486 10.3725 39.9853C10.7514 40.022 11.1329 39.9492 11.4716 39.7755C11.4882 39.7674 11.5066 39.7639 11.525 39.7653C11.5435 39.7667 11.5612 39.773 11.5763 39.7836C11.5915 39.7941 11.6035 39.8086 11.6112 39.8253C11.6189 39.8421 11.622 39.8607 11.6201 39.879C11.581 40.2146 11.6278 40.5546 11.7561 40.867C11.8844 41.1795 12.09 41.4543 12.3536 41.6655L12.3581 41.6565ZM4.27159 6.30005L9.28009 9.90005C9.44303 10.0171 9.63537 10.0865 9.83554 10.1004C10.0357 10.1143 10.2358 10.0722 10.4133 9.97872C10.5909 9.88527 10.7389 9.7442 10.8408 9.57134C10.9427 9.39847 10.9944 9.20065 10.9901 9.00005V7.28105H34.0121V9.03155C34.0078 9.23215 34.0595 9.42998 34.1614 9.60284C34.2633 9.7757 34.4113 9.91677 34.5888 10.0102C34.7664 10.1037 34.9665 10.1458 35.1666 10.1319C35.3668 10.118 35.5592 10.0486 35.7221 9.93155L40.7306 6.33155C40.87 6.23156 40.9835 6.09981 41.0618 5.94722C41.1401 5.79462 41.181 5.62557 41.181 5.45405C41.181 5.28253 41.1401 5.11347 41.0618 4.96088C40.9835 4.80828 40.87 4.67654 40.7306 4.57655L35.7221 0.976546C35.5592 0.859456 35.3668 0.790072 35.1666 0.776176C34.9665 0.762279 34.7664 0.804419 34.5888 0.897871C34.4113 0.991322 34.2633 1.13239 34.1614 1.30525C34.0595 1.47812 34.0078 1.67594 34.0121 1.87655V3.15005H10.9901V1.84955C10.9944 1.64894 10.9427 1.45112 10.8408 1.27825C10.7389 1.10539 10.5909 0.964322 10.4133 0.870871C10.2358 0.777419 10.0357 0.735279 9.83554 0.749176C9.63537 0.763072 9.44303 0.832456 9.28009 0.949546L4.27159 4.54955C4.13223 4.64954 4.01869 4.78128 3.94037 4.93388C3.86204 5.08647 3.82119 5.25553 3.82119 5.42705C3.82119 5.59857 3.86204 5.76762 3.94037 5.92022C4.01869 6.07281 4.13223 6.20456 4.27159 6.30455V6.30005Z" fill="#E6B712"/>
</svg>
