<svg width="75" height="41" viewBox="0 0 75 41" fill="none" xmlns="http://www.w3.org/2000/svg">
<path d="M56.0996 25.3V21.625V21.175V4.07498C56.0996 2.27498 54.6746 0.849978 52.8746 0.849978H40.3496H31.4996H21.7496C20.0246 0.849978 18.5996 1.67498 17.6246 2.94998C17.5496 3.02498 17.4746 3.17498 17.3996 3.24998L11.3996 12.25L8.17461 12.775C5.39961 12.775 3.14961 15.025 3.14961 17.8V25.15C1.72461 25.3 0.599609 26.575 0.599609 28V31.75C0.599609 33.325 1.87461 34.6 3.44961 34.6H7.04961C7.94961 37.75 10.9496 40.225 14.4746 40.225C18.0746 40.225 20.9996 37.9 21.8996 34.6H31.4996H36.2996C37.1996 37.75 40.1996 40.225 43.7246 40.225C47.3246 40.225 50.2496 37.9 51.1496 34.6H55.2746C56.8496 34.6 58.1246 33.325 58.1246 31.75V28.075C58.2746 26.725 57.2996 25.6 56.0996 25.3ZM14.4746 36.325C12.3746 36.325 10.5746 34.525 10.5746 32.425C10.5746 30.325 12.2996 28.525 14.4746 28.525C16.5746 28.525 18.3746 30.325 18.3746 32.425C18.3746 34.525 16.6496 36.325 14.4746 36.325ZM43.7996 36.325C41.6246 36.325 39.8996 34.525 39.8996 32.425C39.8996 30.325 41.6246 28.525 43.7996 28.525C45.8996 28.525 47.6996 30.325 47.6996 32.425C47.6996 34.525 45.9746 36.325 43.7996 36.325ZM74.3996 3.02498C74.3996 4.22498 73.4246 5.19998 72.2246 5.19998H62.4746C61.2746 5.19998 60.2996 4.22498 60.2996 3.02498C60.2996 1.82498 61.2746 0.849978 62.4746 0.849978H72.2246C73.4246 0.774978 74.3996 1.82498 74.3996 3.02498ZM71.9246 11.8C71.9246 13 70.9496 13.975 69.7496 13.975H62.5496C61.3496 13.975 60.3746 13 60.3746 11.8C60.3746 10.6 61.3496 9.62498 62.5496 9.62498H69.7496C70.8746 9.54998 71.9246 10.6 71.9246 11.8ZM69.0746 20.575C69.0746 21.775 68.0996 22.75 66.8996 22.75H62.5496C61.3496 22.75 60.3746 21.775 60.3746 20.575C60.3746 19.375 61.3496 18.4 62.5496 18.4H66.8996C68.0996 18.4 69.0746 19.375 69.0746 20.575Z" fill="#FFFFFF"/>
</svg>
