<svg width="20" height="20" viewBox="0 0 20 20" fill="none" xmlns="http://www.w3.org/2000/svg">
<path d="M7.5 0C7.25 0 7.08333 0.0833333 6.91667 0.25L0.25 6.91667C0.0833333 7.08333 0 7.25 0 7.5C0 7.75 0.0833333 7.91667 0.25 8.08333L1.41667 9.25C1.58333 9.41667 1.83333 9.5 2 9.5C2.25 9.5 2.41667 9.41667 2.58333 9.25L4.25 7.58333C4.5 7.33333 5 7.5 5 7.91667V19.1667C5 19.5833 5.41667 20 5.83333 20H7.5C7.91667 20 8.33333 19.5833 8.33333 19.1667V0.833333C8.33333 0.583333 8.25 0.416667 8.08333 0.25C7.91667 0.0833333 7.75 0 7.5 0Z" fill="#BDBDBD"/>
<path d="M19.7498 11.9167L18.5832 10.75C18.4165 10.5833 18.1665 10.5 17.9998 10.5C17.7498 10.5 17.5832 10.5833 17.4165 10.75L15.7498 12.4167C15.4998 12.6667 14.9998 12.5 14.9998 12.0833V0.833333C14.9998 0.416667 14.5832 0 14.1665 0H12.4998C12.0832 0 11.6665 0.416667 11.6665 0.833333V19.1667C11.6665 19.4167 11.7498 19.5833 11.9165 19.75C12.0832 19.9167 12.3332 20 12.4998 20C12.7498 20 12.9165 19.9167 13.0832 19.75L19.7498 13.0833C19.9165 12.9167 19.9998 12.75 19.9998 12.5C19.9998 12.25 19.9165 12.0833 19.7498 11.9167Z" fill="#BDBDBD"/>
</svg>
