<svg width="26" height="26" viewBox="0 0 26 26" fill="none" xmlns="http://www.w3.org/2000/svg">
<path d="M17.6637 10.7414C17.672 10.8617 17.672 10.982 17.672 11.1023C17.672 14.7719 14.9912 19 10.0914 19C8.58186 19 7.17958 18.5445 6 17.7539C6.21448 17.7797 6.42067 17.7883 6.6434 17.7883C7.88894 17.7883 9.03554 17.35 9.95115 16.6024C8.77983 16.5766 7.79822 15.7773 7.46002 14.6773C7.62501 14.7031 7.78997 14.7203 7.96321 14.7203C8.20242 14.7203 8.44165 14.6859 8.66435 14.6258C7.44354 14.368 6.5279 13.2508 6.5279 11.9016V11.8672C6.88258 12.0734 7.29505 12.2024 7.73221 12.2195C7.01456 11.7211 6.5444 10.8703 6.5444 9.90779C6.5444 9.39218 6.67636 8.91952 6.90734 8.50702C8.2189 10.1914 10.1904 11.2914 12.401 11.4117C12.3598 11.2055 12.335 10.9906 12.335 10.7758C12.335 9.24608 13.5228 8 14.9994 8C15.7665 8 16.4594 8.33516 16.9461 8.87656C17.5482 8.75626 18.1256 8.52421 18.6371 8.20625C18.4391 8.8508 18.0184 9.3922 17.4657 9.73593C18.0019 9.6758 18.5216 9.52108 19 9.30626C18.6371 9.85624 18.1834 10.3461 17.6637 10.7414Z" fill="black"/>
<circle cx="13" cy="13" r="12.5" stroke="black"/>
</svg>
