<svg width="20" height="20" viewBox="0 0 20 20" fill="none" xmlns="http://www.w3.org/2000/svg">
<path d="M11.5094 8.49157C10.9892 7.97142 10.9892 7.12848 11.5094 6.60833L15.3017 2.81602L13.3767 2.65985C13.0489 2.63218 12.7581 2.48954 12.5423 2.27373C12.2755 2.00689 12.123 1.62938 12.1568 1.22421C12.2183 0.491323 12.8608 -0.0546512 13.5918 0.00498788L18.387 0.395409C19.0381 0.449514 19.5527 0.965362 19.6056 1.61463L19.996 6.4085C20.0562 7.14077 19.5096 7.78328 18.7774 7.84353C18.0457 7.90317 17.4032 7.3572 17.3423 6.62431L17.1862 4.70049L13.3939 8.49218C12.8725 9.01295 12.0289 9.01295 11.5094 8.49157ZM6.60731 11.5092L2.81623 15.3009L2.65883 13.3764C2.59858 12.6436 1.95608 12.0976 1.22381 12.1578C0.490308 12.2187 -0.055052 12.8612 0.00397224 13.5922L0.394393 18.388C0.447269 19.0372 0.964346 19.5531 1.61423 19.6053L6.4081 19.9958C7.14037 20.0566 7.78288 19.5094 7.84313 18.7778C7.87695 18.3726 7.72447 17.9951 7.45763 17.7276C7.24121 17.5106 6.95223 17.3698 6.62453 17.3421L4.69947 17.1847L8.49055 13.393C9.01255 12.8717 9.01255 12.0287 8.49178 11.5098C7.9704 10.9884 7.12746 10.9884 6.60731 11.5092ZM18.7755 12.1566C18.3697 12.1228 17.9928 12.2753 17.726 12.5421C17.509 12.7591 17.3669 13.0481 17.3405 13.3758L17.1831 15.3003L13.392 11.5086C12.87 10.9884 12.0271 10.9884 11.5094 11.5086C10.9874 12.0287 10.9874 12.8723 11.5094 13.3918L15.3005 17.1835L13.3748 17.3397C12.6432 17.3999 12.0978 18.043 12.1568 18.7753C12.2177 19.507 12.8602 20.0542 13.5937 19.9939L18.3863 19.6029C19.0362 19.55 19.5521 19.0342 19.6056 18.3849L19.9947 13.5898C20.055 12.8594 19.509 12.2162 18.7755 12.1566ZM4.69947 2.81602L6.62453 2.65985C7.3568 2.5996 7.90215 1.95709 7.84313 1.22359C7.78226 0.490708 7.13976 -0.0546512 6.40749 0.00437305L1.61238 0.395409C0.963731 0.448285 0.446654 0.964132 0.394393 1.61463L0.00397224 6.4085C-0.0556668 7.14139 0.489693 7.78328 1.22319 7.84353C1.62714 7.87673 2.00526 7.72487 2.27272 7.45741C2.48975 7.24161 2.63178 6.95263 2.65822 6.62431L2.81562 4.69926L6.60793 8.49095C7.12746 9.01172 7.97163 9.01172 8.49055 8.49095C9.01193 7.9708 9.01193 7.12786 8.49178 6.60771L4.69947 2.81602Z" fill="#BDBDBD"/>
</svg>
