<svg width="15" height="16" viewBox="0 0 15 16" fill="none" xmlns="http://www.w3.org/2000/svg">
<path d="M13.8789 0H1.12105C0.505263 0 0 0.533333 0 1.18333V14.8167C0 15.4667 0.505263 16 1.12105 16H13.8789C14.4947 16 15 15.4667 15 14.8167V1.18333C15 0.533333 14.4947 0 13.8789 0ZM10.5789 14.0667C9.1579 14.25 7.81579 14.4833 6.42632 14.6167C5.62105 14.7 4.8 14.6333 3.97895 14.6333C3.33158 14.6333 2.84211 14.2833 2.46316 13.75C2.36842 13.6167 2.28947 13.4 2.32105 13.2333C2.38421 12.85 2.25789 12.6 2.00526 12.35C1.5 11.8667 1.48421 11.7667 1.75263 11.1167C1.89474 10.7833 1.86316 10.5333 1.61053 10.2833C1.56316 10.2333 1.51579 10.1667 1.46842 10.1167C1.26316 9.9 1.29474 9.66667 1.40526 9.43333C1.45263 9.33333 1.51579 9.25 1.57895 9.15C1.75263 8.88333 1.75263 8.65 1.54737 8.4C1.43684 8.25 1.34211 8.05 1.34211 7.85C1.32632 7.3 1.92632 6.55 2.44737 6.51667C3.41053 6.45 4.38947 6.45 5.35263 6.41667C5.71579 6.41667 5.74737 6.38333 5.7 6C5.7 5.93333 5.68421 5.86667 5.65263 5.81667C5.47895 5.4 5.33684 4.96667 5.13158 4.56667C4.73684 3.76667 4.57895 2.93333 4.84737 2.06667C5.03684 1.43333 5.62105 0.983333 6.18947 1C6.37895 1 6.50526 1.06667 6.50526 1.31667C6.52105 1.61667 6.55263 1.9 6.6 2.2C6.71053 3.21667 7.01053 4.11667 7.87895 4.71667C8.1 4.86667 8.24211 5.16667 8.36842 5.43333C8.58947 5.88333 8.71579 6.38333 8.96842 6.81667C9.34737 7.51667 9.78947 8.31667 10.5789 8.43333C10.5789 10.2833 10.5789 12.1167 10.5789 14.0667ZM13.0737 14.3667C12.6 14.3667 12.1421 14.3667 11.6684 14.3667C11.2737 14.3667 11.0684 14.1333 11.0684 13.7167C11.0684 12.9 11.0684 12.0833 11.0684 11.25C11.0684 10.4167 11.0684 9.56667 11.0684 8.73333C11.0684 8.3 11.2737 8.06667 11.6842 8.06667C12.1421 8.06667 12.6 8.06667 13.0579 8.06667C13.4684 8.06667 13.7053 8.3 13.7053 8.75C13.7053 10.4 13.7053 12.05 13.7053 13.7C13.7053 14.1167 13.4842 14.35 13.0737 14.3667Z" fill="white"/>
</svg>
