<svg width="30" height="30" viewBox="0 0 30 30" fill="none" xmlns="http://www.w3.org/2000/svg">
<path d="M22.1498 12.3644C22.1612 12.5121 22.1612 12.6598 22.1612 12.8074C22.1612 17.3109 18.4493 22.5 11.665 22.5C9.57488 22.5 7.63326 21.941 6 20.9707C6.29697 21.0023 6.58247 21.0129 6.89086 21.0129C8.61546 21.0129 10.2031 20.475 11.4708 19.5574C9.84899 19.5258 8.48985 18.5449 8.02156 17.1949C8.25001 17.2265 8.47842 17.2476 8.71829 17.2476C9.0495 17.2476 9.38074 17.2054 9.6891 17.1316C7.99875 16.8152 6.73094 15.4441 6.73094 13.7883V13.7461C7.22204 13.9992 7.79315 14.1574 8.39844 14.1785C7.40478 13.5668 6.75379 12.5226 6.75379 11.3414C6.75379 10.7086 6.9365 10.1285 7.25631 9.62225C9.07232 11.6894 11.802 13.0394 14.8629 13.1871C14.8058 12.934 14.7716 12.6703 14.7716 12.4066C14.7716 10.5293 16.4162 9 18.4607 9C19.5228 9 20.4822 9.41133 21.1561 10.0758C21.9898 9.92813 22.7893 9.64335 23.4975 9.25313C23.2233 10.0442 22.6409 10.7086 21.8756 11.1305C22.618 11.0567 23.3376 10.8668 24 10.6031C23.4975 11.2781 22.8693 11.8793 22.1498 12.3644Z" fill="white"/>
<circle cx="15" cy="15" r="14.5" stroke="white"/>
</svg>
