<svg width="23" height="21" viewBox="0 0 23 21" fill="none" xmlns="http://www.w3.org/2000/svg">
<path d="M11.6966 0.00171249C5.34639 -0.106778 0.110204 4.95322 0.00171362 11.3034C-0.059909 14.904 1.54488 18.14 4.10005 20.2921C4.26713 20.1462 4.44636 20.0126 4.64554 19.9041L8.07688 18.0324C8.5269 17.7868 8.80724 17.3151 8.80724 16.8021V15.3961C8.80724 15.3961 7.80002 14.1914 7.41596 12.5176C7.09743 12.3115 6.88392 11.9552 6.88392 11.5494V10.0106C6.88392 9.67213 7.03451 9.36966 7.26841 9.15788V6.93339C7.26841 6.93339 6.81145 3.47167 11.4995 3.47167C16.1876 3.47167 15.7307 6.93339 15.7307 6.93339V9.15788C15.965 9.36966 16.1152 9.67213 16.1152 10.0106V11.5494C16.1152 12.0667 15.768 12.502 15.2967 12.6474C15.0342 13.4637 14.6553 14.2418 14.1545 14.9491C14.0282 15.1275 13.9102 15.2785 13.8069 15.3961V16.8377C13.8069 17.3684 14.1068 17.8541 14.5815 18.091L18.2559 19.928C18.4764 20.0382 18.6755 20.1775 18.8591 20.3324C21.337 18.2659 22.9379 15.1761 22.9974 11.6966C23.1067 5.34639 18.0472 0.110203 11.6966 0.00171249Z" fill="#CAAA3B"/>
</svg>
