<svg width="23" height="26" viewBox="0 0 23 26" fill="none" xmlns="http://www.w3.org/2000/svg">
<path d="M11.9717 13C15.4436 13 18.2574 10.0902 18.2574 6.5C18.2574 2.90977 15.4436 0 11.9717 0C8.4998 0 5.68597 2.90977 5.68597 6.5C5.68597 10.0902 8.4998 13 11.9717 13ZM16.3717 14.625H15.5516C14.4614 15.143 13.2485 15.4375 11.9717 15.4375C10.6949 15.4375 9.48686 15.143 8.39177 14.625H7.57168C3.92793 14.625 0.97168 17.682 0.97168 21.45V23.5625C0.97168 24.9082 2.02748 26 3.32882 26H20.6145C21.9159 26 22.9717 24.9082 22.9717 23.5625V21.45C22.9717 17.682 20.0154 14.625 16.3717 14.625Z" fill="url(#paint0_linear)"/>
<defs>
<linearGradient id="paint0_linear" x1="7.84668" y1="26" x2="20.3745" y2="26" gradientUnits="userSpaceOnUse">
<stop stop-color="#E6B712"/>
<stop offset="1" stop-color="#CAAA3B"/>
</linearGradient>
</defs>
</svg>
