<svg width="21" height="13" viewBox="0 0 21 13" fill="none" xmlns="http://www.w3.org/2000/svg">
<path d="M20.7577 5.63914C18.702 2.25907 14.8681 0 10.5 0C6.13011 0 2.29703 2.26066 0.242319 5.63914C0.0836703 5.89999 0 6.19724 0 6.50002C0 6.80279 0.0836703 7.10005 0.242319 7.3609C2.29802 10.7409 6.13193 13 10.5 13C14.8699 13 18.703 10.7393 20.7577 7.36086C20.9163 7.10002 21 6.80277 21 6.5C21 6.19723 20.9163 5.89998 20.7577 5.63914V5.63914ZM10.5 11.3043C7.75972 11.3043 5.54167 9.15557 5.54167 6.5C5.54167 3.84482 7.75929 1.69565 10.5 1.69565C13.2403 1.69565 15.4583 3.8444 15.4583 6.5C15.4583 9.15518 13.2407 11.3043 10.5 11.3043ZM14.2917 6.5C14.2917 8.52906 12.5941 10.1739 10.5 10.1739C8.40591 10.1739 6.70834 8.52906 6.70834 6.5C6.70834 5.87445 6.86989 5.28552 7.15444 4.76998L7.15441 4.77111C7.15441 5.6066 7.85342 6.28387 8.7157 6.28387C9.57797 6.28387 10.277 5.60657 10.277 4.77111C10.277 3.93561 9.57797 3.2583 8.7157 3.2583L8.71453 3.25834C9.2466 2.98262 9.8544 2.82609 10.5 2.82609C12.5941 2.82609 14.2917 4.47094 14.2917 6.5Z" fill="url(#paint0_linear)"/>
<defs>
<linearGradient id="paint0_linear" x1="6.5625" y1="13" x2="18.5208" y2="13" gradientUnits="userSpaceOnUse">
<stop stop-color="#E6B712"/>
<stop offset="1" stop-color="#CAAA3B"/>
</linearGradient>
</defs>
</svg>
