<svg width="36" height="31" viewBox="0 0 36 31" fill="none" xmlns="http://www.w3.org/2000/svg">
<path d="M8.41385 5.83603L22.7645 2.40805L22.0045 1.06375C21.5073 0.18995 20.2946 -0.17089 19.2961 0.26424L6.44922 5.83603H8.41385Z" fill="#E6B712"/>
<path d="M27.2207 2.50696C27.0428 2.50696 26.8649 2.52818 26.6871 2.57064L23.3157 3.37722L13.0195 5.8359H24.7063H29.7998L29.1691 3.81236C28.9266 3.02346 28.11 2.50696 27.2207 2.50696Z" fill="#E6B712"/>
<path d="M31.903 7.0741H31.4422H30.8156H30.189H25.4068H7.83427H5.53007H3.5897H3.22992H2.02527C1.38656 7.0741 0.816575 7.33235 0.44467 7.73918C0.274887 7.92667 0.145528 8.14247 0.0727641 8.37949C0.0282972 8.52807 0 8.68373 0 8.84293V9.05518V11.0716V28.5512C0 29.5276 0.905509 30.32 2.02123 30.32H31.899C33.0147 30.32 33.9202 29.5276 33.9202 28.5512V23.6162H21.9263C20.0303 23.6162 18.4902 22.2683 18.4902 20.6092V18.9889V18.4406V17.8923V16.6753C18.4902 15.8616 18.862 15.1223 19.4644 14.581C19.998 14.0999 20.7135 13.7744 21.5139 13.6931C21.6473 13.6789 21.7848 13.6718 21.9222 13.6718H32.2385H32.8651H33.4917H33.9202V8.84293C33.9242 7.86653 33.0187 7.0741 31.903 7.0741Z" fill="#E6B712"/>
<path d="M35.3404 15.3626C35.1382 15.1998 34.8997 15.076 34.6329 14.9947C34.4267 14.9345 34.2085 14.8992 33.9781 14.8992H33.9255H33.8851H33.2585H30.9988H21.9275C20.8117 14.8992 19.9062 15.6916 19.9062 16.668V17.5489V18.0972V18.6455V20.6054C19.9062 21.5818 20.8117 22.3742 21.9275 22.3742H33.9255H33.9781C34.2085 22.3742 34.4268 22.3389 34.6329 22.2787C34.8997 22.2009 35.1382 22.0735 35.3404 21.9108C35.7446 21.5889 35.9993 21.1219 35.9993 20.6054V16.668C35.9993 16.1515 35.7446 15.6845 35.3404 15.3626ZM26.1478 18.9887C26.1478 19.4769 25.6951 19.8731 25.1372 19.8731H24.4661C23.9083 19.8731 23.4555 19.4769 23.4555 18.9887V18.4014C23.4555 18.1184 23.6051 17.8672 23.8436 17.708C24.0174 17.5913 24.2317 17.517 24.4661 17.517H24.6359H25.1372C25.6951 17.517 26.1478 17.9132 26.1478 18.4014V18.9887Z" fill="#E6B712"/>
</svg>
