<svg width="45" height="57" viewBox="0 0 45 57" fill="none" xmlns="http://www.w3.org/2000/svg">
<path d="M38.1608 36.6749L32.8058 24.7949L32.4908 25.0199C32.4008 25.1099 32.3108 25.1999 32.2208 25.2899L30.8708 27.4049C30.4658 28.0799 29.7458 28.4849 28.9358 28.5299L26.4158 28.6199C26.2808 28.6199 26.1458 28.6649 26.0558 28.7099L25.6958 28.8899L23.1758 34.4249L26.6408 42.0749C27.0008 42.8399 28.0358 42.9299 28.5308 42.2549L31.1408 38.4749C31.4558 38.0699 31.8158 37.8449 32.0858 38.0249L37.0808 38.2049C37.9358 38.2499 38.4758 37.3949 38.1608 36.6749Z" fill="#E6B712"/>
<path d="M23.8495 29.88C23.4895 30.06 23.1295 30.15 22.7695 30.15C22.3645 30.15 22.0045 30.06 21.6445 29.88L21.0145 29.565L19.3945 28.755C19.2595 28.71 19.1695 28.665 19.0345 28.665L16.5145 28.575C15.7495 28.53 15.0295 28.125 14.5795 27.45L13.2295 25.335C13.1395 25.245 13.0495 25.155 12.9595 25.065L12.2845 24.615L6.83949 36.72C6.52449 37.44 7.06449 38.25 7.82949 38.25H7.87449L12.8695 38.07H12.9145C13.2745 38.07 13.5895 38.25 13.8145 38.52L16.4245 42.3C16.6495 42.615 16.9645 42.75 17.3245 42.75C17.7295 42.75 18.1345 42.525 18.3145 42.12L22.4995 32.895L23.8495 29.88Z" fill="#E6B712"/>
<path d="M10.7093 18.2701C10.8443 18.5401 10.9343 18.8551 10.9343 19.1701L11.0243 21.6901C11.0243 22.0501 11.2493 22.3651 11.5193 22.5451L11.6543 22.6351L12.7793 23.3551L13.6343 23.8951C13.9043 24.0751 14.1293 24.3001 14.3093 24.5701L15.6593 26.6851C15.8393 27.0001 16.1543 27.1801 16.5143 27.1801L19.0343 27.2701C19.3493 27.2701 19.6643 27.3601 19.9343 27.4951L20.0693 27.5851L22.1843 28.6651C22.3193 28.7551 22.4993 28.8001 22.6793 28.8001C22.8593 28.8001 23.0393 28.7551 23.1743 28.6651L24.6593 27.9001L25.4243 27.4951C25.4693 27.4501 25.5593 27.4501 25.6043 27.4051C25.8293 27.3151 26.0993 27.2701 26.3243 27.2251H26.3693L28.8443 27.1351C29.2043 27.1351 29.5193 26.9101 29.6993 26.6401L31.0493 24.5251C31.2293 24.2551 31.4543 24.0301 31.7243 23.8501L32.2193 23.5351L33.8393 22.5001C34.1543 22.3201 34.3343 22.0051 34.3343 21.6451L34.4243 19.1251C34.4243 18.8101 34.5143 18.4951 34.6493 18.2251L35.8193 15.9751C35.9993 15.6601 35.9993 15.3001 35.8193 14.9851L34.6493 12.7351C34.5143 12.4651 34.4243 12.1501 34.4243 11.8351L34.3343 9.31509C34.3343 8.95509 34.1093 8.64008 33.8393 8.46008L31.7243 7.11008C31.4543 6.93008 31.2293 6.70508 31.0493 6.43508L29.6993 4.32008C29.5193 4.00508 29.2043 3.82508 28.8443 3.82508L26.3243 3.73508C26.0093 3.73508 25.6943 3.64508 25.4243 3.51008L23.1743 2.34009C23.0393 2.25009 22.8593 2.20508 22.6793 2.20508C22.4993 2.20508 22.3193 2.25009 22.1843 2.34009L19.9343 3.51008C19.6643 3.64508 19.3493 3.73508 19.0343 3.73508L16.5143 3.82508C16.1543 3.82508 15.8393 4.05008 15.6593 4.32008L14.3093 6.43508C14.1293 6.70508 13.9043 6.93008 13.6343 7.11008L11.5193 8.46008C11.2043 8.64008 11.0243 8.95509 11.0243 9.31509L10.9343 11.8351C10.9343 12.1501 10.8443 12.4651 10.7093 12.7351L9.5393 14.9851C9.3593 15.3001 9.3593 15.6601 9.5393 15.9751L10.7093 18.2701ZM22.7243 6.03008C27.9893 6.03008 32.2193 10.3051 32.2193 15.5251C32.2193 20.7901 27.9443 25.0201 22.7243 25.0201C17.4593 25.0201 13.2293 20.7451 13.2293 15.5251C13.2293 10.3051 17.4593 6.03008 22.7243 6.03008Z" fill="#E6B712"/>
<path d="M22.7256 23.9849C27.4056 23.9849 31.1856 20.2049 31.1856 15.5249C31.1856 10.8449 27.4056 7.06494 22.7256 7.06494C18.0456 7.06494 14.2656 10.8449 14.2656 15.5249C14.2656 20.2049 18.0456 23.9849 22.7256 23.9849ZM22.7256 7.64994C27.0906 7.64994 30.6006 11.1599 30.6006 15.5249C30.6006 19.8899 27.0906 23.3999 22.7256 23.3999C18.3606 23.3999 14.8506 19.8899 14.8506 15.5249C14.8506 11.2049 18.3606 7.64994 22.7256 7.64994Z" fill="#E6B712"/>
<path d="M19.2594 20.025L22.5444 17.685L25.7844 20.025L24.5244 16.2L27.8094 13.815H23.7594L22.5444 9.98999L21.2844 13.815H17.2344L20.5194 16.2L19.2594 20.025Z" fill="#E6B712"/>
</svg>
