<svg width="23" height="22" viewBox="0 0 23 22" fill="none" xmlns="http://www.w3.org/2000/svg">
<path d="M15.9001 6.74194C15.2568 2.78105 13.7396 0 11.9739 0C10.2082 0 8.69098 2.78105 8.0477 6.74194H15.9001ZM7.71497 11C7.71497 11.9847 7.76821 12.9294 7.86138 13.8387H16.082C16.1751 12.9294 16.2284 11.9847 16.2284 11C16.2284 10.0153 16.1751 9.07056 16.082 8.16129H7.86138C7.76821 9.07056 7.71497 10.0153 7.71497 11ZM22.1199 6.74194C20.8511 3.73024 18.2824 1.40161 15.1104 0.46129C16.1929 1.96048 16.9382 4.21814 17.3286 6.74194H22.1199ZM8.83294 0.46129C5.66537 1.40161 3.09227 3.73024 1.8279 6.74194H6.61919C7.00515 4.21814 7.75047 1.96048 8.83294 0.46129V0.46129ZM22.5946 8.16129H17.5061C17.5992 9.09274 17.6525 10.0464 17.6525 11C17.6525 11.9536 17.5992 12.9073 17.5061 13.8387H22.5902C22.8342 12.9294 22.9717 11.9847 22.9717 11C22.9717 10.0153 22.8342 9.07056 22.5946 8.16129ZM6.29533 11C6.29533 10.0464 6.34857 9.09274 6.44173 8.16129H1.35321C1.11364 9.07056 0.97168 10.0153 0.97168 11C0.97168 11.9847 1.11364 12.9294 1.35321 13.8387H6.4373C6.34857 12.9073 6.29533 11.9536 6.29533 11V11ZM8.0477 15.2581C8.69098 19.219 10.2082 22 11.9739 22C13.7396 22 15.2568 19.219 15.9001 15.2581H8.0477ZM15.1149 21.5387C18.2824 20.5984 20.8555 18.2698 22.1243 15.2581H17.333C16.9426 17.7819 16.1973 20.0395 15.1149 21.5387ZM1.8279 15.2581C3.0967 18.2698 5.66537 20.5984 8.83738 21.5387C7.7549 20.0395 7.00959 17.7819 6.61919 15.2581H1.8279V15.2581Z" fill="url(#paint0_linear)"/>
<defs>
<linearGradient id="paint0_linear" x1="7.84668" y1="22" x2="20.3745" y2="22" gradientUnits="userSpaceOnUse">
<stop stop-color="#E6B712"/>
<stop offset="1" stop-color="#CAAA3B"/>
</linearGradient>
</defs>
</svg>
