<svg width="17" height="17" viewBox="0 0 17 17" fill="none" xmlns="http://www.w3.org/2000/svg">
<path d="M13.7695 2.66016C13.0195 1.93359 12.1641 1.37109 11.2031 0.972656C10.2656 0.574219 9.28125 0.375 8.25 0.375C6.84375 0.375 5.54297 0.726562 4.34766 1.42969C3.15234 2.13281 2.20312 3.08203 1.5 4.27734C0.796875 5.47266 0.445312 6.77344 0.445312 8.17969C0.445312 9.58594 0.796875 10.8867 1.5 12.082L0.375 16.125L4.52344 15.0352C5.67188 15.668 6.91406 15.9844 8.25 15.9844C9.65625 15.9844 10.957 15.6328 12.1523 14.9297C13.3711 14.2266 14.332 13.2773 15.0352 12.082C15.7617 10.8867 16.125 9.58594 16.125 8.17969C16.125 7.14844 15.9141 6.16406 15.4922 5.22656C15.0938 4.26563 14.5195 3.41016 13.7695 2.66016ZM8.25 14.6836C7.05469 14.6836 5.95312 14.3789 4.94531 13.7695L4.69922 13.6289L2.23828 14.2617L2.90625 11.8711L2.76562 11.625C2.08594 10.5703 1.74609 9.42188 1.74609 8.17969C1.74609 7.00781 2.03906 5.92969 2.625 4.94531C3.21094 3.9375 3.99609 3.14063 4.98047 2.55469C5.98828 1.96875 7.07812 1.67578 8.25 1.67578C9.11719 1.67578 9.9375 1.83984 10.7109 2.16797C11.5078 2.49609 12.2109 2.97656 12.8203 3.60938C13.4531 4.21875 13.9453 4.92187 14.2969 5.71875C14.6484 6.51562 14.8242 7.33594 14.8242 8.17969C14.8242 9.35156 14.5195 10.4414 13.9102 11.4492C13.3242 12.4336 12.5273 13.2188 11.5195 13.8047C10.5117 14.3906 9.42188 14.6836 8.25 14.6836ZM11.8008 9.79688C11.0977 9.44531 10.6523 9.23438 10.4648 9.16406C10.3711 9.14062 10.2891 9.12891 10.2188 9.12891C10.1484 9.12891 10.0898 9.17578 10.043 9.26953C9.92578 9.43359 9.71484 9.69141 9.41016 10.043C9.31641 10.1602 9.17578 10.1719 8.98828 10.0781C8.33203 9.75 7.83984 9.45703 7.51172 9.19922C7.06641 8.84766 6.67969 8.36719 6.35156 7.75781C6.28125 7.6875 6.25781 7.62891 6.28125 7.58203C6.30469 7.51172 6.36328 7.42969 6.45703 7.33594C6.64453 7.14844 6.79688 6.9375 6.91406 6.70312C6.96094 6.60938 6.94922 6.49219 6.87891 6.35156L6.28125 4.91016C6.23438 4.76953 6.17578 4.6875 6.10547 4.66406C6.05859 4.61719 5.98828 4.59375 5.89453 4.59375H5.47266C5.28516 4.59375 5.10938 4.67578 4.94531 4.83984L4.91016 4.875C4.48828 5.32031 4.27734 5.84766 4.27734 6.45703C4.27734 7.06641 4.53516 7.73438 5.05078 8.46094L5.12109 8.53125C6.10547 9.9375 7.19531 10.8984 8.39062 11.4141C8.97656 11.6719 9.44531 11.8359 9.79688 11.9062C10.1016 11.9531 10.418 11.9531 10.7461 11.9062C10.957 11.8828 11.2031 11.7773 11.4844 11.5898C11.7891 11.3789 11.9766 11.1797 12.0469 10.9922C12.1406 10.7812 12.1875 10.582 12.1875 10.3945C12.2109 10.207 12.2109 10.0898 12.1875 10.043C12.1641 9.99609 12.0703 9.9375 11.9062 9.86719L11.8008 9.79688Z" fill="url(#paint0_linear)"/>
<defs>
<linearGradient id="paint0_linear" x1="3.375" y1="16" x2="20.4583" y2="16" gradientUnits="userSpaceOnUse">
<stop stop-color="#E6B712"/>
<stop offset="1" stop-color="#CAAA3B"/>
</linearGradient>
</defs>
</svg>
