<svg width="30" height="30" viewBox="0 0 30 30" fill="none" xmlns="http://www.w3.org/2000/svg">
<path d="M23 14.7942C23 19.0985 19.4835 22.5878 15.1448 22.5878C13.7679 22.5878 12.4745 22.2357 11.3486 21.619L7 23L8.41755 18.8173C7.70278 17.6434 7.29113 16.2649 7.29113 14.7937C7.29165 10.4894 10.8071 7 15.1458 7C19.484 7.00104 23 10.4899 23 14.7942ZM15.1443 8.24277C11.5031 8.24277 8.5412 11.1822 8.5412 14.7957C8.5412 16.2295 9.00867 17.5568 9.7991 18.6367L8.97476 21.0696L11.5114 20.2635C12.5549 20.948 13.8034 21.3466 15.1443 21.3466C18.7854 21.3466 21.7484 18.4077 21.7484 14.7942C21.7494 11.1822 18.786 8.24277 15.1443 8.24277ZM19.1115 16.5895C19.0625 16.5107 18.9341 16.4627 18.7421 16.3667C18.5507 16.2707 17.6027 15.8089 17.4268 15.7463C17.2495 15.6822 17.1211 15.6498 16.9928 15.8413C16.866 16.0328 16.4966 16.4627 16.3834 16.591C16.2712 16.7189 16.159 16.735 15.9665 16.6406C15.774 16.5435 15.1531 16.3432 14.4175 15.6926C13.8451 15.1855 13.4585 14.561 13.3469 14.3695C13.2337 14.1785 13.3354 14.0752 13.4309 13.9803C13.517 13.8942 13.6234 13.757 13.7199 13.6448C13.8164 13.5337 13.8483 13.4549 13.9124 13.3271C13.9756 13.1992 13.9438 13.0881 13.8963 12.9916C13.8483 12.8956 13.4638 11.9565 13.3025 11.574C13.1424 11.1921 12.9822 11.2553 12.8695 11.2553C12.7573 11.2553 12.629 11.2396 12.5006 11.2396C12.3723 11.2396 12.1636 11.286 11.9878 11.4775C11.8119 11.669 11.3142 12.1307 11.3142 13.0709C11.3142 14.0121 12.0034 14.9194 12.0999 15.0467C12.197 15.1735 13.4325 17.166 15.3895 17.9308C17.3475 18.6952 17.3475 18.44 17.7002 18.4077C18.054 18.3754 18.8397 17.946 18.9993 17.5004C19.16 17.0528 19.16 16.6693 19.1115 16.5895Z" fill="black"/>
<circle cx="15" cy="15" r="14.5" stroke="black"/>
</svg>
